<?xml version="1.0" encoding="UTF-8" standalone="no"?>
<!-- Created with Inkscape (http://www.inkscape.org/) -->

<svg
   width="1920"
   height="1080"
   viewBox="0 0 507.99982 285.7499"
   version="1.1"
   id="svg5"
   sodipodi:docname="baseImage.svg"
   inkscape:version="1.3.2 (091e20ef0f, 2023-11-25)"
   inkscape:export-filename="/home/librorum/Downloads/mint_logo_discord.png"
   inkscape:export-xdpi="96"
   inkscape:export-ydpi="96"
   xmlns:inkscape="http://www.inkscape.org/namespaces/inkscape"
   xmlns:sodipodi="http://sodipodi.sourceforge.net/DTD/sodipodi-0.dtd"
   xmlns="http://www.w3.org/2000/svg"
   xmlns:svg="http://www.w3.org/2000/svg">
  <sodipodi:namedview
     id="namedview7"
     pagecolor="#484848"
     bordercolor="#666666"
     borderopacity="1.0"
     inkscape:pageshadow="2"
     inkscape:pageopacity="0.0"
     inkscape:pagecheckerboard="0"
     inkscape:document-units="mm"
     showgrid="false"
     fit-margin-top="0"
     fit-margin-left="0"
     fit-margin-right="0"
     fit-margin-bottom="0"
     inkscape:zoom="1"
     inkscape:cx="353.5"
     inkscape:cy="210.5"
     inkscape:window-width="1920"
     inkscape:window-height="1018"
     inkscape:window-x="0"
     inkscape:window-y="0"
     inkscape:window-maximized="1"
     inkscape:current-layer="svg5"
     showguides="true"
     inkscape:guide-bbox="true"
     inkscape:showpageshadow="2"
     inkscape:deskcolor="#d1d1d1">
    <inkscape:grid
       type="xygrid"
       id="grid9725"
       originx="-9.321104"
       originy="5.0865547e-06"
       spacingy="1"
       spacingx="1"
       units="mm"
       visible="false" />
  </sodipodi:namedview>
  <defs
     id="defs2">
    <linearGradient
       id="linearGradient59240"
       inkscape:swatch="solid">
      <stop
         style="stop-color:#376326;stop-opacity:1;"
         offset="0"
         id="stop59238" />
    </linearGradient>
    <filter
       style="color-interpolation-filters:sRGB"
       inkscape:label="Drop Shadow"
       id="filter116945"
       x="-0.030022848"
       y="-0.035191897"
       width="1.0850646"
       height="1.0997103">
      <feFlood
         flood-opacity="1"
         flood-color="rgb(0,0,0)"
         result="flood"
         id="feFlood116935" />
      <feComposite
         in="flood"
         in2="SourceGraphic"
         operator="in"
         result="composite1"
         id="feComposite116937" />
      <feGaussianBlur
         in="composite1"
         stdDeviation="2"
         result="blur"
         id="feGaussianBlur116939" />
      <feOffset
         dx="4"
         dy="4"
         result="offset"
         id="feOffset116941" />
      <feComposite
         in="SourceGraphic"
         in2="offset"
         operator="over"
         result="composite2"
         id="feComposite116943" />
    </filter>
    <filter
       style="color-interpolation-filters:sRGB"
       inkscape:label="Drop Shadow"
       id="filter116975"
       x="-0.016548399"
       y="-0.13613297"
       width="1.0468872"
       height="1.3857101">
      <feFlood
         flood-opacity="1"
         flood-color="rgb(0,0,0)"
         result="flood"
         id="feFlood116965" />
      <feComposite
         in="flood"
         in2="SourceGraphic"
         operator="in"
         result="composite1"
         id="feComposite116967" />
      <feGaussianBlur
         in="composite1"
         stdDeviation="2"
         result="blur"
         id="feGaussianBlur116969" />
      <feOffset
         dx="4"
         dy="4"
         result="offset"
         id="feOffset116971" />
      <feComposite
         in="SourceGraphic"
         in2="offset"
         operator="over"
         result="composite2"
         id="feComposite116973" />
    </filter>
  </defs>
  <path
     style="color:#000000;display:inline;fill:none;fill-opacity:1;stroke:#ffffff;stroke-width:1.30982;stroke-dasharray:none;stroke-opacity:1"
     d="m 206.21941,41.687729 22.22565,58.334041 c 5.42625,14.24188 21.56242,21.47441 35.8043,16.04818 l 38.88938,-14.8171 c 14.24187,-5.426247 21.4744,-21.562427 16.04817,-35.804306 L 306.83933,33.040755 c -4.0624,-10.662218 -16.19102,-16.09852 -26.85324,-12.036147 -4.98107,1.897755 -8.75621,5.590839 -11.02054,10.037573 -4.64919,-1.812641 -9.92465,-2.057317 -14.90569,-0.159513 -10.66222,4.0624 -16.09851,16.191011 -12.03614,26.853235 l 12.34757,32.40781 12.96313,-4.93902 -12.34758,-32.407801 c -1.39301,-3.656477 0.35561,-7.557957 4.01204,-8.951076 3.65647,-1.393013 7.55795,0.355615 8.95107,4.012047 l 12.34758,32.4078 12.96313,-4.93902 -12.34759,-32.407799 c -1.39302,-3.656474 0.35561,-7.557956 4.01204,-8.95108 3.65647,-1.393013 7.55795,0.355613 8.95108,4.012049 l 12.3476,32.407797 c 2.75702,7.236093 -0.78799,15.145153 -8.02411,17.902153 l -38.88936,14.817097 c -7.23609,2.75702 -15.14514,-0.78798 -17.90215,-8.024087 l -22.22565,-58.33405 z"
     id="path4193"
     inkscape:label="mintLogo" />
  <ellipse
     style="fill:none;stroke:#ffffff;stroke-width:1.30982;stroke-linecap:square;stroke-linejoin:round;stroke-miterlimit:0;stroke-dasharray:none;paint-order:markers stroke fill"
     id="path1"
     cx="268.20474"
     cy="66.145828"
     inkscape:label="ring"
     rx="65.490929"
     ry="65.490921" />
  <path
     style="color:#000000;display:inline;fill:#000000;fill-opacity:1;stroke:none;stroke-width:1.35362;stroke-linecap:butt;stroke-linejoin:round;stroke-dasharray:none;stroke-opacity:1;paint-order:normal"
     d="m 13.717402,12.073774 -4.4e-4,62.877086 c -1.1e-4,15.35105 12.99639,27.94546 28.83766,27.94557 l 43.25682,2.7e-4 c 15.841288,1.2e-4 28.837908,-12.59416 28.838028,-27.94518 l 2.3e-4,-34.931704 c 3e-5,-11.492602 -9.7686,-20.959119 -21.628228,-20.959199 -5.54045,-9.2e-5 -10.57399,2.12212 -14.41897,5.495525 -3.84495,-3.373461 -8.87846,-5.495669 -14.4189,-5.495713 -11.85961,-4.2e-5 -21.62846,9.466311 -21.62853,20.958904 l -2.5e-4,34.931727 14.41893,1.3e-4 2.4e-4,-34.931726 c 1.1e-4,-3.941209 3.14244,-6.986329 7.2095,-6.986309 4.06708,1.11e-4 7.20944,3.045211 7.20941,6.986399 l -2.3e-4,34.931726 14.41894,1.3e-4 2.3e-4,-34.931715 c 1.1e-4,-3.941198 3.14245,-6.986328 7.20951,-6.986298 4.06705,1.11e-4 7.209438,3.045191 7.209418,6.986409 l -2.3e-4,34.931704 c 0,7.79964 -6.370278,13.97265 -14.419038,13.97259 l -43.2568,-2.8e-4 c -8.04871,0 -14.41886,-6.17312 -14.41881,-13.97277 l 4.2e-4,-62.877108 z"
     id="path4193-3-6-9-8"
     inkscape:label="mintLogo" />
  <path
     style="color:#000000;display:inline;fill:#d7e3f4;fill-opacity:1;stroke:#000000;stroke-width:1.32292;stroke-linecap:butt;stroke-linejoin:round;stroke-dasharray:none;stroke-opacity:1;paint-order:normal"
     d="m 16.600275,12.829893 -4.2e-4,62.424672 c -1.1e-4,15.24059 12.503552,27.744375 27.744112,27.744485 l 41.61648,2.7e-4 c 15.240573,1.2e-4 27.744353,-12.503535 27.744473,-27.744105 l 2.2e-4,-34.68036 c 3e-5,-11.40991 -9.39817,-20.808312 -20.808073,-20.808392 -5.33035,-9.1e-5 -10.17302,2.106851 -13.87219,5.455983 -3.69915,-3.349187 -8.54178,-5.456126 -13.87212,-5.456169 -11.40989,-4.2e-5 -20.80829,9.398198 -20.80836,20.808098 l -2.4e-4,34.68038 13.87215,1.3e-4 2.3e-4,-34.68038 c 1.1e-4,-3.91285 3.02328,-6.93606 6.93611,-6.93604 3.91285,1.1e-4 6.93605,3.0233 6.93602,6.93613 l -2.2e-4,34.68038 13.87216,1.3e-4 2.2e-4,-34.68037 c 1.1e-4,-3.91284 3.02329,-6.93606 6.93612,-6.93603 3.91283,1.1e-4 6.93605,3.02328 6.93603,6.93614 l -2.2e-4,34.68036 c 0,7.74352 -6.12871,13.87211 -13.87225,13.87205 l -41.61646,-2.7e-4 c -7.7435,0 -13.87209,-6.12871 -13.87204,-13.87224 l 4e-4,-62.424685 z"
     id="path4193-3-6-9-1"
     inkscape:label="mintLogo" />
</svg>
