<?xml version="1.0" encoding="UTF-8" standalone="no"?>
<!DOCTYPE svg PUBLIC "-//W3C//DTD SVG 20010904//EN"
              "http://www.w3.org/TR/2001/REC-SVG-20010904/DTD/svg10.dtd">

<svg xmlns="http://www.w3.org/2000/svg"
     width="6.4in" height="3.6in"
     viewBox="0 0 1920 1080">
  <path id="Selection"
        fill="none" stroke="black" stroke-width="1"
        d="M 887.00,57.00
           C 889.30,54.02 891.50,54.04 895.00,53.12
             895.00,53.12 913.00,48.60 913.00,48.60
             930.12,45.15 947.55,43.03 965.00,42.84
             965.00,42.84 977.00,42.84 977.00,42.84
             977.00,42.84 992.00,42.84 992.00,42.84
             992.00,42.84 1022.00,45.72 1022.00,45.72
             1025.96,46.24 1031.21,45.83 1034.00,49.00
             1044.47,46.25 1060.21,54.72 1071.00,55.00
             1071.00,55.00 1070.00,57.00 1070.00,57.00
             1076.27,56.00 1083.05,58.73 1089.00,60.67
             1089.00,60.67 1127.00,75.58 1127.00,75.58
             1129.44,76.64 1141.00,82.28 1142.23,83.81
             1143.23,85.04 1142.81,85.23 1143.00,86.00
             1148.05,85.72 1155.77,88.68 1157.00,94.00
             1162.65,93.97 1165.54,96.70 1170.00,99.86
             1170.00,99.86 1190.00,114.92 1190.00,114.92
             1207.38,129.38 1226.72,150.14 1235.71,171.00
             1237.42,174.95 1239.78,181.82 1240.54,186.00
             1241.52,191.43 1240.29,193.14 1243.11,198.83
             1246.18,205.02 1251.23,208.35 1254.00,214.00
             1259.63,215.06 1264.73,221.08 1269.00,224.85
             1280.29,234.79 1290.46,245.30 1298.63,258.00
             1301.78,262.89 1305.85,268.01 1306.00,274.00
             1311.50,277.57 1315.92,294.40 1317.98,301.00
             1317.98,301.00 1324.42,329.00 1324.42,329.00
             1328.44,351.26 1329.04,367.19 1318.63,388.00
             1315.03,395.20 1310.18,402.56 1305.37,409.00
             1302.35,413.05 1301.31,415.73 1296.00,416.00
             1296.00,416.00 1298.00,418.00 1298.00,418.00
             1298.00,418.00 1298.00,419.00 1298.00,419.00
             1295.43,421.29 1287.60,428.85 1286.20,431.58
             1285.57,433.46 1286.00,446.02 1286.20,449.00
             1286.20,449.00 1285.00,473.00 1285.00,473.00
             1285.00,473.00 1286.00,488.00 1286.00,488.00
             1286.00,488.00 1287.17,521.00 1287.17,521.00
             1287.17,521.00 1292.00,570.00 1292.00,570.00
             1292.00,570.00 1292.00,605.00 1292.00,605.00
             1292.00,605.00 1291.04,616.00 1291.04,616.00
             1289.85,643.18 1285.42,670.13 1281.27,697.00
             1281.27,697.00 1261.25,820.00 1261.25,820.00
             1261.25,820.00 1254.42,861.00 1254.42,861.00
             1250.78,884.47 1247.19,907.25 1234.54,928.00
             1219.81,952.14 1195.04,955.70 1169.00,956.00
             1169.00,956.00 1154.00,957.00 1154.00,957.00
             1134.23,957.03 1112.75,957.88 1094.00,950.54
             1086.10,947.45 1077.26,941.98 1071.43,935.83
             1057.11,920.73 1047.43,892.44 1044.27,872.00
             1044.27,872.00 1042.83,857.00 1042.83,857.00
             1042.83,857.00 1042.00,848.00 1042.00,848.00
             1042.00,848.00 1042.00,835.00 1042.00,835.00
             1042.00,835.00 1044.00,811.00 1044.00,811.00
             1044.00,811.00 995.00,810.00 995.00,810.00
             995.00,810.00 993.17,832.00 993.17,832.00
             993.17,832.00 991.91,853.00 991.91,853.00
             991.91,853.00 990.00,879.00 990.00,879.00
             989.96,903.83 990.92,936.58 976.48,958.00
             966.01,973.53 947.03,981.95 930.00,988.05
             914.64,993.56 888.32,997.97 872.00,998.00
             872.00,998.00 855.00,998.00 855.00,998.00
             831.92,997.96 807.66,990.49 788.01,978.50
             778.60,972.75 769.35,964.87 762.76,956.00
             762.76,956.00 754.00,942.00 754.00,942.00
             754.25,936.66 752.08,930.33 751.00,925.00
             751.00,925.00 747.43,901.00 747.43,901.00
             747.43,901.00 744.83,871.00 744.83,871.00
             744.83,871.00 741.96,833.00 741.96,833.00
             741.96,833.00 741.09,825.00 741.09,825.00
             741.09,825.00 740.58,813.00 740.58,813.00
             740.28,810.84 740.00,807.29 738.40,805.74
             736.28,803.67 731.78,804.00 729.00,804.00
             729.00,804.00 724.00,804.00 724.00,804.00
             724.00,804.00 713.00,803.04 713.00,803.04
             687.05,801.91 657.75,800.42 636.00,784.36
             628.65,778.93 616.78,766.43 616.00,757.00
             616.00,757.00 614.00,757.00 614.00,757.00
             614.00,757.00 612.00,749.00 612.00,749.00
             607.99,746.74 605.52,738.22 603.95,734.00
             598.97,720.62 594.17,700.28 594.00,686.00
             594.00,686.00 594.00,606.00 594.00,606.00
             594.00,606.00 592.88,591.00 592.88,591.00
             592.88,591.00 592.88,538.00 592.88,538.00
             592.88,538.00 592.88,526.00 592.88,526.00
             592.88,526.00 592.88,517.00 592.88,517.00
             592.88,517.00 594.00,494.00 594.00,494.00
             594.00,494.00 594.91,483.00 594.91,483.00
             594.91,483.00 596.83,456.00 596.83,456.00
             596.83,456.00 598.28,435.00 598.28,435.00
             598.28,435.00 606.08,368.00 606.08,368.00
             607.00,362.55 609.10,348.56 615.00,347.00
             616.31,338.44 625.51,330.69 632.00,325.45
             651.87,309.42 681.14,304.16 706.00,301.15
             706.00,301.15 730.00,297.75 730.00,297.75
             733.03,297.25 738.10,296.90 740.15,294.49
             741.94,292.38 742.29,286.85 742.75,284.00
             742.75,284.00 746.66,259.00 746.66,259.00
             746.66,259.00 752.47,228.00 752.47,228.00
             752.47,228.00 773.19,162.00 773.19,162.00
             773.19,162.00 782.87,137.00 782.87,137.00
             784.57,133.04 786.30,128.38 790.00,126.00
             790.21,119.36 795.91,113.72 800.17,109.00
             810.16,97.93 821.51,88.46 834.00,80.34
             838.66,77.32 844.36,73.01 850.00,73.00
             850.86,69.82 851.90,70.03 855.00,70.00
             857.36,66.32 869.57,60.79 874.00,59.94
             876.14,59.43 876.94,59.69 879.00,59.94
             880.11,56.38 883.77,56.58 887.00,57.00 Z
           M 936.00,46.00
           C 936.00,46.00 935.00,46.00 935.00,46.00
             935.00,46.00 936.00,47.00 936.00,47.00
             936.00,47.00 936.00,46.00 936.00,46.00 Z
           M 1065.00,55.00
           C 1065.00,55.00 1064.00,55.00 1064.00,55.00
             1064.00,55.00 1065.00,56.00 1065.00,56.00
             1065.00,56.00 1065.00,55.00 1065.00,55.00 Z
           M 1061.00,56.00
           C 1061.00,56.00 1060.00,56.00 1060.00,56.00
             1060.00,56.00 1061.00,57.00 1061.00,57.00
             1061.00,57.00 1061.00,56.00 1061.00,56.00 Z
           M 880.00,60.00
           C 880.00,60.00 879.00,60.00 879.00,60.00
             879.00,60.00 880.00,61.00 880.00,61.00
             880.00,61.00 880.00,60.00 880.00,60.00 Z
           M 1083.00,60.00
           C 1083.00,60.00 1082.00,60.00 1082.00,60.00
             1082.00,60.00 1083.00,61.00 1083.00,61.00
             1083.00,61.00 1083.00,60.00 1083.00,60.00 Z
           M 1090.00,62.00
           C 1090.00,62.00 1089.00,62.00 1089.00,62.00
             1089.00,62.00 1090.00,63.00 1090.00,63.00
             1090.00,63.00 1090.00,62.00 1090.00,62.00 Z
           M 861.00,67.00
           C 861.00,67.00 860.00,67.00 860.00,67.00
             860.00,67.00 861.00,68.00 861.00,68.00
             861.00,68.00 861.00,67.00 861.00,67.00 Z
           M 854.00,70.00
           C 854.00,70.00 853.00,70.00 853.00,70.00
             853.00,70.00 854.00,71.00 854.00,71.00
             854.00,71.00 854.00,70.00 854.00,70.00 Z
           M 852.00,71.00
           C 852.00,71.00 851.00,71.00 851.00,71.00
             851.00,71.00 852.00,72.00 852.00,72.00
             852.00,72.00 852.00,71.00 852.00,71.00 Z
           M 855.00,71.00
           C 855.00,71.00 854.00,71.00 854.00,71.00
             854.00,71.00 855.00,72.00 855.00,72.00
             855.00,72.00 855.00,71.00 855.00,71.00 Z
           M 857.00,71.00
           C 857.00,71.00 856.00,71.00 856.00,71.00
             856.00,71.00 857.00,72.00 857.00,72.00
             857.00,72.00 857.00,71.00 857.00,71.00 Z
           M 862.00,72.00
           C 862.00,72.00 861.00,72.00 861.00,72.00
             861.00,72.00 862.00,73.00 862.00,73.00
             862.00,73.00 862.00,72.00 862.00,72.00 Z
           M 848.00,73.00
           C 848.00,73.00 847.00,73.00 847.00,73.00
             847.00,73.00 848.00,74.00 848.00,74.00
             848.00,74.00 848.00,73.00 848.00,73.00 Z
           M 1124.00,75.00
           C 1124.00,75.00 1123.00,75.00 1123.00,75.00
             1123.00,75.00 1124.00,76.00 1124.00,76.00
             1124.00,76.00 1124.00,75.00 1124.00,75.00 Z
           M 1126.00,76.00
           C 1126.00,76.00 1125.00,76.00 1125.00,76.00
             1125.00,76.00 1126.00,77.00 1126.00,77.00
             1126.00,77.00 1126.00,76.00 1126.00,76.00 Z
           M 1128.00,77.00
           C 1128.00,77.00 1127.00,77.00 1127.00,77.00
             1127.00,77.00 1128.00,78.00 1128.00,78.00
             1128.00,78.00 1128.00,77.00 1128.00,77.00 Z
           M 1130.00,78.00
           C 1130.00,78.00 1129.00,78.00 1129.00,78.00
             1129.00,78.00 1130.00,79.00 1130.00,79.00
             1130.00,79.00 1130.00,78.00 1130.00,78.00 Z
           M 840.00,79.00
           C 840.00,79.00 839.00,79.00 839.00,79.00
             839.00,79.00 840.00,80.00 840.00,80.00
             840.00,80.00 840.00,79.00 840.00,79.00 Z
           M 839.00,81.00
           C 839.00,81.00 838.00,81.00 838.00,81.00
             838.00,81.00 839.00,82.00 839.00,82.00
             839.00,82.00 839.00,81.00 839.00,81.00 Z
           M 1131.00,81.00
           C 1131.00,81.00 1130.00,81.00 1130.00,81.00
             1130.00,81.00 1131.00,82.00 1131.00,82.00
             1131.00,82.00 1131.00,81.00 1131.00,81.00 Z
           M 1140.00,83.00
           C 1140.00,83.00 1139.00,83.00 1139.00,83.00
             1139.00,83.00 1140.00,84.00 1140.00,84.00
             1140.00,84.00 1140.00,83.00 1140.00,83.00 Z
           M 828.00,86.00
           C 828.00,86.00 827.00,86.00 827.00,86.00
             827.00,86.00 828.00,87.00 828.00,87.00
             828.00,87.00 828.00,86.00 828.00,86.00 Z
           M 1143.00,86.00
           C 1143.00,86.00 1142.00,86.00 1142.00,86.00
             1142.00,86.00 1143.00,87.00 1143.00,87.00
             1143.00,87.00 1143.00,86.00 1143.00,86.00 Z
           M 826.00,87.00
           C 826.00,87.00 825.00,87.00 825.00,87.00
             825.00,87.00 826.00,88.00 826.00,88.00
             826.00,88.00 826.00,87.00 826.00,87.00 Z
           M 831.00,87.00
           C 831.00,87.00 830.00,87.00 830.00,87.00
             830.00,87.00 831.00,88.00 831.00,88.00
             831.00,88.00 831.00,87.00 831.00,87.00 Z
           M 825.00,88.00
           C 825.00,88.00 824.00,88.00 824.00,88.00
             824.00,88.00 825.00,89.00 825.00,89.00
             825.00,89.00 825.00,88.00 825.00,88.00 Z
           M 1149.00,88.00
           C 1149.00,88.00 1148.00,88.00 1148.00,88.00
             1148.00,88.00 1149.00,89.00 1149.00,89.00
             1149.00,89.00 1149.00,88.00 1149.00,88.00 Z
           M 824.00,89.00
           C 824.00,89.00 823.00,89.00 823.00,89.00
             823.00,89.00 824.00,90.00 824.00,90.00
             824.00,90.00 824.00,89.00 824.00,89.00 Z
           M 1079.00,108.00
           C 1075.43,102.81 1060.12,99.66 1054.00,98.33
             1054.00,98.33 1046.00,96.32 1046.00,96.32
             1046.00,96.32 1037.00,95.53 1037.00,95.53
             1037.00,95.53 1029.00,93.33 1029.00,93.33
             1023.16,91.96 1015.00,91.01 1009.00,91.00
             1009.00,91.00 984.00,89.00 984.00,89.00
             984.00,89.00 953.00,89.00 953.00,89.00
             953.00,89.00 936.00,91.07 936.00,91.07
             936.00,91.07 924.00,91.07 924.00,91.07
             924.00,91.07 913.28,93.42 913.28,93.42
             913.28,93.42 906.99,95.52 906.99,95.52
             906.99,95.52 899.00,96.53 899.00,96.53
             888.24,98.96 874.56,105.88 865.00,111.44
             858.12,115.44 851.39,119.57 845.43,124.90
             841.55,128.36 838.73,132.65 835.46,136.58
             832.58,140.03 831.19,140.43 828.25,145.00
             824.23,151.23 824.63,153.59 822.02,159.00
             822.02,159.00 811.83,180.17 811.83,180.17
             811.83,180.17 810.44,188.00 810.44,188.00
             810.44,188.00 807.53,195.00 807.53,195.00
             807.53,195.00 802.92,214.00 802.92,214.00
             802.92,214.00 798.99,236.00 798.99,236.00
             798.99,236.00 795.24,252.00 795.24,252.00
             795.24,252.00 793.75,262.91 793.75,262.91
             793.75,262.91 792.08,269.09 792.08,269.09
             792.08,269.09 790.49,281.00 790.49,281.00
             790.49,281.00 786.81,295.00 786.81,295.00
             786.81,295.00 782.03,324.17 782.03,324.17
             782.03,324.17 779.51,332.96 779.51,332.96
             779.51,332.96 778.57,345.00 778.57,345.00
             777.16,354.61 775.02,364.26 775.00,374.00
             775.00,374.00 773.71,392.00 773.71,392.00
             773.71,392.00 773.71,398.00 773.71,398.00
             773.71,398.00 772.89,405.00 772.89,405.00
             772.89,405.00 772.89,419.00 772.89,419.00
             772.89,419.00 772.89,429.00 772.89,429.00
             772.89,429.00 772.89,438.00 772.89,438.00
             772.89,438.00 772.18,448.00 772.18,448.00
             772.55,453.22 773.29,456.45 772.91,462.00
             772.91,462.00 772.00,472.00 772.00,472.00
             772.00,472.00 773.00,492.00 773.00,492.00
             773.00,492.00 773.00,526.00 773.00,526.00
             773.00,526.00 774.00,543.00 774.00,543.00
             774.00,543.00 774.00,554.00 774.00,554.00
             774.00,554.00 775.96,576.00 775.96,576.00
             775.96,576.00 775.02,590.00 775.02,590.00
             775.02,590.00 775.96,601.00 775.96,601.00
             775.96,601.00 775.96,611.00 775.96,611.00
             775.96,611.00 777.00,625.00 777.00,625.00
             777.00,625.00 778.38,652.00 778.38,652.00
             778.38,652.00 778.38,658.00 778.38,658.00
             778.42,668.72 779.12,663.81 779.98,670.04
             779.98,670.04 779.98,678.00 779.98,678.00
             779.98,678.00 781.00,692.00 781.00,692.00
             781.00,692.00 781.96,702.00 781.96,702.00
             781.96,702.00 781.96,712.00 781.96,712.00
             781.96,712.00 784.00,738.00 784.00,738.00
             784.00,738.00 784.51,765.00 784.51,765.00
             784.51,765.00 785.82,781.00 785.82,781.00
             785.82,781.00 787.09,811.00 787.09,811.00
             787.09,811.00 787.09,825.00 787.09,825.00
             787.81,830.27 788.91,829.72 789.00,837.00
             789.00,837.00 790.17,864.00 790.17,864.00
             790.17,864.00 791.96,879.00 791.96,879.00
             792.33,887.40 791.08,889.74 791.08,894.00
             791.08,898.13 794.11,918.58 795.65,922.00
             797.71,926.60 805.68,935.55 810.00,938.39
             814.05,941.06 816.64,941.34 821.00,942.74
             838.73,948.43 833.46,947.18 852.00,949.16
             852.00,949.16 866.00,951.51 866.00,951.51
             866.00,951.51 873.00,951.51 873.00,951.51
             888.18,951.94 884.79,952.60 900.00,949.36
             900.00,949.36 912.00,946.50 912.00,946.50
             915.98,945.20 926.70,938.92 929.74,936.36
             932.18,934.30 940.91,923.00 941.97,920.00
             943.10,916.85 942.99,913.30 942.93,910.00
             942.93,910.00 942.93,852.99 942.93,852.99
             942.93,852.99 941.08,831.00 941.08,831.00
             941.08,831.00 943.00,809.00 943.00,809.00
             943.13,797.31 943.33,795.29 946.57,784.00
             947.22,781.76 947.73,779.08 948.93,777.09
             951.39,773.01 959.60,766.20 964.00,764.19
             974.39,759.42 981.52,761.98 992.00,761.32
             995.49,761.10 996.74,761.69 1000.00,761.91
             1006.05,762.32 1009.68,762.12 1016.00,763.31
             1016.00,763.31 1025.00,765.54 1025.00,765.54
             1025.00,765.54 1044.04,767.13 1044.04,767.13
             1044.04,767.13 1055.00,769.56 1055.00,769.56
             1055.00,769.56 1076.00,771.00 1076.00,771.00
             1076.00,771.00 1097.00,771.00 1097.00,771.00
             1097.00,771.00 1127.00,769.00 1127.00,769.00
             1127.00,769.00 1145.00,769.00 1145.00,769.00
             1155.32,768.86 1151.76,765.81 1164.00,768.00
             1164.00,768.00 1153.91,777.10 1153.91,777.10
             1153.91,777.10 1142.00,783.83 1142.00,783.83
             1142.00,783.83 1136.00,788.31 1136.00,788.31
             1136.00,788.31 1120.96,796.03 1120.96,796.03
             1120.96,796.03 1105.00,803.08 1105.00,803.08
             1100.25,804.93 1096.00,805.20 1092.35,809.44
             1089.75,812.47 1090.01,820.97 1090.00,825.00
             1090.00,825.00 1090.00,844.00 1090.00,844.00
             1089.98,854.34 1088.31,852.87 1088.05,859.00
             1087.81,864.51 1089.65,873.46 1090.74,879.00
             1092.59,888.34 1093.39,894.37 1099.92,901.79
             1102.77,905.02 1114.86,912.79 1119.00,913.70
             1119.00,913.70 1133.00,914.75 1133.00,914.75
             1148.49,916.51 1161.54,916.26 1177.00,914.75
             1177.00,914.75 1185.00,914.75 1185.00,914.75
             1188.71,913.97 1200.85,909.25 1203.28,906.52
             1209.05,900.04 1208.38,896.65 1209.28,889.00
             1209.28,889.00 1210.70,861.00 1210.70,861.00
             1210.70,861.00 1210.00,850.00 1210.00,850.00
             1210.00,850.00 1210.00,827.00 1210.00,827.00
             1210.01,818.63 1215.73,796.59 1218.46,788.00
             1218.46,788.00 1221.61,780.00 1221.61,780.00
             1221.61,780.00 1222.46,772.00 1222.46,772.00
             1222.46,772.00 1225.55,759.00 1225.55,759.00
             1225.55,759.00 1228.81,740.00 1228.81,740.00
             1230.42,731.89 1232.12,731.29 1232.76,727.83
             1232.76,727.83 1233.39,717.00 1233.39,717.00
             1233.39,717.00 1236.32,708.00 1236.32,708.00
             1236.32,708.00 1238.37,692.00 1238.37,692.00
             1238.37,692.00 1242.47,672.17 1242.47,672.17
             1242.47,672.17 1243.17,660.00 1243.17,660.00
             1243.17,660.00 1244.39,652.00 1244.39,652.00
             1244.39,652.00 1245.04,633.00 1245.04,633.00
             1245.04,633.00 1245.78,621.00 1245.78,621.00
             1245.78,621.00 1245.01,609.00 1245.01,609.00
             1245.01,609.00 1246.25,584.00 1246.25,584.00
             1246.25,584.00 1245.00,571.00 1245.00,571.00
             1245.00,571.00 1245.00,546.00 1245.00,546.00
             1244.98,535.59 1243.31,535.76 1243.15,529.00
             1243.15,529.00 1243.15,519.00 1243.15,519.00
             1243.15,519.00 1242.00,504.00 1242.00,504.00
             1242.00,504.00 1242.00,492.00 1242.00,492.00
             1242.00,492.00 1241.00,472.00 1241.00,472.00
             1240.93,468.40 1240.70,464.34 1236.81,462.75
             1233.14,461.25 1227.62,464.19 1224.00,465.29
             1217.85,467.16 1213.93,466.63 1210.00,467.53
             1203.75,468.95 1202.16,471.63 1195.00,471.00
             1191.20,473.80 1185.65,473.09 1181.00,474.28
             1164.38,478.55 1153.83,480.09 1137.00,482.28
             1137.00,482.28 1116.00,485.71 1116.00,485.71
             1116.00,485.71 1102.00,486.78 1102.00,486.78
             1076.10,489.56 1049.89,490.36 1024.00,486.78
             1024.00,486.78 1014.80,484.96 1014.80,484.96
             1014.80,484.96 1009.83,483.24 1009.83,483.24
             1006.26,482.59 1004.70,483.57 1000.00,482.05
             1000.00,482.05 974.00,473.00 974.00,473.00
             974.00,473.00 975.00,470.00 975.00,470.00
             964.74,469.43 956.32,461.69 948.58,455.76
             948.58,455.76 937.58,447.41 937.58,447.41
             937.58,447.41 921.32,431.55 921.32,431.55
             917.66,427.01 917.04,424.26 914.47,420.00
             910.67,413.70 903.81,400.78 901.67,393.96
             901.67,393.96 898.83,381.00 898.83,381.00
             898.83,381.00 896.30,373.00 896.30,373.00
             896.30,373.00 893.83,354.00 893.83,354.00
             893.83,354.00 892.00,338.00 892.00,338.00
             892.00,338.00 892.00,308.00 892.00,308.00
             892.06,303.52 893.15,287.27 895.00,284.00
             894.39,275.72 898.23,265.02 900.52,257.00
             900.52,257.00 903.22,247.00 903.22,247.00
             907.45,236.29 918.69,217.22 927.26,209.72
             929.32,207.92 930.88,207.48 932.91,206.13
             932.91,206.13 939.09,201.30 939.09,201.30
             944.84,197.95 957.39,194.57 964.00,192.70
             964.00,192.70 972.00,189.65 972.00,189.65
             972.00,189.65 980.00,189.65 980.00,189.65
             982.53,188.80 983.30,187.70 988.00,186.77
             988.00,186.77 1021.00,182.89 1021.00,182.89
             1021.00,182.89 1028.00,181.26 1028.00,181.26
             1028.00,181.26 1049.00,180.00 1049.00,180.00
             1049.00,180.00 1103.00,180.00 1103.00,180.00
             1103.00,180.00 1120.00,181.00 1120.00,181.00
             1120.00,181.00 1164.00,180.37 1164.00,180.37
             1171.50,180.03 1170.26,183.69 1181.00,179.00
             1178.68,173.47 1170.79,169.36 1166.04,165.40
             1166.04,165.40 1143.18,145.17 1143.18,145.17
             1140.94,143.39 1139.33,140.98 1136.82,139.55
             1136.82,139.55 1130.00,137.00 1130.00,137.00
             1130.00,137.00 1133.00,130.00 1133.00,130.00
             1133.00,130.00 1124.00,133.00 1124.00,133.00
             1123.36,128.33 1118.10,127.25 1114.58,124.64
             1101.25,114.74 1105.92,119.56 1094.00,113.31
             1088.30,110.32 1085.87,107.45 1079.00,108.00 Z
           M 823.00,90.00
           C 823.00,90.00 822.00,90.00 822.00,90.00
             822.00,90.00 823.00,91.00 823.00,91.00
             823.00,91.00 823.00,90.00 823.00,90.00 Z
           M 1153.00,90.00
           C 1153.00,90.00 1152.00,90.00 1152.00,90.00
             1152.00,90.00 1153.00,91.00 1153.00,91.00
             1153.00,91.00 1153.00,90.00 1153.00,90.00 Z
           M 1156.00,92.00
           C 1156.00,92.00 1155.00,92.00 1155.00,92.00
             1155.00,92.00 1156.00,93.00 1156.00,93.00
             1156.00,93.00 1156.00,92.00 1156.00,92.00 Z
           M 820.00,93.00
           C 820.00,93.00 819.00,93.00 819.00,93.00
             819.00,93.00 820.00,94.00 820.00,94.00
             820.00,94.00 820.00,93.00 820.00,93.00 Z
           M 1039.00,94.00
           C 1039.00,94.00 1038.00,94.00 1038.00,94.00
             1038.00,94.00 1039.00,95.00 1039.00,95.00
             1039.00,95.00 1039.00,94.00 1039.00,94.00 Z
           M 816.00,96.00
           C 816.00,96.00 815.00,96.00 815.00,96.00
             815.00,96.00 816.00,97.00 816.00,97.00
             816.00,97.00 816.00,96.00 816.00,96.00 Z
           M 820.00,96.00
           C 820.00,96.00 819.00,96.00 819.00,96.00
             819.00,96.00 820.00,97.00 820.00,97.00
             820.00,97.00 820.00,96.00 820.00,96.00 Z
           M 1158.00,96.00
           C 1158.00,96.00 1157.00,96.00 1157.00,96.00
             1157.00,96.00 1158.00,97.00 1158.00,97.00
             1158.00,97.00 1158.00,96.00 1158.00,96.00 Z
           M 1161.00,96.00
           C 1161.00,96.00 1160.00,96.00 1160.00,96.00
             1160.00,96.00 1161.00,97.00 1161.00,97.00
             1161.00,97.00 1161.00,96.00 1161.00,96.00 Z
           M 815.00,100.00
           C 815.00,100.00 814.00,100.00 814.00,100.00
             814.00,100.00 815.00,101.00 815.00,101.00
             815.00,101.00 815.00,100.00 815.00,100.00 Z
           M 1174.00,104.00
           C 1174.00,104.00 1173.00,104.00 1173.00,104.00
             1173.00,104.00 1174.00,105.00 1174.00,105.00
             1174.00,105.00 1174.00,104.00 1174.00,104.00 Z
           M 1176.00,105.00
           C 1176.00,105.00 1175.00,105.00 1175.00,105.00
             1175.00,105.00 1176.00,106.00 1176.00,106.00
             1176.00,106.00 1176.00,105.00 1176.00,105.00 Z
           M 807.00,108.00
           C 807.00,108.00 806.00,108.00 806.00,108.00
             806.00,108.00 807.00,109.00 807.00,109.00
             807.00,109.00 807.00,108.00 807.00,108.00 Z
           M 1181.00,109.00
           C 1181.00,109.00 1180.00,109.00 1180.00,109.00
             1180.00,109.00 1181.00,110.00 1181.00,110.00
             1181.00,110.00 1181.00,109.00 1181.00,109.00 Z
           M 1180.00,111.00
           C 1180.00,111.00 1179.00,111.00 1179.00,111.00
             1179.00,111.00 1180.00,112.00 1180.00,112.00
             1180.00,112.00 1180.00,111.00 1180.00,111.00 Z
           M 803.00,112.00
           C 803.00,112.00 802.00,112.00 802.00,112.00
             802.00,112.00 803.00,113.00 803.00,113.00
             803.00,113.00 803.00,112.00 803.00,112.00 Z
           M 807.00,112.00
           C 807.00,112.00 806.00,112.00 806.00,112.00
             806.00,112.00 807.00,113.00 807.00,113.00
             807.00,113.00 807.00,112.00 807.00,112.00 Z
           M 798.00,114.00
           C 798.00,114.00 797.00,114.00 797.00,114.00
             797.00,114.00 798.00,115.00 798.00,115.00
             798.00,115.00 798.00,114.00 798.00,114.00 Z
           M 797.00,115.00
           C 797.00,115.00 796.00,115.00 796.00,115.00
             796.00,115.00 797.00,116.00 797.00,116.00
             797.00,116.00 797.00,115.00 797.00,115.00 Z
           M 798.00,117.00
           C 798.00,117.00 797.00,117.00 797.00,117.00
             797.00,117.00 798.00,118.00 798.00,118.00
             798.00,118.00 798.00,117.00 798.00,117.00 Z
           M 1192.00,118.00
           C 1192.00,118.00 1191.00,118.00 1191.00,118.00
             1191.00,118.00 1192.00,119.00 1192.00,119.00
             1192.00,119.00 1192.00,118.00 1192.00,118.00 Z
           M 797.00,119.00
           C 797.00,119.00 796.00,119.00 796.00,119.00
             796.00,119.00 797.00,120.00 797.00,120.00
             797.00,120.00 797.00,119.00 797.00,119.00 Z
           M 1191.00,120.00
           C 1191.00,120.00 1190.00,120.00 1190.00,120.00
             1190.00,120.00 1191.00,121.00 1191.00,121.00
             1191.00,121.00 1191.00,120.00 1191.00,120.00 Z
           M 1202.00,127.00
           C 1202.00,127.00 1201.00,127.00 1201.00,127.00
             1201.00,127.00 1202.00,128.00 1202.00,128.00
             1202.00,128.00 1202.00,127.00 1202.00,127.00 Z
           M 1203.00,128.00
           C 1203.00,128.00 1202.00,128.00 1202.00,128.00
             1202.00,128.00 1203.00,129.00 1203.00,129.00
             1203.00,129.00 1203.00,128.00 1203.00,128.00 Z
           M 791.00,129.00
           C 791.00,129.00 790.00,129.00 790.00,129.00
             790.00,129.00 791.00,130.00 791.00,130.00
             791.00,130.00 791.00,129.00 791.00,129.00 Z
           M 1204.00,129.00
           C 1204.00,129.00 1203.00,129.00 1203.00,129.00
             1203.00,129.00 1204.00,130.00 1204.00,130.00
             1204.00,130.00 1204.00,129.00 1204.00,129.00 Z
           M 1206.00,132.00
           C 1206.00,132.00 1205.00,132.00 1205.00,132.00
             1205.00,132.00 1206.00,133.00 1206.00,133.00
             1206.00,133.00 1206.00,132.00 1206.00,132.00 Z
           M 1208.00,133.00
           C 1208.00,133.00 1207.00,133.00 1207.00,133.00
             1207.00,133.00 1208.00,134.00 1208.00,134.00
             1208.00,134.00 1208.00,133.00 1208.00,133.00 Z
           M 790.00,135.00
           C 790.00,135.00 789.00,135.00 789.00,135.00
             789.00,135.00 790.00,136.00 790.00,136.00
             790.00,136.00 790.00,135.00 790.00,135.00 Z
           M 1210.00,136.00
           C 1210.00,136.00 1209.00,136.00 1209.00,136.00
             1209.00,136.00 1210.00,137.00 1210.00,137.00
             1210.00,137.00 1210.00,136.00 1210.00,136.00 Z
           M 1215.00,144.00
           C 1215.00,144.00 1214.00,144.00 1214.00,144.00
             1214.00,144.00 1215.00,145.00 1215.00,145.00
             1215.00,145.00 1215.00,144.00 1215.00,144.00 Z
           M 1218.00,144.00
           C 1218.00,144.00 1217.00,144.00 1217.00,144.00
             1217.00,144.00 1218.00,145.00 1218.00,145.00
             1218.00,145.00 1218.00,144.00 1218.00,144.00 Z
           M 1219.00,146.00
           C 1219.00,146.00 1218.00,146.00 1218.00,146.00
             1218.00,146.00 1219.00,147.00 1219.00,147.00
             1219.00,147.00 1219.00,146.00 1219.00,146.00 Z
           M 782.00,150.00
           C 782.00,150.00 781.00,150.00 781.00,150.00
             781.00,150.00 782.00,151.00 782.00,151.00
             782.00,151.00 782.00,150.00 782.00,150.00 Z
           M 1223.00,151.00
           C 1223.00,151.00 1222.00,151.00 1222.00,151.00
             1222.00,151.00 1223.00,152.00 1223.00,152.00
             1223.00,152.00 1223.00,151.00 1223.00,151.00 Z
           M 780.00,152.00
           C 780.00,152.00 779.00,152.00 779.00,152.00
             779.00,152.00 780.00,153.00 780.00,153.00
             780.00,153.00 780.00,152.00 780.00,152.00 Z
           M 779.00,153.00
           C 779.00,153.00 778.00,153.00 778.00,153.00
             778.00,153.00 779.00,154.00 779.00,154.00
             779.00,154.00 779.00,153.00 779.00,153.00 Z
           M 1225.00,155.00
           C 1225.00,155.00 1224.00,155.00 1224.00,155.00
             1224.00,155.00 1225.00,156.00 1225.00,156.00
             1225.00,156.00 1225.00,155.00 1225.00,155.00 Z
           M 1228.00,158.00
           C 1228.00,158.00 1227.00,158.00 1227.00,158.00
             1227.00,158.00 1228.00,159.00 1228.00,159.00
             1228.00,159.00 1228.00,158.00 1228.00,158.00 Z
           M 1227.00,160.00
           C 1227.00,160.00 1226.00,160.00 1226.00,160.00
             1226.00,160.00 1227.00,161.00 1227.00,161.00
             1227.00,161.00 1227.00,160.00 1227.00,160.00 Z
           M 1232.00,167.00
           C 1232.00,167.00 1231.00,167.00 1231.00,167.00
             1231.00,167.00 1232.00,168.00 1232.00,168.00
             1232.00,168.00 1232.00,167.00 1232.00,167.00 Z
           M 1181.00,170.00
           C 1181.00,170.00 1180.00,170.00 1180.00,170.00
             1180.00,170.00 1181.00,171.00 1181.00,171.00
             1181.00,171.00 1181.00,170.00 1181.00,170.00 Z
           M 767.00,189.00
           C 767.00,189.00 766.00,189.00 766.00,189.00
             766.00,189.00 767.00,190.00 767.00,190.00
             767.00,190.00 767.00,189.00 767.00,189.00 Z
           M 976.00,191.00
           C 976.00,191.00 971.00,192.00 971.00,192.00
             971.00,192.00 976.00,191.00 976.00,191.00 Z
           M 975.00,195.00
           C 975.00,195.00 974.00,195.00 974.00,195.00
             974.00,195.00 975.00,196.00 975.00,196.00
             975.00,196.00 975.00,195.00 975.00,195.00 Z
           M 763.00,198.00
           C 763.00,198.00 762.00,198.00 762.00,198.00
             762.00,198.00 763.00,199.00 763.00,199.00
             763.00,199.00 763.00,198.00 763.00,198.00 Z
           M 761.00,206.00
           C 761.00,206.00 760.00,206.00 760.00,206.00
             760.00,206.00 761.00,207.00 761.00,207.00
             761.00,207.00 761.00,206.00 761.00,206.00 Z
           M 1250.00,212.00
           C 1250.00,212.00 1249.00,212.00 1249.00,212.00
             1249.00,212.00 1250.00,213.00 1250.00,213.00
             1250.00,213.00 1250.00,212.00 1250.00,212.00 Z
           M 1254.00,214.00
           C 1254.00,214.00 1253.00,214.00 1253.00,214.00
             1253.00,214.00 1254.00,215.00 1254.00,215.00
             1254.00,215.00 1254.00,214.00 1254.00,214.00 Z
           M 1260.00,219.00
           C 1260.00,219.00 1259.00,219.00 1259.00,219.00
             1259.00,219.00 1260.00,220.00 1260.00,220.00
             1260.00,220.00 1260.00,219.00 1260.00,219.00 Z
           M 1064.00,221.00
           C 1064.00,221.00 1063.00,221.00 1063.00,221.00
             1063.00,221.00 1064.00,222.00 1064.00,222.00
             1064.00,222.00 1064.00,221.00 1064.00,221.00 Z
           M 1143.00,224.00
           C 1143.03,224.07 1143.25,223.13 1142.23,222.50
             1142.23,222.50 1132.00,222.50 1132.00,222.50
             1120.19,220.90 1107.90,220.86 1096.00,221.00
             1096.00,221.00 1081.00,222.00 1081.00,222.00
             1081.00,222.00 1066.00,222.60 1066.00,222.60
             1066.00,222.60 1057.00,222.60 1057.00,222.60
             1057.00,222.60 1050.00,223.70 1050.00,223.70
             1050.00,223.70 1034.00,225.73 1034.00,225.73
             1034.00,225.73 1017.00,227.84 1017.00,227.84
             1017.00,227.84 992.00,235.31 992.00,235.31
             986.77,237.40 978.29,242.06 973.00,242.00
             973.00,242.00 974.00,244.00 974.00,244.00
             974.00,244.00 971.00,243.00 971.00,243.00
             968.62,247.26 964.24,249.68 960.70,253.72
             956.59,258.41 952.42,266.04 950.13,271.83
             948.35,276.32 946.83,284.18 946.03,289.00
             942.27,311.58 941.96,305.66 942.00,330.00
             942.02,345.16 946.00,349.65 946.00,358.00
             946.00,358.00 948.00,357.00 948.00,357.00
             948.00,357.00 947.00,361.00 947.00,361.00
             949.67,362.02 952.88,369.21 954.86,372.00
             963.06,383.51 965.19,384.74 974.89,394.13
             991.25,409.95 1015.53,421.34 1037.00,428.49
             1046.92,431.79 1065.56,435.83 1076.00,436.96
             1076.00,436.96 1084.00,436.96 1084.00,436.96
             1084.00,436.96 1096.00,437.99 1096.00,437.99
             1096.00,437.99 1132.00,434.25 1132.00,434.25
             1132.00,434.25 1157.00,428.80 1157.00,428.80
             1164.43,426.58 1171.14,423.25 1179.00,424.00
             1180.26,421.07 1186.04,420.17 1189.00,419.37
             1189.00,419.37 1213.00,411.22 1213.00,411.22
             1213.00,411.22 1227.00,405.42 1227.00,405.42
             1239.86,399.71 1252.32,392.36 1262.54,382.65
             1271.11,374.51 1274.71,364.93 1280.00,360.00
             1280.00,360.00 1281.91,342.00 1281.91,342.00
             1281.91,342.00 1279.50,322.00 1279.50,322.00
             1279.50,322.00 1273.37,301.00 1273.37,301.00
             1273.37,301.00 1266.00,284.00 1266.00,284.00
             1260.66,281.40 1253.89,271.98 1249.29,267.07
             1247.06,264.70 1245.20,261.78 1242.00,261.00
             1242.00,261.00 1243.00,259.00 1243.00,259.00
             1238.28,258.51 1233.09,253.06 1231.00,249.00
             1226.99,248.40 1226.66,248.02 1224.00,245.00
             1221.15,244.89 1219.93,244.85 1219.00,242.00
             1219.00,242.00 1212.00,238.00 1212.00,238.00
             1212.00,238.00 1206.00,238.00 1206.00,238.00
             1206.00,238.00 1208.00,236.00 1208.00,236.00
             1200.79,236.03 1186.00,231.62 1179.00,229.00
             1179.00,229.00 1181.00,229.00 1181.00,229.00
             1181.00,229.00 1181.00,227.99 1181.00,227.99
             1181.00,227.99 1173.00,227.99 1173.00,227.99
             1173.00,227.99 1143.00,224.00 1143.00,224.00 Z
           M 1264.00,224.00
           C 1264.00,224.00 1263.00,224.00 1263.00,224.00
             1263.00,224.00 1264.00,225.00 1264.00,225.00
             1264.00,225.00 1264.00,224.00 1264.00,224.00 Z
           M 1008.00,227.00
           C 1008.00,227.00 1007.00,227.00 1007.00,227.00
             1007.00,227.00 1008.00,228.00 1008.00,228.00
             1008.00,228.00 1008.00,227.00 1008.00,227.00 Z
           M 1185.00,227.00
           C 1185.00,227.00 1184.00,227.00 1184.00,227.00
             1184.00,227.00 1185.00,228.00 1185.00,228.00
             1185.00,228.00 1185.00,227.00 1185.00,227.00 Z
           M 1270.00,227.00
           C 1270.00,227.00 1269.00,227.00 1269.00,227.00
             1269.00,227.00 1270.00,228.00 1270.00,228.00
             1270.00,228.00 1270.00,227.00 1270.00,227.00 Z
           M 1272.00,228.00
           C 1272.00,228.00 1271.00,228.00 1271.00,228.00
             1271.00,228.00 1272.00,229.00 1272.00,229.00
             1272.00,229.00 1272.00,228.00 1272.00,228.00 Z
           M 1001.00,231.00
           C 1001.00,231.00 1000.00,231.00 1000.00,231.00
             1000.00,231.00 1001.00,232.00 1001.00,232.00
             1001.00,232.00 1001.00,231.00 1001.00,231.00 Z
           M 1272.00,231.00
           C 1272.00,231.00 1271.00,231.00 1271.00,231.00
             1271.00,231.00 1272.00,232.00 1272.00,232.00
             1272.00,232.00 1272.00,231.00 1272.00,231.00 Z
           M 1275.00,231.00
           C 1275.00,231.00 1274.00,231.00 1274.00,231.00
             1274.00,231.00 1275.00,232.00 1275.00,232.00
             1275.00,232.00 1275.00,231.00 1275.00,231.00 Z
           M 988.00,234.00
           C 988.00,234.00 987.00,234.00 987.00,234.00
             987.00,234.00 988.00,235.00 988.00,235.00
             988.00,235.00 988.00,234.00 988.00,234.00 Z
           M 1206.00,234.00
           C 1206.00,234.00 1205.00,234.00 1205.00,234.00
             1205.00,234.00 1206.00,235.00 1206.00,235.00
             1206.00,235.00 1206.00,234.00 1206.00,234.00 Z
           M 987.00,236.00
           C 987.00,236.00 983.00,238.00 983.00,238.00
             983.00,238.00 987.00,236.00 987.00,236.00 Z
           M 1278.00,236.00
           C 1278.00,236.00 1277.00,236.00 1277.00,236.00
             1277.00,236.00 1278.00,237.00 1278.00,237.00
             1278.00,237.00 1278.00,236.00 1278.00,236.00 Z
           M 982.00,238.00
           C 982.00,238.00 981.00,238.00 981.00,238.00
             981.00,238.00 982.00,239.00 982.00,239.00
             982.00,239.00 982.00,238.00 982.00,238.00 Z
           M 1283.00,240.00
           C 1283.00,240.00 1282.00,240.00 1282.00,240.00
             1282.00,240.00 1283.00,241.00 1283.00,241.00
             1283.00,241.00 1283.00,240.00 1283.00,240.00 Z
           M 1286.00,244.00
           C 1286.00,244.00 1285.00,244.00 1285.00,244.00
             1285.00,244.00 1286.00,245.00 1286.00,245.00
             1286.00,245.00 1286.00,244.00 1286.00,244.00 Z
           M 1288.00,245.00
           C 1288.00,245.00 1287.00,245.00 1287.00,245.00
             1287.00,245.00 1288.00,246.00 1288.00,246.00
             1288.00,246.00 1288.00,245.00 1288.00,245.00 Z
           M 967.00,246.00
           C 967.00,246.00 966.00,246.00 966.00,246.00
             966.00,246.00 967.00,247.00 967.00,247.00
             967.00,247.00 967.00,246.00 967.00,246.00 Z
           M 1282.00,246.00
           C 1282.00,246.00 1281.00,246.00 1281.00,246.00
             1281.00,246.00 1282.00,247.00 1282.00,247.00
             1282.00,247.00 1282.00,246.00 1282.00,246.00 Z
           M 1286.00,247.00
           C 1286.00,247.00 1285.00,247.00 1285.00,247.00
             1285.00,247.00 1286.00,248.00 1286.00,248.00
             1286.00,248.00 1286.00,247.00 1286.00,247.00 Z
           M 1290.00,247.00
           C 1290.00,247.00 1289.00,247.00 1289.00,247.00
             1289.00,247.00 1290.00,248.00 1290.00,248.00
             1290.00,248.00 1290.00,247.00 1290.00,247.00 Z
           M 1289.00,248.00
           C 1289.00,248.00 1288.00,248.00 1288.00,248.00
             1288.00,248.00 1289.00,249.00 1289.00,249.00
             1289.00,249.00 1289.00,248.00 1289.00,248.00 Z
           M 750.00,250.00
           C 750.00,250.00 749.00,250.00 749.00,250.00
             749.00,250.00 750.00,251.00 750.00,251.00
             750.00,251.00 750.00,250.00 750.00,250.00 Z
           M 1233.00,250.00
           C 1233.00,250.00 1232.00,250.00 1232.00,250.00
             1232.00,250.00 1233.00,251.00 1233.00,251.00
             1233.00,251.00 1233.00,250.00 1233.00,250.00 Z
           M 906.00,251.00
           C 906.00,251.00 905.00,251.00 905.00,251.00
             905.00,251.00 906.00,252.00 906.00,252.00
             906.00,252.00 906.00,251.00 906.00,251.00 Z
           M 1237.00,253.00
           C 1237.00,253.00 1236.00,253.00 1236.00,253.00
             1236.00,253.00 1237.00,254.00 1237.00,254.00
             1237.00,254.00 1237.00,253.00 1237.00,253.00 Z
           M 1301.00,263.00
           C 1301.00,263.00 1300.00,263.00 1300.00,263.00
             1300.00,263.00 1301.00,264.00 1301.00,264.00
             1301.00,264.00 1301.00,263.00 1301.00,263.00 Z
           M 1250.00,266.00
           C 1250.00,266.00 1249.00,266.00 1249.00,266.00
             1249.00,266.00 1250.00,267.00 1250.00,267.00
             1250.00,267.00 1250.00,266.00 1250.00,266.00 Z
           M 951.00,267.00
           C 951.00,267.00 950.00,267.00 950.00,267.00
             950.00,267.00 951.00,268.00 951.00,268.00
             951.00,268.00 951.00,267.00 951.00,267.00 Z
           M 1251.00,267.00
           C 1251.00,267.00 1250.00,267.00 1250.00,267.00
             1250.00,267.00 1251.00,268.00 1251.00,268.00
             1251.00,268.00 1251.00,267.00 1251.00,267.00 Z
           M 1252.00,268.00
           C 1252.00,268.00 1251.00,268.00 1251.00,268.00
             1251.00,268.00 1252.00,269.00 1252.00,269.00
             1252.00,269.00 1252.00,268.00 1252.00,268.00 Z
           M 1253.00,269.00
           C 1253.00,269.00 1252.00,269.00 1252.00,269.00
             1252.00,269.00 1253.00,270.00 1253.00,270.00
             1253.00,270.00 1253.00,269.00 1253.00,269.00 Z
           M 1254.00,270.00
           C 1254.00,270.00 1253.00,270.00 1253.00,270.00
             1253.00,270.00 1254.00,271.00 1254.00,271.00
             1254.00,271.00 1254.00,270.00 1254.00,270.00 Z
           M 747.00,273.00
           C 747.00,273.00 746.00,273.00 746.00,273.00
             746.00,273.00 747.00,274.00 747.00,274.00
             747.00,274.00 747.00,273.00 747.00,273.00 Z
           M 1258.00,274.00
           C 1258.00,274.00 1257.00,274.00 1257.00,274.00
             1257.00,274.00 1258.00,275.00 1258.00,275.00
             1258.00,275.00 1258.00,274.00 1258.00,274.00 Z
           M 1259.00,275.00
           C 1259.00,275.00 1258.00,275.00 1258.00,275.00
             1258.00,275.00 1259.00,276.00 1259.00,276.00
             1259.00,276.00 1259.00,275.00 1259.00,275.00 Z
           M 1305.00,276.00
           C 1305.00,276.00 1304.00,276.00 1304.00,276.00
             1304.00,276.00 1305.00,277.00 1305.00,277.00
             1305.00,277.00 1305.00,276.00 1305.00,276.00 Z
           M 1264.00,282.00
           C 1264.00,282.00 1263.00,282.00 1263.00,282.00
             1263.00,282.00 1264.00,283.00 1264.00,283.00
             1264.00,283.00 1264.00,282.00 1264.00,282.00 Z
           M 1267.00,282.00
           C 1267.00,282.00 1266.00,282.00 1266.00,282.00
             1266.00,282.00 1267.00,283.00 1267.00,283.00
             1267.00,283.00 1267.00,282.00 1267.00,282.00 Z
           M 1269.00,284.00
           C 1269.00,284.00 1268.00,284.00 1268.00,284.00
             1268.00,284.00 1269.00,285.00 1269.00,285.00
             1269.00,285.00 1269.00,284.00 1269.00,284.00 Z
           M 946.00,286.00
           C 946.00,286.00 945.00,286.00 945.00,286.00
             945.00,286.00 946.00,287.00 946.00,287.00
             946.00,287.00 946.00,286.00 946.00,286.00 Z
           M 1312.00,289.00
           C 1312.00,289.00 1311.00,289.00 1311.00,289.00
             1311.00,289.00 1312.00,290.00 1312.00,290.00
             1312.00,290.00 1312.00,289.00 1312.00,289.00 Z
           M 1275.00,298.00
           C 1275.00,298.00 1274.00,298.00 1274.00,298.00
             1274.00,298.00 1275.00,299.00 1275.00,299.00
             1275.00,299.00 1275.00,298.00 1275.00,298.00 Z
           M 1276.00,301.00
           C 1276.00,301.00 1275.00,301.00 1275.00,301.00
             1275.00,301.00 1276.00,302.00 1276.00,302.00
             1276.00,302.00 1276.00,301.00 1276.00,301.00 Z
           M 704.00,304.00
           C 704.00,304.00 703.00,304.00 703.00,304.00
             703.00,304.00 704.00,305.00 704.00,305.00
             704.00,305.00 704.00,304.00 704.00,304.00 Z
           M 1277.00,305.00
           C 1277.00,305.00 1276.00,305.00 1276.00,305.00
             1276.00,305.00 1277.00,306.00 1277.00,306.00
             1277.00,306.00 1277.00,305.00 1277.00,305.00 Z
           M 1279.00,313.00
           C 1279.00,313.00 1278.00,313.00 1278.00,313.00
             1278.00,313.00 1279.00,314.00 1279.00,314.00
             1279.00,314.00 1279.00,313.00 1279.00,313.00 Z
           M 635.00,325.00
           C 635.00,325.00 634.00,325.00 634.00,325.00
             634.00,325.00 635.00,326.00 635.00,326.00
             635.00,326.00 635.00,325.00 635.00,325.00 Z
           M 633.00,326.00
           C 633.00,326.00 632.00,326.00 632.00,326.00
             632.00,326.00 633.00,327.00 633.00,327.00
             633.00,327.00 633.00,326.00 633.00,326.00 Z
           M 632.00,327.00
           C 632.00,327.00 631.00,327.00 631.00,327.00
             631.00,327.00 632.00,328.00 632.00,328.00
             632.00,328.00 632.00,327.00 632.00,327.00 Z
           M 636.00,327.00
           C 636.00,327.00 635.00,327.00 635.00,327.00
             635.00,327.00 636.00,328.00 636.00,328.00
             636.00,328.00 636.00,327.00 636.00,327.00 Z
           M 625.00,334.00
           C 625.00,334.00 624.00,334.00 624.00,334.00
             624.00,334.00 625.00,335.00 625.00,335.00
             625.00,335.00 625.00,334.00 625.00,334.00 Z
           M 624.00,335.00
           C 624.00,335.00 623.00,335.00 623.00,335.00
             623.00,335.00 624.00,336.00 624.00,336.00
             624.00,336.00 624.00,335.00 624.00,335.00 Z
           M 621.00,338.00
           C 621.00,338.00 620.00,338.00 620.00,338.00
             620.00,338.00 621.00,339.00 621.00,339.00
             621.00,339.00 621.00,338.00 621.00,338.00 Z
           M 620.00,339.00
           C 620.00,339.00 619.00,339.00 619.00,339.00
             619.00,339.00 620.00,340.00 620.00,340.00
             620.00,340.00 620.00,339.00 620.00,339.00 Z
           M 622.00,339.00
           C 622.00,339.00 621.00,339.00 621.00,339.00
             621.00,339.00 622.00,340.00 622.00,340.00
             622.00,340.00 622.00,339.00 622.00,339.00 Z
           M 623.00,340.00
           C 623.00,340.00 622.00,340.00 622.00,340.00
             622.00,340.00 623.00,341.00 623.00,341.00
             623.00,341.00 623.00,340.00 623.00,340.00 Z
           M 622.00,342.00
           C 622.00,342.00 621.00,342.00 621.00,342.00
             621.00,342.00 622.00,343.00 622.00,343.00
             622.00,343.00 622.00,342.00 622.00,342.00 Z
           M 705.00,342.46
           C 689.64,344.19 671.83,349.04 661.13,361.00
             649.06,374.49 650.66,385.82 647.70,402.00
             647.70,402.00 642.16,431.01 642.16,431.01
             642.16,431.01 642.16,442.28 642.16,442.28
             641.79,446.95 639.98,451.26 640.16,456.00
             640.16,456.00 640.16,481.00 640.16,481.00
             640.16,481.00 639.00,497.00 639.00,497.00
             639.00,497.00 639.00,561.00 639.00,561.00
             639.00,561.00 639.00,644.00 639.00,644.00
             639.00,644.00 640.49,670.00 640.49,670.00
             639.68,682.78 640.86,681.51 641.93,693.00
             642.43,698.47 643.24,709.13 644.59,714.00
             644.59,714.00 647.26,722.00 647.26,722.00
             648.13,725.08 648.30,727.10 650.00,730.00
             653.34,735.67 658.09,739.32 662.83,743.58
             664.64,745.21 666.20,747.45 668.21,748.70
             668.21,748.70 675.00,751.43 675.00,751.43
             675.00,751.43 680.00,754.10 680.00,754.10
             691.21,758.93 704.98,759.13 717.00,759.00
             721.14,758.95 732.67,759.27 734.98,755.70
             736.31,753.63 736.03,748.52 736.00,746.00
             736.00,746.00 734.00,718.00 734.00,718.00
             734.00,718.00 732.82,698.00 732.82,698.00
             732.82,698.00 732.82,679.00 732.82,679.00
             732.82,679.00 732.00,670.00 732.00,670.00
             732.00,670.00 732.00,639.00 732.00,639.00
             731.99,630.04 730.88,630.10 730.14,623.00
             730.14,623.00 730.14,604.00 730.14,604.00
             730.14,604.00 730.14,595.00 730.14,595.00
             730.14,595.00 730.14,586.00 730.14,586.00
             730.14,586.00 730.14,541.00 730.14,541.00
             730.14,541.00 729.00,524.00 729.00,524.00
             729.00,524.00 729.00,491.00 729.00,491.00
             729.00,491.00 728.08,478.00 728.08,478.00
             728.08,478.00 728.99,464.00 728.99,464.00
             728.99,464.00 728.00,452.00 728.00,452.00
             728.00,452.00 728.00,424.00 728.00,424.00
             728.00,424.00 730.46,398.00 730.46,398.00
             730.46,398.00 730.46,390.00 730.46,390.00
             730.46,390.00 732.00,369.00 732.00,369.00
             732.08,362.91 735.75,349.26 731.41,344.65
             728.72,341.80 725.39,342.67 722.00,342.46
             722.00,342.46 705.00,342.46 705.00,342.46 Z
           M 621.00,343.00
           C 621.00,343.00 620.00,343.00 620.00,343.00
             620.00,343.00 621.00,344.00 621.00,344.00
             621.00,344.00 621.00,343.00 621.00,343.00 Z
           M 613.00,351.00
           C 613.00,351.00 612.00,351.00 612.00,351.00
             612.00,351.00 613.00,352.00 613.00,352.00
             613.00,352.00 613.00,351.00 613.00,351.00 Z
           M 664.00,352.00
           C 664.00,352.00 661.00,351.00 661.00,351.00
             661.00,351.00 661.00,354.00 661.00,354.00
             661.00,354.00 664.00,352.00 664.00,352.00 Z
           M 1326.00,353.00
           C 1326.00,353.00 1325.00,353.00 1325.00,353.00
             1325.00,353.00 1326.00,354.00 1326.00,354.00
             1326.00,354.00 1326.00,353.00 1326.00,353.00 Z
           M 614.00,354.00
           C 614.00,354.00 613.00,354.00 613.00,354.00
             613.00,354.00 614.00,355.00 614.00,355.00
             614.00,355.00 614.00,354.00 614.00,354.00 Z
           M 946.00,354.00
           C 946.00,354.00 945.00,354.00 945.00,354.00
             945.00,354.00 946.00,355.00 946.00,355.00
             946.00,355.00 946.00,354.00 946.00,354.00 Z
           M 613.00,358.00
           C 613.00,358.00 612.00,358.00 612.00,358.00
             612.00,358.00 613.00,359.00 613.00,359.00
             613.00,359.00 613.00,358.00 613.00,358.00 Z
           M 650.00,378.00
           C 650.00,378.00 649.00,378.00 649.00,378.00
             649.00,378.00 650.00,379.00 650.00,379.00
             650.00,379.00 650.00,378.00 650.00,378.00 Z
           M 1318.00,386.00
           C 1318.00,386.00 1317.00,386.00 1317.00,386.00
             1317.00,386.00 1318.00,387.00 1318.00,387.00
             1318.00,387.00 1318.00,386.00 1318.00,386.00 Z
           M 607.00,388.00
           C 607.00,388.00 606.00,388.00 606.00,388.00
             606.00,388.00 607.00,389.00 607.00,389.00
             607.00,389.00 607.00,388.00 607.00,388.00 Z
           M 971.00,392.00
           C 971.00,392.00 970.00,392.00 970.00,392.00
             970.00,392.00 971.00,393.00 971.00,393.00
             971.00,393.00 971.00,392.00 971.00,392.00 Z
           M 1315.00,392.00
           C 1315.00,392.00 1314.00,392.00 1314.00,392.00
             1314.00,392.00 1315.00,393.00 1315.00,393.00
             1315.00,393.00 1315.00,392.00 1315.00,392.00 Z
           M 903.00,393.00
           C 903.00,393.00 902.00,393.00 902.00,393.00
             902.00,393.00 903.00,394.00 903.00,394.00
             903.00,394.00 903.00,393.00 903.00,393.00 Z
           M 607.00,394.00
           C 607.00,394.00 606.00,394.00 606.00,394.00
             606.00,394.00 607.00,395.00 607.00,395.00
             607.00,395.00 607.00,394.00 607.00,394.00 Z
           M 1314.00,394.00
           C 1314.00,394.00 1313.00,394.00 1313.00,394.00
             1313.00,394.00 1314.00,395.00 1314.00,395.00
             1314.00,395.00 1314.00,394.00 1314.00,394.00 Z
           M 1309.00,395.00
           C 1309.00,395.00 1308.00,395.00 1308.00,395.00
             1308.00,395.00 1309.00,396.00 1309.00,396.00
             1309.00,396.00 1309.00,395.00 1309.00,395.00 Z
           M 1310.00,398.00
           C 1310.00,398.00 1309.00,398.00 1309.00,398.00
             1309.00,398.00 1310.00,399.00 1310.00,399.00
             1310.00,399.00 1310.00,398.00 1310.00,398.00 Z
           M 605.00,399.00
           C 605.00,399.00 604.00,399.00 604.00,399.00
             604.00,399.00 605.00,400.00 605.00,400.00
             605.00,400.00 605.00,399.00 605.00,399.00 Z
           M 1309.00,399.00
           C 1309.00,399.00 1308.00,399.00 1308.00,399.00
             1308.00,399.00 1309.00,400.00 1309.00,400.00
             1309.00,400.00 1309.00,399.00 1309.00,399.00 Z
           M 1239.00,400.00
           C 1239.00,400.00 1238.00,400.00 1238.00,400.00
             1238.00,400.00 1239.00,401.00 1239.00,401.00
             1239.00,401.00 1239.00,400.00 1239.00,400.00 Z
           M 1237.00,401.00
           C 1237.00,401.00 1236.00,401.00 1236.00,401.00
             1236.00,401.00 1237.00,402.00 1237.00,402.00
             1237.00,402.00 1237.00,401.00 1237.00,401.00 Z
           M 1305.00,406.00
           C 1305.00,406.00 1304.00,406.00 1304.00,406.00
             1304.00,406.00 1305.00,407.00 1305.00,407.00
             1305.00,407.00 1305.00,406.00 1305.00,406.00 Z
           M 606.00,409.00
           C 606.00,409.00 605.00,409.00 605.00,409.00
             605.00,409.00 606.00,410.00 606.00,410.00
             606.00,410.00 606.00,409.00 606.00,409.00 Z
           M 1301.00,411.00
           C 1301.00,411.00 1300.00,411.00 1300.00,411.00
             1300.00,411.00 1301.00,412.00 1301.00,412.00
             1301.00,412.00 1301.00,411.00 1301.00,411.00 Z
           M 1003.00,415.00
           C 1003.00,415.00 1002.00,415.00 1002.00,415.00
             1002.00,415.00 1003.00,416.00 1003.00,416.00
             1003.00,416.00 1003.00,415.00 1003.00,415.00 Z
           M 1295.00,418.00
           C 1295.00,418.00 1294.00,418.00 1294.00,418.00
             1294.00,418.00 1295.00,419.00 1295.00,419.00
             1295.00,419.00 1295.00,418.00 1295.00,418.00 Z
           M 1294.00,419.00
           C 1294.00,419.00 1293.00,419.00 1293.00,419.00
             1293.00,419.00 1294.00,420.00 1294.00,420.00
             1294.00,420.00 1294.00,419.00 1294.00,419.00 Z
           M 1296.00,419.00
           C 1296.00,419.00 1295.00,419.00 1295.00,419.00
             1295.00,419.00 1296.00,420.00 1296.00,420.00
             1296.00,420.00 1296.00,419.00 1296.00,419.00 Z
           M 731.00,421.00
           C 731.00,421.00 730.00,421.00 730.00,421.00
             730.00,421.00 731.00,422.00 731.00,422.00
             731.00,422.00 731.00,421.00 731.00,421.00 Z
           M 1185.00,421.00
           C 1185.00,421.00 1184.00,421.00 1184.00,421.00
             1184.00,421.00 1185.00,422.00 1185.00,422.00
             1185.00,422.00 1185.00,421.00 1185.00,421.00 Z
           M 1017.00,422.00
           C 1017.00,422.00 1016.00,422.00 1016.00,422.00
             1016.00,422.00 1017.00,423.00 1017.00,423.00
             1017.00,423.00 1017.00,422.00 1017.00,422.00 Z
           M 1291.00,424.00
           C 1291.00,424.00 1290.00,424.00 1290.00,424.00
             1290.00,424.00 1291.00,425.00 1291.00,425.00
             1291.00,425.00 1291.00,424.00 1291.00,424.00 Z
           M 1289.00,426.00
           C 1289.00,426.00 1288.00,426.00 1288.00,426.00
             1288.00,426.00 1289.00,427.00 1289.00,427.00
             1289.00,427.00 1289.00,426.00 1289.00,426.00 Z
           M 1288.00,427.00
           C 1288.00,427.00 1287.00,427.00 1287.00,427.00
             1287.00,427.00 1288.00,428.00 1288.00,428.00
             1288.00,428.00 1288.00,427.00 1288.00,427.00 Z
           M 1286.00,428.00
           C 1286.00,428.00 1285.00,428.00 1285.00,428.00
             1285.00,428.00 1286.00,429.00 1286.00,429.00
             1286.00,429.00 1286.00,428.00 1286.00,428.00 Z
           M 925.00,431.00
           C 925.00,431.00 924.00,431.00 924.00,431.00
             924.00,431.00 925.00,432.00 925.00,432.00
             925.00,432.00 925.00,431.00 925.00,431.00 Z
           M 1053.00,433.00
           C 1053.00,433.00 1052.00,433.00 1052.00,433.00
             1052.00,433.00 1053.00,434.00 1053.00,434.00
             1053.00,434.00 1053.00,433.00 1053.00,433.00 Z
           M 1124.00,438.00
           C 1124.00,438.00 1123.00,438.00 1123.00,438.00
             1123.00,438.00 1124.00,439.00 1124.00,439.00
             1124.00,439.00 1124.00,438.00 1124.00,438.00 Z
           M 1233.00,459.00
           C 1233.00,459.00 1232.00,459.00 1232.00,459.00
             1232.00,459.00 1233.00,460.00 1233.00,460.00
             1233.00,460.00 1233.00,459.00 1233.00,459.00 Z
           M 1155.00,474.00
           C 1155.00,474.00 1149.00,475.00 1149.00,475.00
             1152.08,476.99 1153.53,477.33 1157.00,476.00
             1157.00,476.00 1155.00,474.00 1155.00,474.00 Z
           M 1286.00,521.00
           C 1286.00,521.00 1285.00,521.00 1285.00,521.00
             1285.00,521.00 1286.00,522.00 1286.00,522.00
             1286.00,522.00 1286.00,521.00 1286.00,521.00 Z
           M 1286.00,529.00
           C 1286.00,529.00 1285.00,529.00 1285.00,529.00
             1285.00,529.00 1286.00,530.00 1286.00,530.00
             1286.00,530.00 1286.00,529.00 1286.00,529.00 Z
           M 1289.00,542.00
           C 1289.00,542.00 1288.00,542.00 1288.00,542.00
             1288.00,542.00 1289.00,543.00 1289.00,543.00
             1289.00,543.00 1289.00,542.00 1289.00,542.00 Z
           M 1290.00,550.00
           C 1290.00,550.00 1289.00,550.00 1289.00,550.00
             1289.00,550.00 1290.00,551.00 1290.00,551.00
             1290.00,551.00 1290.00,550.00 1290.00,550.00 Z
           M 1288.00,641.00
           C 1288.00,641.00 1287.00,641.00 1287.00,641.00
             1287.00,641.00 1288.00,642.00 1288.00,642.00
             1288.00,642.00 1288.00,641.00 1288.00,641.00 Z
           M 778.00,650.00
           C 778.00,650.00 777.00,650.00 777.00,650.00
             777.00,650.00 778.00,651.00 778.00,651.00
             778.00,651.00 778.00,650.00 778.00,650.00 Z
           M 1283.00,681.00
           C 1283.00,681.00 1282.00,681.00 1282.00,681.00
             1282.00,681.00 1283.00,682.00 1283.00,682.00
             1283.00,682.00 1283.00,681.00 1283.00,681.00 Z
           M 599.00,710.00
           C 599.00,710.00 598.00,710.00 598.00,710.00
             598.00,710.00 599.00,711.00 599.00,711.00
             599.00,711.00 599.00,710.00 599.00,710.00 Z
           M 1278.00,713.00
           C 1278.00,713.00 1277.00,713.00 1277.00,713.00
             1277.00,713.00 1278.00,714.00 1278.00,714.00
             1278.00,714.00 1278.00,713.00 1278.00,713.00 Z
           M 603.00,726.00
           C 603.00,726.00 602.00,726.00 602.00,726.00
             602.00,726.00 603.00,727.00 603.00,727.00
             603.00,727.00 603.00,726.00 603.00,726.00 Z
           M 606.00,726.00
           C 606.00,726.00 605.00,726.00 605.00,726.00
             605.00,726.00 606.00,727.00 606.00,727.00
             606.00,727.00 606.00,726.00 606.00,726.00 Z
           M 608.00,726.00
           C 608.00,726.00 607.00,726.00 607.00,726.00
             607.00,726.00 608.00,727.00 608.00,727.00
             608.00,727.00 608.00,726.00 608.00,726.00 Z
           M 604.00,728.00
           C 604.00,728.00 603.00,728.00 603.00,728.00
             603.00,728.00 604.00,729.00 604.00,729.00
             604.00,729.00 604.00,728.00 604.00,728.00 Z
           M 612.00,742.00
           C 612.00,742.00 611.00,742.00 611.00,742.00
             611.00,742.00 612.00,743.00 612.00,743.00
             612.00,743.00 612.00,742.00 612.00,742.00 Z
           M 613.00,745.00
           C 613.00,745.00 612.00,745.00 612.00,745.00
             612.00,745.00 613.00,746.00 613.00,746.00
             613.00,746.00 613.00,745.00 613.00,745.00 Z
           M 612.00,746.00
           C 612.00,746.00 611.00,746.00 611.00,746.00
             611.00,746.00 612.00,747.00 612.00,747.00
             612.00,747.00 612.00,746.00 612.00,746.00 Z
           M 618.00,758.00
           C 618.00,758.00 617.00,758.00 617.00,758.00
             617.00,758.00 618.00,759.00 618.00,759.00
             618.00,759.00 618.00,758.00 618.00,758.00 Z
           M 624.00,769.00
           C 624.00,769.00 623.00,769.00 623.00,769.00
             623.00,769.00 624.00,770.00 624.00,770.00
             624.00,770.00 624.00,769.00 624.00,769.00 Z
           M 628.00,774.00
           C 628.00,774.00 627.00,774.00 627.00,774.00
             627.00,774.00 628.00,775.00 628.00,775.00
             628.00,775.00 628.00,774.00 628.00,774.00 Z
           M 631.00,774.00
           C 631.00,774.00 630.00,774.00 630.00,774.00
             630.00,774.00 631.00,775.00 631.00,775.00
             631.00,775.00 631.00,774.00 631.00,774.00 Z
           M 631.00,777.00
           C 631.00,777.00 630.00,777.00 630.00,777.00
             630.00,777.00 631.00,778.00 631.00,778.00
             631.00,778.00 631.00,777.00 631.00,777.00 Z
           M 637.00,782.00
           C 637.00,782.00 636.00,782.00 636.00,782.00
             636.00,782.00 637.00,783.00 637.00,783.00
             637.00,783.00 637.00,782.00 637.00,782.00 Z
           M 641.00,785.00
           C 641.00,785.00 640.00,785.00 640.00,785.00
             640.00,785.00 641.00,786.00 641.00,786.00
             641.00,786.00 641.00,785.00 641.00,785.00 Z
           M 656.00,790.00
           C 656.00,790.00 655.00,790.00 655.00,790.00
             655.00,790.00 656.00,791.00 656.00,791.00
             656.00,791.00 656.00,790.00 656.00,790.00 Z
           M 657.00,793.00
           C 657.00,793.00 656.00,793.00 656.00,793.00
             656.00,793.00 657.00,794.00 657.00,794.00
             657.00,794.00 657.00,793.00 657.00,793.00 Z
           M 1265.00,794.00
           C 1265.00,794.00 1264.00,794.00 1264.00,794.00
             1264.00,794.00 1265.00,795.00 1265.00,795.00
             1265.00,795.00 1265.00,794.00 1265.00,794.00 Z
           M 686.00,799.00
           C 686.00,799.00 685.00,799.00 685.00,799.00
             685.00,799.00 686.00,800.00 686.00,800.00
             686.00,800.00 686.00,799.00 686.00,799.00 Z
           M 1041.00,809.00
           C 1041.00,809.00 1040.00,809.00 1040.00,809.00
             1040.00,809.00 1041.00,810.00 1041.00,810.00
             1041.00,810.00 1041.00,809.00 1041.00,809.00 Z
           M 993.00,811.00
           C 993.00,811.00 992.00,811.00 992.00,811.00
             992.00,811.00 993.00,812.00 993.00,812.00
             993.00,812.00 993.00,811.00 993.00,811.00 Z
           M 1044.00,833.00
           C 1044.00,833.00 1043.00,833.00 1043.00,833.00
             1043.00,833.00 1044.00,834.00 1044.00,834.00
             1044.00,834.00 1044.00,833.00 1044.00,833.00 Z
           M 1044.00,850.00
           C 1044.00,850.00 1043.00,850.00 1043.00,850.00
             1043.00,850.00 1044.00,851.00 1044.00,851.00
             1044.00,851.00 1044.00,850.00 1044.00,850.00 Z
           M 1052.00,894.00
           C 1052.00,894.00 1051.00,894.00 1051.00,894.00
             1051.00,894.00 1052.00,895.00 1052.00,895.00
             1052.00,895.00 1052.00,894.00 1052.00,894.00 Z
           M 1089.00,897.00
           C 1089.00,897.00 1091.00,900.00 1091.00,900.00
             1091.00,900.00 1089.00,897.00 1089.00,897.00 Z
           M 1056.00,904.00
           C 1056.00,904.00 1055.00,904.00 1055.00,904.00
             1055.00,904.00 1056.00,905.00 1056.00,905.00
             1056.00,905.00 1056.00,904.00 1056.00,904.00 Z
           M 1057.00,905.00
           C 1057.00,905.00 1056.00,905.00 1056.00,905.00
             1056.00,905.00 1057.00,906.00 1057.00,906.00
             1057.00,906.00 1057.00,905.00 1057.00,905.00 Z
           M 1058.00,906.00
           C 1058.00,906.00 1057.00,906.00 1057.00,906.00
             1057.00,906.00 1058.00,907.00 1058.00,907.00
             1058.00,907.00 1058.00,906.00 1058.00,906.00 Z
           M 1060.00,908.00
           C 1060.00,908.00 1059.00,908.00 1059.00,908.00
             1059.00,908.00 1060.00,909.00 1060.00,909.00
             1060.00,909.00 1060.00,908.00 1060.00,908.00 Z
           M 1057.00,909.00
           C 1057.00,909.00 1056.00,909.00 1056.00,909.00
             1056.00,909.00 1057.00,910.00 1057.00,910.00
             1057.00,910.00 1057.00,909.00 1057.00,909.00 Z
           M 1061.00,910.00
           C 1061.00,910.00 1060.00,910.00 1060.00,910.00
             1060.00,910.00 1061.00,911.00 1061.00,911.00
             1061.00,911.00 1061.00,910.00 1061.00,910.00 Z
           M 1238.00,914.00
           C 1238.00,914.00 1237.00,914.00 1237.00,914.00
             1237.00,914.00 1238.00,915.00 1238.00,915.00
             1238.00,915.00 1238.00,914.00 1238.00,914.00 Z
           M 1059.00,924.00
           C 1059.00,924.00 1060.00,924.00 1060.00,924.00
             1060.00,924.00 1059.00,925.00 1059.00,925.00
             1059.00,925.00 1059.00,924.00 1059.00,924.00 Z
           M 1231.00,931.00
           C 1231.00,931.00 1230.00,931.00 1230.00,931.00
             1230.00,931.00 1231.00,932.00 1231.00,932.00
             1231.00,932.00 1231.00,931.00 1231.00,931.00 Z
           M 1226.00,934.00
           C 1226.00,934.00 1225.00,934.00 1225.00,934.00
             1225.00,934.00 1226.00,935.00 1226.00,935.00
             1226.00,935.00 1226.00,934.00 1226.00,934.00 Z
           M 1248.00,1014.00
           C 1248.00,1014.00 1249.00,1014.00 1249.00,1014.00
             1249.00,1014.00 1248.00,1015.00 1248.00,1015.00
             1248.00,1015.00 1248.00,1014.00 1248.00,1014.00 Z" />
</svg>
