<?xml version="1.0" encoding="UTF-8" standalone="no"?>
<svg
   width="8.80556in"
   height="8.58333in"
   viewBox="0 0 634 618"
   version="1.1"
   id="svg3"
   sodipodi:docname="pop!_os_vector.svg"
   inkscape:version="1.1.1 (3bf5ae0d25, 2021-09-20, custom)"
   xmlns:inkscape="http://www.inkscape.org/namespaces/inkscape"
   xmlns:sodipodi="http://sodipodi.sourceforge.net/DTD/sodipodi-0.dtd"
   xmlns="http://www.w3.org/2000/svg"
   xmlns:svg="http://www.w3.org/2000/svg">
  <defs
     id="defs7" />
  <sodipodi:namedview
     id="namedview5"
     pagecolor="#ffffff"
     bordercolor="#666666"
     borderopacity="1.0"
     inkscape:pageshadow="2"
     inkscape:pageopacity="0.0"
     inkscape:pagecheckerboard="0"
     inkscape:document-units="in"
     showgrid="false"
     inkscape:zoom="1.0497577"
     inkscape:cx="422.95476"
     inkscape:cy="411.99985"
     inkscape:window-width="1920"
     inkscape:window-height="1080"
     inkscape:window-x="1920"
     inkscape:window-y="0"
     inkscape:window-maximized="1"
     inkscape:current-layer="svg3" />
  <path
     id="Selection"
     fill="none"
     stroke="black"
     stroke-width="1"
     d="M 276.00,303.00            C 276.00,303.00 288.42,335.00 288.42,335.00              288.42,335.00 304.68,377.00 304.68,377.00              309.56,390.19 316.84,405.77 317.00,420.00              317.07,426.82 316.49,434.24 312.35,439.98              302.29,453.98 282.38,449.00 272.29,437.96              260.12,424.65 237.74,385.21 228.14,368.00              228.14,368.00 183.26,285.00 183.26,285.00              183.26,285.00 155.69,231.00 155.69,231.00              155.69,231.00 133.97,188.00 133.97,188.00              128.40,177.70 119.28,160.91 120.18,149.00              120.99,138.37 127.03,129.60 134.09,122.00              144.45,110.84 167.65,94.03 181.00,86.00              198.38,75.55 222.42,65.24 243.00,65.00              263.04,64.77 273.81,64.68 293.00,72.45              329.61,87.28 353.76,121.05 361.40,159.00              362.72,165.56 363.97,173.33 364.00,180.00              364.07,194.10 364.43,205.17 360.28,219.00              357.65,227.76 350.77,240.34 345.67,248.00              331.52,269.22 314.85,284.79 292.00,296.25              286.58,298.96 281.91,301.40 276.00,303.00 Z            M 222.00,126.43            C 213.69,129.78 212.83,139.04 213.01,147.00              213.57,171.36 228.31,206.14 242.02,226.00              247.56,234.01 257.79,247.33 269.00,244.44              280.69,241.43 283.88,225.35 284.00,215.00              284.31,188.09 272.83,162.70 254.83,143.00              246.42,133.79 235.21,124.42 222.00,126.43 Z            M 437.00,180.15            C 437.00,180.15 444.00,180.15 444.00,180.15              444.00,180.15 452.00,180.15 452.00,180.15              470.22,180.03 501.48,192.94 499.82,215.00              498.92,226.87 488.71,250.00 483.25,261.00              483.25,261.00 448.80,326.00 448.80,326.00              448.80,326.00 426.84,361.00 426.84,361.00              423.57,365.44 418.42,371.68 413.00,373.35              398.71,377.75 398.01,356.05 398.00,347.00              398.00,347.00 398.00,323.00 398.00,323.00              398.00,323.00 398.91,311.00 398.91,311.00              400.92,281.60 403.90,252.15 408.59,223.00              411.75,203.38 414.80,185.41 437.00,180.15 Z            M 393.00,402.53            C 397.32,401.82 402.98,401.43 407.00,403.45              422.78,411.38 424.04,446.73 401.00,452.10              387.18,455.32 374.96,443.39 374.21,430.00              373.52,417.88 381.52,406.11 393.00,402.53 Z            M 165.00,477.52            C 165.00,477.52 194.00,477.00 194.00,477.00              194.00,477.00 247.00,477.00 247.00,477.00              247.00,477.00 412.00,477.00 412.00,477.00              412.00,477.00 458.00,477.00 458.00,477.00              472.59,477.07 483.81,485.77 484.00,501.00              484.00,501.00 484.00,505.00 484.00,505.00              483.81,520.78 473.05,528.98 458.00,529.00              458.00,529.00 218.00,529.00 218.00,529.00              218.00,529.00 170.00,529.00 170.00,529.00              158.85,528.86 149.12,522.22 146.53,511.00              145.87,508.14 145.97,503.99 146.00,501.00              146.15,488.75 153.35,480.72 165.00,477.52 Z"
     style="fill:#ffffff;stroke:none" />
</svg>
