<?xml version="1.0" encoding="UTF-8" standalone="no"?>
<!-- Created with Inkscape (http://www.inkscape.org/) -->

<svg
   width="67.733673mm"
   height="67.733673mm"
   viewBox="0 0 67.733673 67.733673"
   version="1.1"
   id="svg883"
   sodipodi:docname="BSD.svg"
   inkscape:version="1.1.1 (3bf5ae0d25, 2021-09-20, custom)"
   inkscape:export-filename="/home/librorum/Documents/GitHub/mint_server/Server_Emotes/Arch.png"
   inkscape:export-xdpi="96"
   inkscape:export-ydpi="96"
   xmlns:inkscape="http://www.inkscape.org/namespaces/inkscape"
   xmlns:sodipodi="http://sodipodi.sourceforge.net/DTD/sodipodi-0.dtd"
   xmlns="http://www.w3.org/2000/svg"
   xmlns:svg="http://www.w3.org/2000/svg">
  <sodipodi:namedview
     id="namedview885"
     pagecolor="#6e6e6e"
     bordercolor="#666666"
     borderopacity="1.0"
     inkscape:pageshadow="2"
     inkscape:pageopacity="0"
     inkscape:pagecheckerboard="true"
     inkscape:document-units="mm"
     showgrid="false"
     fit-margin-top="0"
     fit-margin-left="0"
     fit-margin-right="0"
     fit-margin-bottom="0"
     inkscape:zoom="2.8495473"
     inkscape:cx="102.82335"
     inkscape:cy="157.39342"
     inkscape:window-width="1920"
     inkscape:window-height="1080"
     inkscape:window-x="1920"
     inkscape:window-y="0"
     inkscape:window-maximized="1"
     inkscape:current-layer="layer4" />
  <defs
     id="defs880">
    <filter
       style="color-interpolation-filters:sRGB"
       inkscape:label="Drop Shadow"
       id="filter116945"
       x="-0.030022849"
       y="-0.035191899"
       width="1.0850647"
       height="1.0997104">
      <feFlood
         flood-opacity="1"
         flood-color="rgb(0,0,0)"
         result="flood"
         id="feFlood116935" />
      <feComposite
         in="flood"
         in2="SourceGraphic"
         operator="in"
         result="composite1"
         id="feComposite116937" />
      <feGaussianBlur
         in="composite1"
         stdDeviation="2"
         result="blur"
         id="feGaussianBlur116939" />
      <feOffset
         dx="4"
         dy="4"
         result="offset"
         id="feOffset116941" />
      <feComposite
         in="SourceGraphic"
         in2="offset"
         operator="over"
         result="composite2"
         id="feComposite116943" />
    </filter>
    <linearGradient
       id="lg"
       y1="9.90843"
       x2="25.431995"
       x1="34.76569"
       y2="28.426884"
       gradientTransform="scale(0.9319351,1.0730361)"
       gradientUnits="userSpaceOnUse">
      <stop
         stop-color="#fff"
         stop-opacity="0"
         offset="0"
         id="stop1046" />
      <stop
         stop-color="#fff"
         stop-opacity=".27451"
         offset="1"
         id="stop1048" />
    </linearGradient>
    <filter
       style="color-interpolation-filters:sRGB;"
       inkscape:label="Drop Shadow"
       id="filter3775"
       x="-0.075"
       y="-0.074999895"
       width="1.165625"
       height="1.1656248">
      <feFlood
         flood-opacity="1"
         flood-color="rgb(0,0,0)"
         result="flood"
         id="feFlood3765" />
      <feComposite
         in="flood"
         in2="SourceGraphic"
         operator="in"
         result="composite1"
         id="feComposite3767" />
      <feGaussianBlur
         in="composite1"
         stdDeviation="2"
         result="blur"
         id="feGaussianBlur3769" />
      <feOffset
         dx="1"
         dy="1"
         result="offset"
         id="feOffset3771" />
      <feComposite
         in="SourceGraphic"
         in2="offset"
         operator="over"
         result="composite2"
         id="feComposite3773" />
    </filter>
    <filter
       style="color-interpolation-filters:sRGB;"
       inkscape:label="Drop Shadow"
       id="filter5280"
       x="-0.018836849"
       y="-0.019132093"
       width="1.041598"
       height="1.04225">
      <feFlood
         flood-opacity="1"
         flood-color="rgb(0,0,0)"
         result="flood"
         id="feFlood5270" />
      <feComposite
         in="flood"
         in2="SourceGraphic"
         operator="in"
         result="composite1"
         id="feComposite5272" />
      <feGaussianBlur
         in="composite1"
         stdDeviation="2"
         result="blur"
         id="feGaussianBlur5274" />
      <feOffset
         dx="1"
         dy="1"
         result="offset"
         id="feOffset5276" />
      <feComposite
         in="SourceGraphic"
         in2="offset"
         operator="over"
         result="composite2"
         id="feComposite5278" />
    </filter>
  </defs>
  <g
     inkscape:label="Logo"
     inkscape:groupmode="layer"
     id="layer1"
     style="display:inline"
     transform="translate(-108.62449,-139.52623)"
     sodipodi:insensitive="true">
    <g
       id="g854"
       transform="matrix(0.26458333,0,0,0.26458333,108.62466,139.5264)"
       style="display:inline">
      <g
         id="layer3"
         style="fill:#b5010f;fill-opacity:1">
        <path
           id="path32"
           style="fill:#b5010f;fill-opacity:1;stroke:#ffffff;stroke-width:20.0013;stroke-linecap:round;stroke-linejoin:bevel;stroke-miterlimit:4;stroke-dasharray:none;stroke-dashoffset:200.013;stroke-opacity:1"
           d="M 128,10 A 118,118 0 0 0 10,128 118,118 0 0 0 128,246 118,118 0 0 0 246,128 118,118 0 0 0 128,10 Z" />
      </g>
      <g
         id="g923"
         style="fill:#ffffff;fill-opacity:1;stroke:#ffffff;stroke-opacity:1" />
    </g>
  </g>
  <g
     inkscape:groupmode="layer"
     id="layer4"
     inkscape:label="Logo 1"
     style="display:inline">
    <g
       fill="#b5010f"
       id="g3885"
       transform="matrix(0.15514318,-0.04157049,0.04157049,0.15514318,8.5475502,19.499887)"
       style="fill:#ffffff;filter:url(#filter5280)">
      <path
         d="m 252.72296,5.1092398 c 13.50776,13.5014392 -23.93868,72.8490162 -30.26925,79.1827522 -6.33058,6.3211 -22.40974,0.505435 -35.91118,-12.999163 -13.50775,-13.50144 -19.32658,-29.583758 -12.996,-35.914335 6.32742,-6.333736 65.67183,-43.7770117 79.17643,-30.2692542"
         id="path3879"
         style="fill:#ffffff" />
      <path
         d="M 63.30478,19.394104 C 42.683021,7.6932776 13.339345,-5.3216805 4.0045873,4.013077 -5.4533701,13.467875 8.0385925,43.471776 19.862619,64.131443 30.385149,45.837845 45.352351,30.437864 63.30478,19.394104"
         id="path3881"
         style="fill:#ffffff" />
      <path
         d="m 232.12332,79.63567 c 1.89854,6.44114 1.55737,11.760846 -1.52263,14.834525 -7.19297,7.196135 -26.6238,-0.464369 -44.14029,-17.134256 -1.22252,-1.096163 -2.43557,-2.233392 -3.6265,-3.427483 -6.33373,-6.336894 -11.26173,-13.081296 -14.41438,-19.291832 -6.13472,-11.005853 -7.66998,-20.726005 -3.03261,-25.363373 2.52717,-2.524018 6.57066,-3.212673 11.50181,-2.325003 3.21583,-2.034377 7.01291,-4.299358 11.17644,-6.621202 C 171.13623,11.477724 151.88863,6.4897098 131.4722,6.4897098 63.753354,6.4897098 8.8536069,61.37998 8.8536069,129.10515 c 0,67.71253 54.8997471,122.60911 122.6185931,122.60911 67.71885,0 122.61544,-54.89658 122.61544,-122.60911 0,-21.86956 -5.73985,-42.377592 -15.76642,-60.156277 -2.16706,3.955031 -4.27409,7.57837 -6.1979,10.686797"
         id="path3883"
         style="fill:#ffffff" />
    </g>
  </g>
</svg>
