<?xml version="1.0" encoding="UTF-8" standalone="no"?>
<!-- Created with Inkscape (http://www.inkscape.org/) -->

<svg
   width="67.733673mm"
   height="67.733673mm"
   viewBox="0 0 67.733673 67.733673"
   version="1.1"
   id="svg883"
   sodipodi:docname="Mint.svg"
   inkscape:version="1.1.1 (3bf5ae0d25, 2021-09-20, custom)"
   xmlns:inkscape="http://www.inkscape.org/namespaces/inkscape"
   xmlns:sodipodi="http://sodipodi.sourceforge.net/DTD/sodipodi-0.dtd"
   xmlns="http://www.w3.org/2000/svg"
   xmlns:svg="http://www.w3.org/2000/svg">
  <sodipodi:namedview
     id="namedview885"
     pagecolor="#6e6e6e"
     bordercolor="#666666"
     borderopacity="1.0"
     inkscape:pageshadow="2"
     inkscape:pageopacity="0"
     inkscape:pagecheckerboard="true"
     inkscape:document-units="mm"
     showgrid="false"
     fit-margin-top="0"
     fit-margin-left="0"
     fit-margin-right="0"
     fit-margin-bottom="0"
     inkscape:zoom="1.0074671"
     inkscape:cx="-28.785059"
     inkscape:cy="-61.044177"
     inkscape:window-width="1920"
     inkscape:window-height="1080"
     inkscape:window-x="1920"
     inkscape:window-y="0"
     inkscape:window-maximized="1"
     inkscape:current-layer="layer1" />
  <defs
     id="defs880">
    <filter
       style="color-interpolation-filters:sRGB"
       inkscape:label="Drop Shadow"
       id="filter116945"
       x="-0.030022849"
       y="-0.035191899"
       width="1.0850647"
       height="1.0997104">
      <feFlood
         flood-opacity="1"
         flood-color="rgb(0,0,0)"
         result="flood"
         id="feFlood116935" />
      <feComposite
         in="flood"
         in2="SourceGraphic"
         operator="in"
         result="composite1"
         id="feComposite116937" />
      <feGaussianBlur
         in="composite1"
         stdDeviation="2"
         result="blur"
         id="feGaussianBlur116939" />
      <feOffset
         dx="4"
         dy="4"
         result="offset"
         id="feOffset116941" />
      <feComposite
         in="SourceGraphic"
         in2="offset"
         operator="over"
         result="composite2"
         id="feComposite116943" />
    </filter>
  </defs>
  <g
     inkscape:label="Logo"
     inkscape:groupmode="layer"
     id="layer1"
     style="display:inline"
     transform="translate(-108.62449,-139.52623)">
    <g
       id="g854"
       transform="matrix(0.26458333,0,0,0.26458333,108.62466,139.5264)"
       style="display:inline">
      <g
         id="layer3">
        <path
           id="path32"
           style="fill:#67b544;fill-opacity:1;stroke:#ffffff;stroke-width:20.0013;stroke-linecap:round;stroke-linejoin:bevel;stroke-miterlimit:4;stroke-dasharray:none;stroke-dashoffset:200.013;stroke-opacity:1"
           d="M 128,10 A 118,118 0 0 0 10,128 118,118 0 0 0 128,246 118,118 0 0 0 246,128 118,118 0 0 0 128,10 Z" />
        <path
           style="color:#000000;fill:#ffffff;fill-opacity:1;stroke:none;stroke-width:0;-inkscape-stroke:none;filter:url(#filter116945)"
           d="m 43.959063,85.317496 23.293715,86.933324 c 5.687012,21.22421 27.765588,33.97128 48.989792,28.28427 l 57.95556,-15.52914 c 21.22421,-5.68701 33.97128,-27.76559 28.28427,-48.9898 L 189.54145,87.719862 C 185.28386,71.830301 168.68866,62.249059 152.7991,66.506653 145.37602,68.495662 139.41827,73.236811 135.51651,79.28122 129.11528,75.997489 121.58515,74.870406 114.16207,76.859416 98.27251,81.11701 88.691266,97.712202 92.948859,113.60177 l 12.940951,48.29629 19.31853,-5.17639 -12.94095,-48.29629 c -1.46009,-5.44906 1.622,-10.787381 7.07106,-12.247447 5.44906,-1.460072 10.78737,1.622008 12.24744,7.071067 l 12.94096,48.29629 19.31851,-5.17638 -12.94095,-48.296287 c -1.46007,-5.449062 1.62201,-10.787383 7.07107,-12.247454 5.44906,-1.460068 10.78738,1.622011 12.24745,7.071073 l 12.94095,48.296288 c 2.88949,10.78373 -3.3584,21.60541 -14.14213,24.4949 l -57.95556,15.52914 c -10.78372,2.88949 -21.605397,-3.3584 -24.494896,-14.14213 L 63.277581,80.141111 Z"
           id="path4193" />
      </g>
      <g
         id="g923"
         style="fill:#ffffff;fill-opacity:1;stroke:#ffffff;stroke-opacity:1" />
    </g>
  </g>
</svg>
