<?xml version="1.0" encoding="UTF-8" standalone="no"?>
<!-- Created with Inkscape (http://www.inkscape.org/) -->

<svg
   width="67.733673mm"
   height="67.733673mm"
   viewBox="0 0 67.733673 67.733673"
   version="1.1"
   id="svg883"
   sodipodi:docname="Amogos.svg"
   inkscape:version="1.1.1 (3bf5ae0d25, 2021-09-20, custom)"
   inkscape:export-filename="/home/librorum/Documents/GitHub/mint_server/Server_Emotes/Void.png"
   inkscape:export-xdpi="96"
   inkscape:export-ydpi="96"
   xmlns:inkscape="http://www.inkscape.org/namespaces/inkscape"
   xmlns:sodipodi="http://sodipodi.sourceforge.net/DTD/sodipodi-0.dtd"
   xmlns="http://www.w3.org/2000/svg"
   xmlns:svg="http://www.w3.org/2000/svg">
  <sodipodi:namedview
     id="namedview885"
     pagecolor="#6e6e6e"
     bordercolor="#666666"
     borderopacity="1.0"
     inkscape:pageshadow="2"
     inkscape:pageopacity="0"
     inkscape:pagecheckerboard="true"
     inkscape:document-units="mm"
     showgrid="false"
     fit-margin-top="0"
     fit-margin-left="0"
     fit-margin-right="0"
     fit-margin-bottom="0"
     inkscape:zoom="2.0149343"
     inkscape:cx="36.229469"
     inkscape:cy="163.03261"
     inkscape:window-width="1920"
     inkscape:window-height="1080"
     inkscape:window-x="1920"
     inkscape:window-y="0"
     inkscape:window-maximized="1"
     inkscape:current-layer="layer2" />
  <defs
     id="defs880">
    <filter
       style="color-interpolation-filters:sRGB"
       inkscape:label="Drop Shadow"
       id="filter116945"
       x="-0.030022849"
       y="-0.035191899"
       width="1.0850647"
       height="1.0997104">
      <feFlood
         flood-opacity="1"
         flood-color="rgb(0,0,0)"
         result="flood"
         id="feFlood116935" />
      <feComposite
         in="flood"
         in2="SourceGraphic"
         operator="in"
         result="composite1"
         id="feComposite116937" />
      <feGaussianBlur
         in="composite1"
         stdDeviation="2"
         result="blur"
         id="feGaussianBlur116939" />
      <feOffset
         dx="4"
         dy="4"
         result="offset"
         id="feOffset116941" />
      <feComposite
         in="SourceGraphic"
         in2="offset"
         operator="over"
         result="composite2"
         id="feComposite116943" />
    </filter>
    <linearGradient
       id="lg"
       y1="9.90843"
       x2="25.431995"
       x1="34.76569"
       y2="28.426884"
       gradientTransform="scale(0.9319351,1.0730361)"
       gradientUnits="userSpaceOnUse">
      <stop
         stop-color="#fff"
         stop-opacity="0"
         offset="0"
         id="stop1046" />
      <stop
         stop-color="#fff"
         stop-opacity=".27451"
         offset="1"
         id="stop1048" />
    </linearGradient>
    <filter
       style="color-interpolation-filters:sRGB;"
       inkscape:label="Drop Shadow"
       id="filter3775"
       x="-0.075"
       y="-0.074999895"
       width="1.165625"
       height="1.1656248">
      <feFlood
         flood-opacity="1"
         flood-color="rgb(0,0,0)"
         result="flood"
         id="feFlood3765" />
      <feComposite
         in="flood"
         in2="SourceGraphic"
         operator="in"
         result="composite1"
         id="feComposite3767" />
      <feGaussianBlur
         in="composite1"
         stdDeviation="2"
         result="blur"
         id="feGaussianBlur3769" />
      <feOffset
         dx="1"
         dy="1"
         result="offset"
         id="feOffset3771" />
      <feComposite
         in="SourceGraphic"
         in2="offset"
         operator="over"
         result="composite2"
         id="feComposite3773" />
    </filter>
    <filter
       style="color-interpolation-filters:sRGB;"
       inkscape:label="Drop Shadow"
       id="filter5280"
       x="-0.018836849"
       y="-0.019132093"
       width="1.041598"
       height="1.04225">
      <feFlood
         flood-opacity="1"
         flood-color="rgb(0,0,0)"
         result="flood"
         id="feFlood5270" />
      <feComposite
         in="flood"
         in2="SourceGraphic"
         operator="in"
         result="composite1"
         id="feComposite5272" />
      <feGaussianBlur
         in="composite1"
         stdDeviation="2"
         result="blur"
         id="feGaussianBlur5274" />
      <feOffset
         dx="1"
         dy="1"
         result="offset"
         id="feOffset5276" />
      <feComposite
         in="SourceGraphic"
         in2="offset"
         operator="over"
         result="composite2"
         id="feComposite5278" />
    </filter>
    <filter
       style="color-interpolation-filters:sRGB;"
       inkscape:label="Drop Shadow"
       id="filter5476"
       x="-0.02400048"
       y="-0.019281212"
       width="1.0530011"
       height="1.0425793">
      <feFlood
         flood-opacity="1"
         flood-color="rgb(0,0,0)"
         result="flood"
         id="feFlood5466" />
      <feComposite
         in="flood"
         in2="SourceGraphic"
         operator="in"
         result="composite1"
         id="feComposite5468" />
      <feGaussianBlur
         in="composite1"
         stdDeviation="2"
         result="blur"
         id="feGaussianBlur5470" />
      <feOffset
         dx="1"
         dy="1"
         result="offset"
         id="feOffset5472" />
      <feComposite
         in="SourceGraphic"
         in2="offset"
         operator="over"
         result="composite2"
         id="feComposite5474" />
    </filter>
    <filter
       style="color-interpolation-filters:sRGB;"
       inkscape:label="Drop Shadow"
       id="filter36341"
       x="-0.1013929"
       y="-0.11481358"
       width="1.2239093"
       height="1.2535467">
      <feFlood
         flood-opacity="1"
         flood-color="rgb(0,0,0)"
         result="flood"
         id="feFlood36331" />
      <feComposite
         in="flood"
         in2="SourceGraphic"
         operator="in"
         result="composite1"
         id="feComposite36333" />
      <feGaussianBlur
         in="composite1"
         stdDeviation="2"
         result="blur"
         id="feGaussianBlur36335" />
      <feOffset
         dx="1"
         dy="1"
         result="offset"
         id="feOffset36337" />
      <feComposite
         in="SourceGraphic"
         in2="offset"
         operator="over"
         result="composite2"
         id="feComposite36339" />
    </filter>
    <filter
       style="color-interpolation-filters:sRGB;"
       inkscape:label="Drop Shadow"
       id="filter36353"
       x="-0.16282225"
       y="-0.13434089"
       width="1.3595658"
       height="1.2966695">
      <feFlood
         flood-opacity="1"
         flood-color="rgb(0,0,0)"
         result="flood"
         id="feFlood36343" />
      <feComposite
         in="flood"
         in2="SourceGraphic"
         operator="in"
         result="composite1"
         id="feComposite36345" />
      <feGaussianBlur
         in="composite1"
         stdDeviation="2"
         result="blur"
         id="feGaussianBlur36347" />
      <feOffset
         dx="1"
         dy="1"
         result="offset"
         id="feOffset36349" />
      <feComposite
         in="SourceGraphic"
         in2="offset"
         operator="over"
         result="composite2"
         id="feComposite36351" />
    </filter>
    <filter
       style="color-interpolation-filters:sRGB;"
       inkscape:label="Drop Shadow"
       id="filter36365"
       x="-0.12558015"
       y="-0.12725648"
       width="1.2773228"
       height="1.2810247">
      <feFlood
         flood-opacity="1"
         flood-color="rgb(0,0,0)"
         result="flood"
         id="feFlood36355" />
      <feComposite
         in="flood"
         in2="SourceGraphic"
         operator="in"
         result="composite1"
         id="feComposite36357" />
      <feGaussianBlur
         in="composite1"
         stdDeviation="2"
         result="blur"
         id="feGaussianBlur36359" />
      <feOffset
         dx="1"
         dy="1"
         result="offset"
         id="feOffset36361" />
      <feComposite
         in="SourceGraphic"
         in2="offset"
         operator="over"
         result="composite2"
         id="feComposite36363" />
    </filter>
    <filter
       style="color-interpolation-filters:sRGB;"
       inkscape:label="Drop Shadow"
       id="filter947"
       x="-0.025150498"
       y="-0.023143847"
       width="1.0555407"
       height="1.0511093">
      <feFlood
         flood-opacity="1"
         flood-color="rgb(0,0,0)"
         result="flood"
         id="feFlood937" />
      <feComposite
         in="flood"
         in2="SourceGraphic"
         operator="in"
         result="composite1"
         id="feComposite939" />
      <feGaussianBlur
         in="composite1"
         stdDeviation="2"
         result="blur"
         id="feGaussianBlur941" />
      <feOffset
         dx="1"
         dy="1"
         result="offset"
         id="feOffset943" />
      <feComposite
         in="SourceGraphic"
         in2="offset"
         operator="over"
         result="composite2"
         id="feComposite945" />
    </filter>
    <linearGradient
       y1="545.8"
       x2="0"
       y2="517.8"
       gradientUnits="userSpaceOnUse"
       id="linearGradient1221">
      <stop
         stop-color="#3889e9"
         id="stop1217" />
      <stop
         offset="1"
         stop-color="#5ea5fb"
         id="stop1219" />
    </linearGradient>
    <linearGradient
       id="0"
       gradientUnits="userSpaceOnUse"
       y1="545.14"
       x2="0"
       y2="518.14">
      <stop
         stop-color="#9662ff"
         id="stop1223" />
      <stop
         offset="1"
         stop-color="#bc9bff"
         id="stop1225" />
    </linearGradient>
    <linearGradient
       y1="545.8"
       x2="0"
       y2="517.8"
       gradientUnits="userSpaceOnUse"
       id="linearGradient1419">
      <stop
         stop-color="#3889e9"
         id="stop1415" />
      <stop
         offset="1"
         stop-color="#5ea5fb"
         id="stop1417" />
    </linearGradient>
    <linearGradient
       id="0-2"
       gradientUnits="userSpaceOnUse"
       y1="545.14"
       x2="0"
       y2="518.14">
      <stop
         stop-color="#9662ff"
         id="stop1421" />
      <stop
         offset="1"
         stop-color="#bc9bff"
         id="stop1423" />
    </linearGradient>
    <filter
       style="color-interpolation-filters:sRGB;"
       inkscape:label="Drop Shadow"
       id="filter994"
       x="-0.051605033"
       y="-0.051604646"
       width="1.1247122"
       height="1.1247112">
      <feFlood
         flood-opacity="1"
         flood-color="rgb(0,0,0)"
         result="flood"
         id="feFlood984" />
      <feComposite
         in="flood"
         in2="SourceGraphic"
         operator="in"
         result="composite1"
         id="feComposite986" />
      <feGaussianBlur
         in="composite1"
         stdDeviation="1"
         result="blur"
         id="feGaussianBlur988" />
      <feOffset
         dx="1"
         dy="1"
         result="offset"
         id="feOffset990" />
      <feComposite
         in="SourceGraphic"
         in2="offset"
         operator="over"
         result="composite2"
         id="feComposite992" />
    </filter>
    <clipPath
       id="vlpa">
      <path
         d="m0 200.3h320v-200.3h-320v200.3z"
         id="path1356" />
    </clipPath>
    <filter
       style="color-interpolation-filters:sRGB;"
       inkscape:label="Drop Shadow"
       id="filter8715"
       x="-0.015824898"
       y="-0.03190645"
       width="1.0382435"
       height="1.0771073">
      <feFlood
         flood-opacity="1"
         flood-color="rgb(0,0,0)"
         result="flood"
         id="feFlood8705" />
      <feComposite
         in="flood"
         in2="SourceGraphic"
         operator="in"
         result="composite1"
         id="feComposite8707" />
      <feGaussianBlur
         in="composite1"
         stdDeviation="1"
         result="blur"
         id="feGaussianBlur8709" />
      <feOffset
         dx="1"
         dy="1"
         result="offset"
         id="feOffset8711" />
      <feComposite
         in="SourceGraphic"
         in2="offset"
         operator="over"
         result="composite2"
         id="feComposite8713" />
    </filter>
    <filter
       style="color-interpolation-filters:sRGB;"
       inkscape:label="Drop Shadow"
       id="filter11442"
       x="-0.056773245"
       y="-0.053239598"
       width="1.137202"
       height="1.1286624">
      <feFlood
         flood-opacity="1"
         flood-color="rgb(0,0,0)"
         result="flood"
         id="feFlood11432" />
      <feComposite
         in="flood"
         in2="SourceGraphic"
         operator="in"
         result="composite1"
         id="feComposite11434" />
      <feGaussianBlur
         in="composite1"
         stdDeviation="1"
         result="blur"
         id="feGaussianBlur11436" />
      <feOffset
         dx="1"
         dy="1"
         result="offset"
         id="feOffset11438" />
      <feComposite
         in="SourceGraphic"
         in2="offset"
         operator="over"
         result="composite2"
         id="feComposite11440" />
    </filter>
    <filter
       style="color-interpolation-filters:sRGB;"
       inkscape:label="Drop Shadow"
       id="filter924"
       x="-0.009375"
       y="-0.009375"
       width="1.0226562"
       height="1.0226562">
      <feFlood
         flood-opacity="1"
         flood-color="rgb(0,0,0)"
         result="flood"
         id="feFlood914" />
      <feComposite
         in="flood"
         in2="SourceGraphic"
         operator="in"
         result="composite1"
         id="feComposite916" />
      <feGaussianBlur
         in="composite1"
         stdDeviation="1"
         result="blur"
         id="feGaussianBlur918" />
      <feOffset
         dx="1"
         dy="1"
         result="offset"
         id="feOffset920" />
      <feComposite
         in="SourceGraphic"
         in2="offset"
         operator="over"
         result="composite2"
         id="feComposite922" />
    </filter>
    <filter
       style="color-interpolation-filters:sRGB;"
       inkscape:label="Drop Shadow"
       id="filter931"
       x="-0.018728036"
       y="-0.018718917"
       width="1.0452594"
       height="1.0452374">
      <feFlood
         flood-opacity="1"
         flood-color="rgb(0,0,0)"
         result="flood"
         id="feFlood921" />
      <feComposite
         in="flood"
         in2="SourceGraphic"
         operator="in"
         result="composite1"
         id="feComposite923" />
      <feGaussianBlur
         in="composite1"
         stdDeviation="1"
         result="blur"
         id="feGaussianBlur925" />
      <feOffset
         dx="1"
         dy="1"
         result="offset"
         id="feOffset927" />
      <feComposite
         in="SourceGraphic"
         in2="offset"
         operator="over"
         result="composite2"
         id="feComposite929" />
    </filter>
    <filter
       style="color-interpolation-filters:sRGB;"
       inkscape:label="Drop Shadow"
       id="filter938"
       x="-0.012162155"
       y="-0.011720284"
       width="1.0293919"
       height="1.028324">
      <feFlood
         flood-opacity="1"
         flood-color="rgb(1,8,0)"
         result="flood"
         id="feFlood927" />
      <feComposite
         in="flood"
         in2="SourceGraphic"
         operator="in"
         result="composite1"
         id="feComposite930" />
      <feGaussianBlur
         in="composite1"
         stdDeviation="1"
         result="blur"
         id="feGaussianBlur932" />
      <feOffset
         dx="1"
         dy="1"
         result="offset"
         id="feOffset934" />
      <feComposite
         in="SourceGraphic"
         in2="offset"
         operator="over"
         result="composite2"
         id="feComposite936" />
    </filter>
    <filter
       style="color-interpolation-filters:sRGB;"
       inkscape:label="Drop Shadow"
       id="filter942"
       x="-0.011403061"
       y="-0.011403061"
       width="1.0275574"
       height="1.0275574">
      <feFlood
         flood-opacity="1"
         flood-color="rgb(0,0,0)"
         result="flood"
         id="feFlood931" />
      <feComposite
         in="flood"
         in2="SourceGraphic"
         operator="in"
         result="composite1"
         id="feComposite933" />
      <feGaussianBlur
         in="composite1"
         stdDeviation="1"
         result="blur"
         id="feGaussianBlur935" />
      <feOffset
         dx="1"
         dy="1"
         result="offset"
         id="feOffset937" />
      <feComposite
         in="SourceGraphic"
         in2="offset"
         operator="over"
         result="composite2"
         id="feComposite940" />
    </filter>
    <filter
       style="color-interpolation-filters:sRGB;"
       inkscape:label="Drop Shadow"
       id="filter11440"
       x="-0.017536831"
       y="-0.013677109"
       width="1.0423807"
       height="1.033053">
      <feFlood
         flood-opacity="1"
         flood-color="rgb(0,0,0)"
         result="flood"
         id="feFlood11430" />
      <feComposite
         in="flood"
         in2="SourceGraphic"
         operator="in"
         result="composite1"
         id="feComposite11432" />
      <feGaussianBlur
         in="composite1"
         stdDeviation="1"
         result="blur"
         id="feGaussianBlur11434" />
      <feOffset
         dx="1"
         dy="1"
         result="offset"
         id="feOffset11436" />
      <feComposite
         in="SourceGraphic"
         in2="offset"
         operator="over"
         result="composite2"
         id="feComposite11438" />
    </filter>
  </defs>
  <g
     inkscape:label="Logo"
     inkscape:groupmode="layer"
     id="layer1"
     style="display:inline"
     transform="translate(-108.62449,-139.52623)">
    <g
       id="g854"
       transform="matrix(0.26458333,0,0,0.26458333,108.62466,139.5264)"
       style="display:inline;fill:#5e6d6b;fill-opacity:1">
      <g
         id="layer3"
         style="fill:#5e6d6b;fill-opacity:1">
        <path
           id="path32"
           style="fill:#5e6d6b;fill-opacity:1;stroke:#ffffff;stroke-width:20.0013;stroke-linecap:round;stroke-linejoin:bevel;stroke-miterlimit:4;stroke-dasharray:none;stroke-dashoffset:200.013;stroke-opacity:1"
           d="M 128,10 A 118,118 0 0 0 10,128 118,118 0 0 0 128,246 118,118 0 0 0 246,128 118,118 0 0 0 128,10 Z" />
      </g>
      <g
         id="g923"
         style="fill:#5e6d6b;fill-opacity:1;stroke:#ffffff;stroke-opacity:1" />
    </g>
  </g>
  <g
     inkscape:groupmode="layer"
     id="layer2"
     inkscape:label="Logo 1">
    <path
       id="Selection"
       transform="scale(0.26458333)"
       d="m 121.8457,36.824219 c -1.89711,0.455943 -5.04076,-0.286422 -6.74023,0.683593 -0.63543,-0.422887 -1.53228,-0.106206 -2.24805,-0.01172 l -5.37304,0.90039 -2.61915,0.703125 -2.0957,0.560547 c -3.038006,0.849593 -5.98268,2.036085 -8.810546,3.439453 l -2.93164,1.63086 c -0.568082,0.324385 -0.952658,0.422843 -1.214844,1.050781 -0.583631,0.07778 -1.232553,0.215145 -1.259766,0.888672 -0.371387,0.05269 -0.523251,0.04521 -0.873046,0.234375 -0.733743,0.355676 -2.605817,1.891562 -2.845704,2.644531 -0.06947,0.01934 -0.117512,0.03449 -0.175781,0.05078 l 0.04687,0.169922 0.175781,-0.04687 0.04492,0.175782 -0.220703,-0.128907 -0.21289,-0.123047 c -0.281664,0.09468 -0.389594,0.213544 -0.390626,0.660157 -0.116319,0.03139 -0.230689,0.07426 -0.341796,0.125 l 0.03906,0.142578 -0.148437,-0.08398 c -0.779777,0.402459 -1.433721,1.219927 -2,1.847657 -1.800945,2.002167 -3.340003,4.185646 -4.566407,6.585937 -0.522999,1.023451 -1.254446,2.276086 -0.980468,3.445313 -0.534713,0.588665 -0.618897,1.48292 -0.730469,2.253906 l -0.519531,4.818359 -0.53125,12.492188 0.4375,5.685547 0.486328,4.546875 c 0.05291,0.519148 0.250917,1.500961 0.03711,1.953125 -0.245197,0.516691 -1.115419,0.815882 -1.621094,1.044921 l -4.03125,1.716797 c -4.199905,1.688663 -9.063734,3.976494 -11.783203,7.705084 -0.888041,1.21858 -2.132717,3.00267 -1.960937,4.55859 -0.957196,0.54842 -0.668556,3.08934 -0.574219,4.08399 l 1.771484,12.0625 0.730469,3.73437 0.927735,4.80469 0.355468,1.96289 0.88086,4.06836 0.421875,1.57226 0.560547,2.09571 2.480468,9.2539 0.896485,2.56641 3.742187,13.96875 c 0.697792,2.48543 2.488843,5.81276 3.984375,7.91602 0.471572,0.66339 1.301513,2.03518 2.107422,2.24218 l 0.722656,1.30274 0.34961,-0.0937 c 0.577379,1.61005 3.234074,3.23756 4.771484,3.84179 4.549081,1.78661 9.734435,0.67693 14.318359,-0.33984 l 1.966797,-0.34766 0.873047,-0.23437 c 0.485401,-0.12994 1.255643,-0.39699 1.722656,-0.13477 0.351878,0.19579 0.567255,0.80097 0.720704,1.16407 l 0.65039,2.07226 0.52539,1.35547 2.2793,6.50195 1.85742,5.11524 1.74609,4.02343 c 0.43794,0.88013 1.11414,1.88403 1.32031,2.82813 l 2.1836,2.03516 c 1.56565,1.24044 3.54887,2.18431 5.46093,2.74804 3.99199,1.17419 8.57759,1.34242 12.60938,0.26953 l 2.96875,-0.79492 c 2.84818,-0.76878 7.23794,-2.77046 9.66211,-4.45117 2.68816,-1.86187 5.60743,-4.22038 6.70898,-7.42187 1.51918,-4.41568 -0.17923,-10.08844 -1.33398,-14.42579 l -0.88477,-4.6289 -0.76171,-3.72656 -0.70899,-3.92579 8.60156,-2.11914 0.77344,4.28516 0.60938,2.26953 0.56445,1.5332 0.95508,2.55079 c 1.50806,3.42113 4.52167,7.9084 7.72851,9.875 1.30569,0.80107 3.10494,1.34179 4.62891,1.51171 3.61729,0.40439 7.32673,-0.74766 10.77734,-1.67773 l 2.57227,-0.87695 c 4.53272,-1.27068 8.69221,-3.05091 10.13476,-7.95508 1.23797,-4.21493 0.79843,-8.36058 0.33594,-12.62891 l -0.72461,-7.47851 -2.25976,-22.41407 c -0.53253,-4.88584 -1.02015,-9.79811 -2.08399,-14.5996 l -0.34765,-1.96485 -1.63672,-6.11133 -3.13477,-8.33008 -1.75,-5.70703 -0.875,-2.572265 -0.91406,-4.248047 c -0.17411,-0.511037 -0.83638,-2.683283 -0.81445,-3.041015 0.11674,-0.542181 1.12911,-2.227962 1.4707,-2.748047 l -0.0469,-0.175781 -0.4414,-0.25586 c 0.91453,-0.295578 0.97078,-0.811705 1.30859,-1.660156 0.53857,-1.349511 1.04029,-2.861506 1.33203,-4.28711 0.84405,-4.120611 -0.007,-6.873589 -1.75,-10.572265 l -2.43359,-4.587891 c -0.66847,-1.056026 -2.2281,-3.788287 -3.35547,-4.154297 -0.30644,-1.038882 -1.25637,-1.742768 -2.03516,-2.449218 -2.02072,-1.835271 -4.28826,-3.193006 -6.72461,-4.400391 -0.92196,-0.458491 -2.09432,-1.271671 -3.12695,-1.193359 l 0.0469,0.173828 -0.22071,-0.126953 0.17383,-0.04687 c -0.74801,-0.856936 -1.78567,-1.201489 -2.61133,-2.138672 -0.75865,-0.861566 -0.6236,-1.218845 -1.04883,-2.121094 -0.32827,-0.694299 -1.06156,-1.782876 -1.54492,-2.392578 -2.54568,-3.221692 -6.89426,-5.942613 -10.60547,-7.654297 l -4.19726,-1.693359 c -0.92659,-0.343098 -1.55781,-0.683505 -2.54297,-0.414063 -0.46366,-0.871378 -1.9497,-1.027391 -2.81836,-0.742187 l 0.0469,0.173828 -0.22266,-0.126953 0.17578,-0.04687 c -0.0692,-0.125518 -0.006,-0.179657 -0.23828,-0.347657 -0.28635,-0.209605 -2.56733,-0.653667 -3.04297,-0.724609 l -7.33398,-0.824219 c -1.12968,-0.06036 -2.44029,-0.219911 -3.48829,0.248047 z M 83.650391,50.490234 c 0.03668,-0.01893 0.07213,-0.04158 0.109375,-0.05859 l -0.0078,-0.03125 -0.175781,0.04687 z m 0.841797,-0.84375 c 0.04556,-0.01532 0.111078,-0.03151 0.166015,-0.04687 v -0.0039 l -0.173828,0.04687 z m 36.306642,-12.541015 0.0469,0.173828 -0.2207,-0.126953 z m 3.37695,0.03125 0.0469,0.173828 -0.22071,-0.126953 z m 1.31641,0.02148 0.0469,0.173828 -0.22265,-0.126953 z m -5.34571,0.308594 0.0469,0.173828 -0.2207,-0.126953 z m 11.89063,0.369141 0.0469,0.175781 -0.22265,-0.128907 z m 0.39453,0.08203 0.0469,0.173828 -0.22071,-0.126953 z m 0.39648,0.08008 0.0469,0.175781 -0.2207,-0.128906 z m 0.39649,0.08203 0.0469,0.173828 -0.2207,-0.126953 z m 1.98047,0.404297 0.0469,0.175781 -0.22265,-0.128906 z m -1.66602,0.07227 0.0469,0.175781 -0.22071,-0.128906 z m 3.47071,0.380859 0.0469,0.173828 -0.2207,-0.126953 z m 0.79296,0.162109 0.0449,0.173829 -0.22071,-0.126954 z m 0.61719,0.208985 0.0469,0.173828 -0.22266,-0.126953 z m 1.0586,0.46289 0.0469,0.175782 -0.2207,-0.128907 z m -0.52344,0.140625 0.0469,0.175782 -0.2207,-0.128907 z m 3.16797,0.648438 0.0469,0.175781 -0.2207,-0.128906 z m 0.39648,0.08203 0.0469,0.173828 -0.22071,-0.126953 z m 1.06055,0.464844 0.0469,0.173828 -0.22265,-0.126953 z m -0.082,0.394531 0.0469,0.175781 -0.2207,-0.128906 z m -45.644534,0.06641 0.04687,0.175782 -0.220703,-0.128907 z m 48.068364,0.595703 0.0469,0.173829 -0.22266,-0.126953 z m -0.082,0.394532 0.0469,0.175781 -0.2207,-0.128906 z m 2.24805,0.708984 0.0469,0.173828 0.17578,-0.04687 0.0469,0.175781 0.17383,-0.04687 0.0469,0.173828 -0.2207,-0.126954 -0.22265,-0.128906 -0.22071,-0.126953 z m 0.93359,0.685547 0.0469,0.173828 L 148.8457,44 Z m 0.39454,0.08008 0.0469,0.175781 -0.2207,-0.128906 z m 0.49023,0.431641 0.0469,0.173828 -0.2207,-0.126953 z m -31.82227,0.666015 0.0469,0.175782 -0.22266,-0.128907 z m 3.92969,0.0098 c 1.31096,-0.03494 3.05936,0.01006 3.70899,0.564453 1.17382,-0.417456 1.73204,-0.03077 2.86718,0.22461 2.37374,0.533605 1.33237,-0.0893 4.12305,1.015624 0.73673,0.291039 1.70678,0.234044 2.03711,1.019532 l 1.43164,-0.945313 -0.19726,1.363281 1.31054,0.125 c 0.50517,0.132258 0.89865,0.47761 1.37305,0.683594 l 4.9375,2.462891 c 1.01465,0.469209 2.58423,0.818743 3.24805,1.675781 -1.65585,1.321421 -1.6087,0.622947 -2.90235,1.033203 l -7.65429,2.169922 -3.01563,0.619141 -9.42773,2.527344 -3.60743,1.203124 -1.14648,0.611329 -5.58008,2.220703 c -0.77714,0.382295 -0.86168,0.612147 -1.26367,0.878906 l -1.39648,0.373047 -1.25391,0.90625 c -1.06667,0.635769 -3.10001,1.814015 -3.94727,2.667969 l -0.85351,1.132812 c -0.29129,0.330694 -0.54287,0.479949 -0.81836,0.890625 -1.14549,1.710508 -2.21562,5.566824 -2.45313,7.634766 l -0.004,1.871093 c -0.0247,1.507492 -0.19314,3.555455 0.30078,4.972657 -0.17004,0.657524 0.39862,3.546955 0.59765,4.332031 l 1.4043,5.238281 1.06836,2.707031 1.32031,3.203129 0.81641,1.27734 1.10156,2.13086 c 0.69274,1.0907 2.49487,3.02503 3.45313,3.94727 0.64805,0.62358 0.88488,1.07579 1.73632,1.69726 l 3.58204,2.00781 2.31054,0.94336 c 1.6289,0.6733 3.46117,1.63051 5.2793,1.25 l -0.0352,0.57032 4.96485,0.36523 c 0.89177,0.0455 1.11773,-0.19843 1.77148,-0.25195 l 0.94727,0.0664 1.6914,-0.11132 c 4.68808,-0.58619 9.22884,-1.95323 13.6211,-3.6504 l 2.39453,-0.84179 3.50586,-1.58203 c 2.83617,-1.16979 4.60639,-1.93193 7.30859,-3.45508 0.75624,-0.42533 1.7585,-0.55987 2.29102,-1.22656 1.27965,-0.22499 1.43216,-0.76826 2.45703,-1.3086 0.6441,-0.34101 1.35154,-0.4307 2.33789,-1.04492 0.5806,-0.36144 1.40814,-1.13322 2.11914,-1.04297 0.7536,0.0956 0.98321,0.79271 1.16406,1.41797 l 1.10938,3.44531 0.5625,2.09571 0.90234,2.56445 0.46875,1.74609 c 0.3442,1.17287 0.62613,1.06623 1.11719,2.88282 l 1.16992,4.36523 0.82617,2.21094 0.95313,4.42383 0.69726,2.05859 0.43164,2.13086 0.77539,3.34765 0.16211,1.45313 0.44532,2.1582 0.21289,3.6543 0.39062,2.88867 -0.0898,1.70899 0.39648,1.91992 c 0.0501,0.63409 -0.21943,0.81916 -0.12109,2.31055 l 0.32031,3.4707 0.0684,2.41406 0.22656,1.43555 -0.17578,1.54492 c -0.0748,1.6276 -0.0422,5.74315 0.34766,7.20508 l 1.07617,4.01758 0.63672,1.88671 1.06055,4.95508 c 0.20077,1.37785 0.47773,1.93844 -0.22657,3.33985 -0.29657,0.59036 -2.19534,1.98323 -2.80664,2.29297 l -1.39844,0.375 c -2.62877,0.98696 -4.89463,1.6412 -7.68164,2.05859 l -2.49414,0.4707 c -0.76544,0.0348 -3.23992,-0.75685 -3.88867,-1.1875 -1.48733,-0.99007 -1.90797,-2.00455 -2.66797,-3.54883 -0.4495,-0.91633 -1.19036,-2.39387 -1.40625,-3.36718 -0.24143,-1.08251 0.11906,-0.90265 -0.36133,-2.70899 l -0.88867,-3.31836 c -0.18682,-0.70413 -0.63058,-2.17547 -0.31836,-2.82617 0.43895,-0.9111 1.16928,-1.15788 1.91211,-1.70312 l 2.45703,-1.97657 2.26368,-2.05273 0.83789,-1.0625 1.76562,-1.73242 1.33594,-2.06055 c -2.23965,0.19028 -1.47609,0.55521 -3.27148,1.0625 l -3.14258,0.8418 -5.14453,1.7539 -3.66602,0.98243 -3.73437,0.73046 -2.02735,0.0879 -3.39844,0.61329 -1.67578,0.0332 c -1.15918,0.0879 -1.78383,0.2924 -2.85937,0.5039 -0.57951,0.11411 -0.82671,0.0698 -1.42578,0.27149 -1.79901,0.60555 -3.16291,0.49157 -4.75391,1.81055 -0.67423,0.55682 -1.7887,2.12954 -2.02734,2.95703 -0.11638,0.40361 -0.0811,0.89488 -0.0898,1.3164 -0.0375,2.12291 0.0226,2.48598 0.54688,4.53321 l 0.69336,3.93164 1.35156,3.75195 2.66797,9.95508 c 0.16482,0.5734 0.35074,1.18813 0.30078,1.79101 -0.0447,0.57342 -1.04141,2.95391 -1.37109,3.42774 -0.41104,0.58922 -1.98894,2.18835 -2.62305,2.60156 l -1.96094,1.06055 c -2.50419,1.27733 -1.94262,1.00356 -4.61328,1.63867 l -1.22266,0.32812 -2.55468,0.24415 c -3.32986,0.52168 -2.3509,0.49407 -5.71289,0.33007 -0.82679,-0.0405 -1.29292,0.0306 -2.125,-0.24609 -0.88718,-0.29376 -2.6966,-1.48264 -3.27149,-2.18945 -0.4289,-0.52511 -1.91421,-3.95466 -2.10742,-4.67578 -0.19932,-0.74383 -0.0912,-1.21077 -0.54883,-2.66016 l -1.01367,-2.53516 -1.46875,-4.66015 c -0.3563,-1.26693 -0.52229,-1.11936 -0.89453,-2.00586 l -0.6543,-2.44531 -1.62695,-5.17774 -0.97656,-2.73242 -1.35157,-4.69141 -1.57226,-4.44336 -0.46875,-1.74609 -0.63477,-1.70117 -0.83398,-2.39649 -0.373049,-1.39062 c -0.441668,-1.04756 -0.333319,-0.15742 -0.841797,-2.02735 l -0.28125,-1.04687 -1.503906,-4.65039 -0.835938,-2.39649 -0.46875,-1.74609 -0.677734,-1.87695 -0.492188,-2.48828 -1.371094,-3.74805 -0.513672,-1.92188 -0.970703,-2.92187 -1.589843,-5.93555 -1.111328,-3.44531 -0.308594,-1.78906 c -0.193327,-0.98684 -0.474378,-1.51602 -0.783203,-2.41016 l -0.34375,-1.7793 -0.419922,-1.57226 -0.46875,-1.7461 -0.654297,-2.44335 -0.185547,-1.26172 -0.279297,-1.04688 -0.617187,-3.20312 c -0.45221,-1.70161 -0.530923,-3.48654 -0.734375,-5.23047 l -0.398438,-2.146487 0.0293,-1.652344 -0.53125,-5.318359 -0.01172,-2.615235 -0.279297,-2.154297 0.002,-1.158203 -0.25,-1.974609 -0.09375,-2.96875 -0.34375,-4.025391 -0.08398,-3.533203 0.181641,-1.357422 -0.125,-1.433593 0.789062,-4.171876 c 0.202625,-1.066733 0.02315,-1.460446 0.433594,-2.736328 0.299539,-0.935505 0.523792,-1.071461 0.865234,-1.808593 0.387096,-0.839199 0.67776,-1.720187 1.19336,-2.50586 0.791285,-1.209494 1.77296,-2.245311 2.787109,-3.265625 1.409114,-1.418086 3.475146,-3.265648 5.240234,-4.193359 l 1.347657,-0.550781 1,-0.660157 L 97.867188,50 l 2.095703,-0.560547 2.871089,-1.158203 5.41211,-1.449219 4.45899,-0.820312 c 1.0481,-0.278982 2.51775,-0.495281 3.60156,-0.529297 l 1.5,0.0098 1.60742,-0.283204 1.49219,-0.02344 c 0.2827,-0.01353 0.67043,-0.03327 1.10742,-0.04492 z m 29.66406,0.345703 0.0469,0.175781 -0.2207,-0.128906 z m -0.52343,0.140625 0.0469,0.175781 -0.22265,-0.128906 z m 0.79101,0.162109 0.0469,0.173829 -0.22071,-0.126953 z m 0.9336,0.685547 0.0469,0.175782 -0.22266,-0.128907 z m -64.148441,0.158203 0.04687,0.175782 -0.220703,-0.128906 z m 64.683591,0.447266 0.0469,0.173828 -0.22071,-0.126953 z m 0.66406,0.382813 0.0469,0.175781 -0.2207,-0.128906 z m -0.0801,0.396484 0.0469,0.175781 -0.22265,-0.128906 z m -68.257816,0.884766 0.04687,0.175781 -0.220703,-0.128906 z m 69.457036,0.103515 0.0469,0.175782 -0.2207,-0.128907 z m -69.048832,0.722656 0.04687,0.175782 -0.220703,-0.128906 z m -0.919922,0.06055 0.04687,0.173829 -0.220703,-0.126954 z m -0.873047,0.232422 0.04687,0.175781 -0.220703,-0.128906 z m 62.078121,1.894531 0.0469,0.173829 -0.2207,-0.126953 z m -63.798824,0.06445 0.04687,0.173828 -0.220703,-0.126953 z m -0.08008,0.396484 0.04687,0.173828 -0.222656,-0.126953 z m -1.6875,1.386719 0.04687,0.175781 -0.220703,-0.128906 z m 0.570312,0.03516 0.04687,0.173828 -0.220703,-0.126953 z m -0.873047,0.234375 0.04687,0.173828 -0.220703,-0.126953 z m -0.126953,0.220703 0.04687,0.173828 -0.222656,-0.126953 z m -0.128906,0.220703 0.04687,0.175782 -0.220703,-0.128907 z m -0.126953,0.222656 0.04687,0.173829 -0.220704,-0.126953 z m -0.382813,0.664063 0.04687,0.173828 L 79.623047,55.25 Z m 0.138672,0.523437 0.04687,0.173829 -0.220703,-0.126953 z m 80.509772,0.136719 0.0469,0.173828 -0.22266,-0.126953 z m -81.207038,0.05078 0.04687,0.173829 -0.222656,-0.126953 z m 83.279298,0.703126 0.0469,0.173828 -0.22071,-0.126954 z m -83.267579,0.04102 0.04687,0.175781 -0.220703,-0.128906 z m 84.201169,0.644531 0.0469,0.175782 -0.22266,-0.128907 z m 1.1875,0.244141 0.0469,0.173828 -0.22266,-0.126953 z m 0.39649,0.08008 0.0469,0.175781 -0.22265,-0.128906 z m 0.66406,0.384766 0.0469,0.173828 -0.22266,-0.126953 z m -0.52344,0.138672 0.0449,0.175781 -0.22071,-0.128906 z m -86.947263,0.279297 0.04687,0.175781 -0.222656,-0.128907 z m 88.228513,0.314453 0.0469,0.173828 -0.22266,-0.126953 z m -88.041013,0.384765 0.04492,0.173828 -0.220703,-0.126953 z m 89.101563,0.08008 0.0449,0.173828 -0.2207,-0.128906 z m -89.800782,0.107422 0.04687,0.173828 -0.220703,-0.128906 z m 90.511722,0.449219 0.0449,0.175781 -0.2207,-0.128906 z m 0.39453,0.08203 0.0469,0.173828 -0.22071,-0.126953 z m -91.685549,0.05078 0.04687,0.175781 -0.222656,-0.128907 z m 92.128909,0.205078 0.0469,0.173828 -0.2207,-0.126953 z m -92.257815,0.01563 0.04687,0.175781 -0.220703,-0.128906 z m 91.558595,0.169921 0.0469,0.175782 -0.22071,-0.128906 z m -0.74414,0.01367 0.0469,0.173828 -0.22266,-0.126953 z m 1.31641,0.02148 0.0449,0.173828 -0.22071,-0.126953 z m -91.861334,0.09766 0.04687,0.175781 -0.222656,-0.128906 z m -0.08203,0.396484 0.04687,0.173829 -0.220703,-0.126954 z m 72.800784,0.705079 0.0469,0.173828 -0.2207,-0.126954 z m 3.99414,0.240234 0.0469,0.173828 -0.2207,-0.126953 z m -4.64649,0.11914 0.0469,0.175782 -0.34766,0.09375 c 1.34483,0.12994 4.1331,0.207659 5.39063,-0.134766 l -0.25586,0.44336 1.04687,-0.28125 1.41016,0.371093 c 0.2957,0.454035 0.51085,0.405006 1.01367,0.291016 0.60574,0.403049 0.67994,0.453941 1.40821,0.371094 0.55487,0.611119 1.71737,1.3189 2.56445,1.183593 l -0.082,0.396485 c 0.59523,-0.01352 1.05637,0.409282 1.55664,0.71875 0.85108,0.529068 2.0996,1.514858 3.10351,1.96289 l 0.16407,-0.04492 0.0351,0.134765 c 0.14276,0.05472 0.28016,0.0963 0.40821,0.121094 l 2.08203,2.623047 2.05273,3.380859 1.35547,3.378906 0.50977,3.232422 c -0.69303,1.108309 -0.87467,2.949227 -1.99024,4.771485 -0.94436,1.543139 -2.14387,2.928211 -3.4668,4.175781 l 0.16993,-0.04492 0.0469,0.175781 -0.2207,-0.126953 c -0.0918,0.08653 -0.18243,0.174587 -0.27539,0.259766 l 0.14648,-0.03906 0.0469,0.173828 -0.21094,-0.11914 c -0.44769,0.409504 -0.90612,0.804688 -1.375,1.183594 l -2.17383,1.667968 -3.80859,2.546875 c -0.47942,0.278177 -1.44638,0.704849 -1.5293,1.275391 -1.4075,0.236783 -2.42372,1.131941 -3.61719,1.867187 l -4.11133,2.121086 -6.10937,2.3379 -2.14453,0.38085 -1.39649,0.375 c -1.87576,0.29114 -5.31858,0.45781 -7.20507,0.34571 -4.08333,-0.24395 -8.85641,-1.09689 -12.45313,-3.09375 -2.133,-1.185739 -2.56292,-1.301648 -4.5332,-2.927733 -0.47626,-0.394519 -1.3728,-1.499557 -1.88672,-1.552734 l -0.0117,-0.744141 -0.30273,0.267578 c -0.0529,-0.197563 -0.11743,-0.377572 -0.1875,-0.550781 l -0.17579,-0.09961 0.11719,-0.03125 c -0.45254,-1.035883 -1.17265,-1.825012 -1.76367,-4.019531 -1.14577,-4.248068 -0.81299,-3.229113 -1.21289,-7.347656 -0.0858,-0.879035 -0.18862,-2.322195 -0.0879,-3.189453 0.12896,-1.118117 0.49984,-2.64701 0.99805,-3.658203 0.42909,-0.871038 1.08061,-1.498337 1.29687,-2.353516 l 0.57031,0.03516 -0.26757,-0.302734 c 0.92647,-0.237018 2.18849,-1.447022 3.0039,-2.056641 l 4.01563,-2.474609 2.86914,-1.164063 2.69922,-1.101562 1.17187,-0.519531 1.57031,-0.421875 2.5918,-0.806641 2.57227,-0.876953 c 2.07128,-0.581174 4.21849,-1.148729 6.35546,-1.421875 l 1.78711,-0.478516 c 0.20755,0.06229 0.21144,0.237145 0.20313,0.226563 L 147.75,62.257812 Z m -35.19531,33.013672 c 0.0192,0.04392 0.0404,0.08591 0.0586,0.13086 l 0.0469,0.02734 -0.0469,-0.173829 z m 52.9043,-5.36914 c 0.006,-0.0053 0.0118,-0.01032 0.0176,-0.01563 l -0.0293,0.0078 z m 0.29297,-0.275391 c 0.001,-0.0013 0.003,-0.0026 0.004,-0.0039 l -0.006,0.002 z m -0.94727,-21.6875 c -0.0641,-0.02458 -0.13274,-0.06018 -0.19922,-0.08984 l -0.01,0.002 0.2207,0.128907 z m 5.53711,-5.181641 0.0469,0.173829 -0.22266,-0.126953 z m -95.320312,0.462891 0.04687,0.173828 -0.220703,-0.126953 z m 82.837892,0.447266 0.0469,0.175781 -0.2207,-0.128906 z m 0.83984,0.33789 0.0469,0.173829 -0.22266,-0.126954 z m -83.57031,0.308594 0.04687,0.175781 -0.222657,-0.128906 z m 96.51953,0.525391 0.0469,0.173828 -0.22266,-0.126953 z m -10.07226,0.826172 0.0469,0.175781 0.17578,-0.04687 0.0449,0.173828 0.17579,-0.04687 0.0469,0.175781 0.17383,-0.04687 0.0469,0.173828 0.17579,-0.04687 0.0469,0.175782 -0.22266,-0.128907 -0.2207,-0.126953 -0.22266,-0.128906 -0.2207,-0.126953 -0.2207,-0.128906 z m -51.33789,0.470703 0.0469,0.173828 -0.22266,-0.128906 z m 16.75585,0.375 0.0469,0.173828 -0.2207,-0.126953 z m 36.35352,0.177734 0.0469,0.173828 0.17382,-0.04687 0.0469,0.175782 -0.2207,-0.128907 -0.22071,-0.126953 z m 10.13086,0.0918 0.0469,0.175781 -0.22266,-0.128906 z m -99.044923,0.527344 0.04687,0.173828 -0.222656,-0.126953 z m 90.859373,0.357422 0.0469,0.173828 -0.22071,-0.126953 z m -91.115232,0.08398 0.04687,0.175781 -0.220703,-0.128906 z m 91.558592,0.169922 0.0469,0.175781 -0.22266,-0.128906 z m -91.685545,0.05273 0.04492,0.173828 -0.220704,-0.126953 z m 93.388675,2.111328 0.0469,0.175782 -0.22265,-0.128907 z m -49.94336,0.0957 0.0469,0.173828 -0.2207,-0.126954 z m 50.25781,0.382812 0.0469,0.173828 -0.22071,-0.128906 z m -51.29297,0.642578 0.0469,0.173828 -0.22071,-0.126953 z m 51.6543,0.0078 0.0469,0.175781 -0.2207,-0.128906 z m -53.7832,1.125 0.0469,0.173828 -0.2207,-0.126953 z m 54.50781,0.177734 0.0469,0.175781 -0.22265,-0.128906 z m -55.36719,0.800781 0.0469,0.173828 -0.22266,-0.126953 z m -39.833985,1.503906 0.04687,0.173829 -0.220703,-0.126953 z m 37.587895,0.59375 0.0469,0.175782 -0.2207,-0.128906 z M 74.757851,76.203152 74.804731,76.37698 74.583984,76.25 Z m 105.554689,0.724609 0.0469,0.173828 -0.22071,-0.126953 z m -105.529298,0.765625 0.04687,0.175782 -0.222656,-0.128907 z m 27.423828,1.074219 0.0469,0.173828 -0.22266,-0.126953 z m 8.60547,0.6875 0.0469,0.175781 -0.22266,-0.128906 z m 0.0156,3.550781 0.0469,0.175782 -0.2207,-0.128907 z m 69.63282,0.05664 0.0469,0.175781 -0.22265,-0.128906 z m -0.24414,1.189453 0.0469,0.173828 -0.2207,-0.126953 z m -0.0801,0.394531 0.0469,0.175782 -0.22265,-0.128907 z m -0.82617,0.410157 0.0469,0.173828 -0.22265,-0.128907 z m 0.31445,0.476562 0.0469,0.173828 -0.22071,-0.126953 z m -0.12695,0.220703 0.0469,0.175782 -0.22265,-0.128907 z m -104.578129,0.136719 0.04687,0.175781 -0.220703,-0.128906 z m 104.207029,1.273437 0.0469,0.173829 -0.22266,-0.126953 z m -0.46484,1.060547 0.0469,0.173829 -0.22265,-0.126954 z m -0.7207,1.501953 0.0469,0.173829 0.17578,-0.04492 0.0469,0.173828 -0.22266,-0.128906 -0.2207,-0.126953 z m -0.12696,0.220704 0.0469,0.175781 -0.22266,-0.128906 z m -102.341795,0.09961 0.04687,0.175781 -0.220703,-0.128906 z m 102.050785,0.914063 0.0469,0.175781 -0.2207,-0.128907 z m -0.25586,0.443359 0.0469,0.173828 -0.2207,-0.126953 z m -0.12696,0.220703 0.0469,0.175781 -0.2207,-0.128906 z m -0.30273,0.269531 0.0469,0.173828 -0.22071,-0.126953 z m -17.96289,3.501953 0.0469,0.175782 -0.22071,-0.128907 z m -89.458985,2.076172 0.04687,0.173828 -0.222657,-0.126953 z m 99.619145,2.314453 0.0469,0.173829 -0.22265,-0.126954 z m -48.88282,0.558594 0.0469,0.17383 -0.2207,-0.12695 z m 28.86719,0.87305 0.0469,0.17578 -0.22071,-0.12891 z m -22.20312,1.64648 0.0469,0.17383 -0.2207,-0.12695 z m -51.371099,0.24415 c 0.215119,-0.006 0.432068,0.0383 0.658204,0.17773 0.973496,0.60189 0.971497,3.15744 1.242187,4.22461 l 0.712891,3.73828 0.375,1.39648 0.787109,4.65625 1.308594,4.88868 0.734375,2.04882 0.496094,2.48633 0.769531,2.22656 1.544922,5.76368 0.99414,2.91406 2.105469,7.85742 0.419922,1.57227 0.421875,1.57031 0.888672,3.31836 c 0.461378,1.20509 0.65327,1.14302 1.074219,2.70703 l 1.449218,5.41211 0.564454,1.5332 0.888671,3.31641 1.142579,3.4375 1.658203,4.79492 c 0.123174,0.4386 0.410773,1.31854 0.27539,1.74219 -0.236311,0.73145 -2.263849,1.2155 -2.984375,1.41797 -2.092694,0.58505 -4.506133,1.19388 -6.689453,0.875 l -0.998047,-0.23243 -1.3125,-0.1582 c -0.409444,-0.12422 -0.78738,-0.44264 -1.179687,-0.64258 -1.026947,-0.52206 -2.026538,-0.93772 -2.875,-1.77148 -0.432552,-0.42682 -0.557503,-0.77049 -0.853516,-1.26758 l -0.839844,-1.27344 c -0.463585,-0.78716 -1.104046,-2.6093 -1.447265,-3.54101 -0.724377,-1.95618 -0.871668,-1.67984 -1.328125,-3.94922 l -1.476563,-4.4707 -3.882812,-14.49219 -2.994141,-11.17383 -0.546875,-2.84961 L 65.380859,127 c -0.25319,-0.81922 -0.139104,-1.65751 -0.292968,-2.49023 l -0.527344,-1.9668 -0.390625,-5.32617 c -0.240163,-2.96363 -1.048629,-4.86696 0.427734,-7.78711 1.308737,-2.58891 4.189987,-4.26837 6.791016,-5.28907 l 2.96875,-0.79492 c 0.376089,-0.0762 0.729359,-0.22622 1.08789,-0.23632 z m 54.142579,0.32226 0.0469,0.17383 -0.22071,-0.12695 z m 6.80078,0.23633 0.0469,0.17383 -0.22071,-0.12696 z m -28.0625,0.0332 0.0469,0.17578 -0.22071,-0.1289 z m -49.976562,0.66602 0.04687,0.17383 -0.220703,-0.12696 z m -0.302734,0.26758 0.04687,0.17578 -0.220703,-0.12891 z m 0.572266,0.0352 0.04687,0.17383 -0.222657,-0.12695 z m -0.699219,0.1875 0.04687,0.17383 -0.220703,-0.12891 z m 98.197269,1.19727 0.4414,0.25586 c -0.54366,0.39458 -0.81246,0.40259 -1.44336,0.19922 z m -99.0918,0.35156 0.04687,0.17383 -0.222657,-0.12696 z m -0.128907,0.2207 0.04687,0.17578 -0.220703,-0.1289 z m -0.382812,0.66407 0.04687,0.17578 0.173828,-0.0469 0.04687,0.17383 0.175781,-0.0469 0.04687,0.17578 -0.222656,-0.12891 -0.220703,-0.12695 -0.220703,-0.12891 z m -0.126953,0.22265 0.04687,0.17383 -0.222656,-0.12695 z m 7.71875,0.17578 0.572265,0.0352 -0.43164,0.49023 z m -7.230469,0.25391 0.04687,0.17383 -0.220703,-0.12696 z m 124.314451,0.18945 0.0469,0.17383 -0.22266,-0.12695 z m -124.441404,0.0312 0.04687,0.17578 -0.222656,-0.1289 z m 57.197264,1.14258 0.0469,0.17578 -0.22071,-0.1289 z m 67.61914,0.22266 0.0449,0.17382 -0.22071,-0.12695 z m -125.839842,0.40625 0.04687,0.17578 -0.220703,-0.12891 z m 0.314453,0.47656 0.04688,0.17578 -0.220704,-0.12891 z m 0.01367,0.74609 0.04687,0.17383 -0.220703,-0.12695 z m 126.642579,0.5 0.0469,0.17578 -0.22071,-0.1289 z m -119.246094,1.26172 0.04687,0.17383 -0.222656,-0.12695 z m 119.794924,0.0898 0.0469,0.17382 -0.22071,-0.1289 z m -103.640627,3.6289 0.04687,0.17383 -0.220703,-0.12695 z m -23.195313,0.0391 0.04687,0.17383 -0.220703,-0.12695 z m 0.28125,1.04688 0.04687,0.17383 -0.222656,-0.12696 z m -0.115234,0.9668 0.04687,0.17382 -0.220703,-0.12695 z m 0.642578,1.69921 0.04687,0.17383 -0.222656,-0.12695 z m 129.935546,8.60157 0.0469,0.17383 -0.2207,-0.12696 z m 0.99805,7.21679 0.0469,0.17579 -0.22071,-0.12891 z m 0.625,5.82227 0.0469,0.17383 -0.22071,-0.12696 z m -90.251955,12.39258 0.04687,0.17383 -0.220703,-0.12696 z m 91.771485,2.35937 0.0469,0.17383 -0.22071,-0.12695 z m -38.41015,13.09766 0.0469,0.17578 -0.2207,-0.12891 z m -8.28711,2.5957 0.0469,0.17383 -0.22265,-0.12695 z m -73.521491,0.79883 0.04687,0.17383 -0.220703,-0.12695 z m 83.455081,0.65625 0.0469,0.17578 -0.2207,-0.1289 z m -81.134769,1.7168 0.04687,0.17383 -0.220703,-0.12696 z m -0.349609,0.0918 0.04687,0.17579 -0.220703,-0.12891 z m -0.523437,0.14063 0.04687,0.17578 -0.220703,-0.12891 z m 0.267578,0.30273 0.04687,0.17579 -0.220703,-0.12891 z m 82.535157,0.7168 0.0469,0.17383 -0.22071,-0.12695 z m -80.482423,1.35352 0.04687,0.17578 -0.220703,-0.12891 z m 0.314453,0.47656 0.04687,0.17578 -0.220703,-0.12891 z m -0.126953,0.22265 0.04687,0.17383 L 73.855469,179 Z m 117.164063,0.0449 0.0469,0.17578 -0.22266,-0.12891 z m -115.554688,1.76953 0.04687,0.17383 -0.222656,-0.12696 z m 115.126958,1.52734 0.0469,0.17383 -0.2207,-0.12695 z m -113.564458,0.11133 0.04687,0.17578 -0.222656,-0.12891 z m 1.455078,0.54687 0.04687,0.17383 L 78.484375,183 Z m 111.37696,0.0996 0.0469,0.17383 -0.2207,-0.12695 z m -111.900397,0.041 0.04687,0.17383 -0.220703,-0.12696 z m 0.664062,0.38281 0.04687,0.17383 -0.220703,-0.12695 z m 1.28125,0.5918 0.04687,0.17578 -0.220703,-0.12891 z m 77.703125,0.14062 0.0449,0.17383 -0.2207,-0.12695 z m -76.863281,0.19727 0.04687,0.17383 -0.222656,-0.12696 z m 2.851562,0.16992 0.04687,0.17578 -0.220703,-0.1289 z m 5.660157,0.16797 0.04687,0.17578 -0.220704,-0.1289 z m -5.34375,0.30859 0.04687,0.17579 -0.222657,-0.12891 z m 74.861332,0.71485 0.0469,0.17383 0.17383,-0.0469 0.0469,0.17578 0.17382,-0.0469 0.0469,0.17383 -0.2207,-0.12696 -0.22071,-0.1289 -0.22265,-0.12696 z m 0.88476,0.51172 0.0469,0.17382 -0.2207,-0.12695 z m 0.26758,0.30273 0.0469,0.17383 -0.22071,-0.12695 z m -0.74414,0.0117 0.0469,0.17383 -0.22266,-0.12696 z m 1.22461,2.47852 -0.17383,0.0469 0.0469,0.17578 z"
       style="fill:#ffffff;fill-opacity:1;stroke:none;stroke-opacity:1;filter:url(#filter11440)" />
  </g>
</svg>
