<?xml version="1.0" encoding="UTF-8" standalone="no"?>
<!-- Created with Inkscape (http://www.inkscape.org/) -->

<svg
   width="67.733673mm"
   height="67.733673mm"
   viewBox="0 0 67.733673 67.733673"
   version="1.1"
   id="svg883"
   sodipodi:docname="Debian.svg"
   inkscape:version="1.1.1 (3bf5ae0d25, 2021-09-20, custom)"
   inkscape:export-filename="/home/librorum/Documents/GitHub/mint_server/Server_Emotes/BSD.png"
   inkscape:export-xdpi="96"
   inkscape:export-ydpi="96"
   xmlns:inkscape="http://www.inkscape.org/namespaces/inkscape"
   xmlns:sodipodi="http://sodipodi.sourceforge.net/DTD/sodipodi-0.dtd"
   xmlns="http://www.w3.org/2000/svg"
   xmlns:svg="http://www.w3.org/2000/svg">
  <sodipodi:namedview
     id="namedview885"
     pagecolor="#6e6e6e"
     bordercolor="#666666"
     borderopacity="1.0"
     inkscape:pageshadow="2"
     inkscape:pageopacity="0"
     inkscape:pagecheckerboard="true"
     inkscape:document-units="mm"
     showgrid="false"
     fit-margin-top="0"
     fit-margin-left="0"
     fit-margin-right="0"
     fit-margin-bottom="0"
     inkscape:zoom="2.8495473"
     inkscape:cx="102.82335"
     inkscape:cy="157.39342"
     inkscape:window-width="1920"
     inkscape:window-height="1080"
     inkscape:window-x="1920"
     inkscape:window-y="0"
     inkscape:window-maximized="1"
     inkscape:current-layer="layer5" />
  <defs
     id="defs880">
    <filter
       style="color-interpolation-filters:sRGB"
       inkscape:label="Drop Shadow"
       id="filter116945"
       x="-0.030022849"
       y="-0.035191899"
       width="1.0850647"
       height="1.0997104">
      <feFlood
         flood-opacity="1"
         flood-color="rgb(0,0,0)"
         result="flood"
         id="feFlood116935" />
      <feComposite
         in="flood"
         in2="SourceGraphic"
         operator="in"
         result="composite1"
         id="feComposite116937" />
      <feGaussianBlur
         in="composite1"
         stdDeviation="2"
         result="blur"
         id="feGaussianBlur116939" />
      <feOffset
         dx="4"
         dy="4"
         result="offset"
         id="feOffset116941" />
      <feComposite
         in="SourceGraphic"
         in2="offset"
         operator="over"
         result="composite2"
         id="feComposite116943" />
    </filter>
    <linearGradient
       id="lg"
       y1="9.90843"
       x2="25.431995"
       x1="34.76569"
       y2="28.426884"
       gradientTransform="scale(0.9319351,1.0730361)"
       gradientUnits="userSpaceOnUse">
      <stop
         stop-color="#fff"
         stop-opacity="0"
         offset="0"
         id="stop1046" />
      <stop
         stop-color="#fff"
         stop-opacity=".27451"
         offset="1"
         id="stop1048" />
    </linearGradient>
    <filter
       style="color-interpolation-filters:sRGB;"
       inkscape:label="Drop Shadow"
       id="filter3775"
       x="-0.075"
       y="-0.074999895"
       width="1.165625"
       height="1.1656248">
      <feFlood
         flood-opacity="1"
         flood-color="rgb(0,0,0)"
         result="flood"
         id="feFlood3765" />
      <feComposite
         in="flood"
         in2="SourceGraphic"
         operator="in"
         result="composite1"
         id="feComposite3767" />
      <feGaussianBlur
         in="composite1"
         stdDeviation="2"
         result="blur"
         id="feGaussianBlur3769" />
      <feOffset
         dx="1"
         dy="1"
         result="offset"
         id="feOffset3771" />
      <feComposite
         in="SourceGraphic"
         in2="offset"
         operator="over"
         result="composite2"
         id="feComposite3773" />
    </filter>
    <filter
       style="color-interpolation-filters:sRGB;"
       inkscape:label="Drop Shadow"
       id="filter5280"
       x="-0.018836849"
       y="-0.019132093"
       width="1.041598"
       height="1.04225">
      <feFlood
         flood-opacity="1"
         flood-color="rgb(0,0,0)"
         result="flood"
         id="feFlood5270" />
      <feComposite
         in="flood"
         in2="SourceGraphic"
         operator="in"
         result="composite1"
         id="feComposite5272" />
      <feGaussianBlur
         in="composite1"
         stdDeviation="2"
         result="blur"
         id="feGaussianBlur5274" />
      <feOffset
         dx="1"
         dy="1"
         result="offset"
         id="feOffset5276" />
      <feComposite
         in="SourceGraphic"
         in2="offset"
         operator="over"
         result="composite2"
         id="feComposite5278" />
    </filter>
    <filter
       style="color-interpolation-filters:sRGB;"
       inkscape:label="Drop Shadow"
       id="filter5476"
       x="-0.02400048"
       y="-0.019281212"
       width="1.0530011"
       height="1.0425793">
      <feFlood
         flood-opacity="1"
         flood-color="rgb(0,0,0)"
         result="flood"
         id="feFlood5466" />
      <feComposite
         in="flood"
         in2="SourceGraphic"
         operator="in"
         result="composite1"
         id="feComposite5468" />
      <feGaussianBlur
         in="composite1"
         stdDeviation="2"
         result="blur"
         id="feGaussianBlur5470" />
      <feOffset
         dx="1"
         dy="1"
         result="offset"
         id="feOffset5472" />
      <feComposite
         in="SourceGraphic"
         in2="offset"
         operator="over"
         result="composite2"
         id="feComposite5474" />
    </filter>
  </defs>
  <g
     inkscape:label="Logo"
     inkscape:groupmode="layer"
     id="layer1"
     style="display:inline"
     transform="translate(-108.62449,-139.52623)"
     sodipodi:insensitive="true">
    <g
       id="g854"
       transform="matrix(0.26458333,0,0,0.26458333,108.62466,139.5264)"
       style="display:inline;fill:#d70751;fill-opacity:1">
      <g
         id="layer3"
         style="fill:#d70751;fill-opacity:1">
        <path
           id="path32"
           style="fill:#d70751;fill-opacity:1;stroke:#ffffff;stroke-width:20.0013;stroke-linecap:round;stroke-linejoin:bevel;stroke-miterlimit:4;stroke-dasharray:none;stroke-dashoffset:200.013;stroke-opacity:1"
           d="M 128,10 A 118,118 0 0 0 10,128 118,118 0 0 0 128,246 118,118 0 0 0 246,128 118,118 0 0 0 128,10 Z" />
      </g>
      <g
         id="g923"
         style="fill:#d70751;fill-opacity:1;stroke:#ffffff;stroke-opacity:1" />
    </g>
  </g>
  <g
     inkscape:groupmode="layer"
     id="layer5"
     inkscape:label="Logo 1">
    <g
       fill="#d70751"
       id="g5409"
       transform="matrix(0.20251781,-0.05426448,0.05426448,0.20251781,20.574415,25.510307)"
       style="fill:#ffffff;filter:url(#filter5476)">
      <path
         d="m 64.525,62.053 c -4.125,0.058 0.78,2.125 6.165,2.954 1.488,-1.161 2.838,-2.336 4.04,-3.479 -3.354,0.821 -6.765,0.838 -10.205,0.525"
         id="path5385"
         style="fill:#ffffff" />
      <path
         d="m 86.665,56.533 c 2.457,-3.389 4.246,-7.102 4.878,-10.939 -0.551,2.736 -2.035,5.099 -3.435,7.592 -7.711,4.854 -0.726,-2.883 -0.004,-5.824 -8.29,10.436 -1.138,6.257 -1.439,9.171"
         id="path5387"
         style="fill:#ffffff" />
      <path
         d="m 94.839,35.268 c 0.497,-7.428 -1.462,-5.08 -2.121,-2.245 0.766,0.4 1.377,5.237 2.121,2.245"
         id="path5389"
         style="fill:#ffffff" />
      <path
         d="m 48.883,-66.264 c 2.201,0.395 4.757,0.698 4.398,1.224 2.407,-0.528 2.954,-1.015 -4.398,-1.224"
         id="path5391"
         style="fill:#ffffff" />
      <path
         d="m 53.281,-65.04 -1.556,0.32 1.448,-0.127 0.108,-0.193"
         id="path5393"
         style="fill:#ffffff" />
      <path
         d="m 121.93,38.085 c 0.247,6.671 -1.95,9.907 -3.932,15.637 l -3.564,1.781 c -2.919,5.666 0.282,3.598 -1.807,8.105 -4.556,4.049 -13.823,12.67 -16.789,13.457 -2.163,-0.047 1.469,-2.554 1.943,-3.537 -6.097,4.188 -4.894,6.285 -14.217,8.83 L 83.291,81.751 C 60.29,92.569 28.344,71.129 28.765,41.875 28.519,43.732 28.067,43.268 27.557,44.019 26.371,28.967 34.509,13.849 48.232,7.676 61.659,1.03 77.395,3.758 87.012,12.72 81.73,5.8 71.217,-1.534 58.757,-0.848 46.549,-0.655 35.132,7.102 31.321,15.521 c -6.253,3.938 -6.979,15.177 -9.704,17.233 -3.665,26.943 6.896,38.583 24.762,52.275 2.812,1.896 0.792,2.184 1.173,3.627 C 41.616,85.877 36.18,81.68 31.711,76.542 c 2.372,3.473 4.931,6.847 8.239,9.499 -5.596,-1.897 -13.074,-13.563 -15.256,-14.038 9.647,17.274 39.142,30.295 54.587,23.836 -7.146,0.263 -16.226,0.146 -24.256,-2.822 -3.371,-1.734 -7.958,-5.331 -7.14,-6.003 21.079,7.875 42.854,5.965 61.09,-8.655 4.641,-3.614 9.709,-9.761 11.173,-9.846 -2.206,3.317 0.377,1.596 -1.318,4.523 4.625,-7.456 -2.008,-3.035 4.779,-12.877 l 2.507,3.453 c -0.931,-6.188 7.687,-13.704 6.813,-23.492 1.975,-2.994 2.206,3.22 0.107,10.107 2.912,-7.64 0.767,-8.867 1.516,-15.171 0.81,2.118 1.867,4.37 2.412,6.606 -1.895,-7.382 1.948,-12.433 2.898,-16.724 -0.937,-0.415 -2.928,3.264 -3.383,-5.457 0.065,-3.788 1.054,-1.985 1.435,-2.917 -0.744,-0.427 -2.694,-3.33 -3.88,-8.9 0.86,-1.308 2.3,3.393 3.47,3.586 -0.753,-4.429 -2.049,-7.805 -2.103,-11.202 -3.421,-7.149 -1.211,0.953 -3.985,-3.069 -3.641,-11.357 3.021,-2.637 3.47,-7.796 5.52,7.995 8.667,20.387 10.11,25.519 -1.103,-6.258 -2.883,-12.32 -5.058,-18.185 1.677,0.705 -2.699,-12.875 2.18,-3.882 -5.21,-19.172 -22.302,-37.087 -38.025,-45.493 1.924,1.76 4.354,3.971 3.481,4.317 -7.819,-4.656 -6.444,-5.018 -7.565,-6.985 -6.369,-2.591 -6.788,0.208 -11.007,0.004 -12.005,-6.368 -14.318,-5.69 -25.368,-9.681 l 0.502,2.349 c -7.953,-2.649 -9.265,1.005 -17.862,0.009 -0.523,-0.409 2.753,-1.479 5.452,-1.871 -7.69,1.015 -7.329,-1.515 -14.854,0.279 1.855,-1.301 3.815,-2.162 5.793,-3.269 -6.271,0.381 -14.971,3.649 -12.286,0.677 -10.235,4.569 -28.403,10.976 -38.597,20.535 l -0.321,-2.142 c -4.672,5.608 -20.371,16.748 -21.622,24.011 l -1.249,0.291 c -2.431,4.116 -4.004,8.781 -5.932,13.016 -3.18,5.417 -4.661,2.085 -4.208,2.934 -6.253,12.679 -9.359,23.332 -12.043,32.069 1.912,2.858 0.046,17.206 0.769,28.688 -3.141,56.709 39.8,111.77 86.737,124.48 6.88,2.459 17.11,2.364 25.813,2.618 -10.268,-2.937 -11.595,-1.556 -21.595,-5.044 -7.215,-3.398 -8.797,-7.277 -13.907,-11.711 l 2.022,3.573 c -10.021,-3.547 -5.829,-4.39 -13.982,-6.972 l 2.16,-2.82 C 11.175,156.251 5.82,151.022 4.355,148.126 l -3.553,0.14 c -4.27,-5.269 -6.545,-9.063 -6.379,-12.005 l -1.148,2.047 c -1.301,-2.235 -15.709,-19.759 -8.234,-15.679 -1.389,-1.271 -3.235,-2.067 -5.237,-5.703 l 1.522,-1.739 c -3.597,-4.627 -6.621,-10.562 -6.391,-12.536 1.919,2.592 3.25,3.075 4.568,3.52 -9.083,-22.539 -9.593,-1.242 -16.474,-22.942 l 1.456,-0.116 c -1.116,-1.682 -1.793,-3.506 -2.69,-5.298 l 0.633,-6.313 C -44.113,63.94 -39.401,39.351 -38.459,25.865 -37.804,20.38 -33,14.543 -29.345,5.388 l -2.227,-0.384 c 4.256,-7.423 24.301,-29.814 33.583,-28.662 4.499,-5.649 -0.892,-0.02 -1.772,-1.443 9.878,-10.223 12.984,-7.222 19.65,-9.061 7.19,-4.268 -6.17,1.664 -2.761,-1.628 12.427,-3.174 8.808,-7.216 25.021,-8.828 1.71,0.973 -3.969,1.503 -5.395,2.766 10.354,-5.066 32.769,-3.914 47.326,2.811 16.895,7.896 35.873,31.232 36.622,53.189 l 0.852,0.229 c -0.431,8.729 1.336,18.822 -1.727,28.094 l 2.1,-4.385"
         id="path5395"
         style="fill:#ffffff" />
      <path
         d="m 19.5,67.715 -0.578,2.893 c 2.71,3.683 4.861,7.673 8.323,10.552 -2.49,-4.863 -4.341,-6.872 -7.745,-13.445"
         id="path5397"
         style="fill:#ffffff" />
      <path
         d="m 25.909,67.464 c -1.435,-1.587 -2.284,-3.497 -3.235,-5.4 0.909,3.345 2.771,6.219 4.504,9.143 l -1.269,-3.743"
         id="path5399"
         style="fill:#ffffff" />
      <path
         d="m 139.32,42.814 -0.605,1.52 c -1.111,7.892 -3.511,15.701 -7.189,22.941 4.06,-7.639 6.69,-15.995 7.79,-24.461"
         id="path5401"
         style="fill:#ffffff" />
      <path
         d="m 49.698,-68.243 c 2.789,-1.022 6.855,-0.56 9.814,-1.233 -3.855,0.324 -7.693,0.517 -11.484,1.005 l 1.67,0.228"
         id="path5403"
         style="fill:#ffffff" />
      <path
         d="m -48.219,-16.176 c 0.642,5.951 -4.477,8.26 1.134,4.337 3.007,-6.773 -1.175,-1.87 -1.134,-4.337"
         id="path5405"
         style="fill:#ffffff" />
      <path
         d="m -54.812,11.362 c 1.292,-3.967 1.526,-6.349 2.02,-8.645 -3.571,4.566 -1.643,5.539 -2.02,8.645"
         id="path5407"
         style="fill:#ffffff" />
    </g>
  </g>
</svg>
