<?xml version="1.0" encoding="UTF-8" standalone="no"?>
<!-- Created with Inkscape (http://www.inkscape.org/) -->

<svg
   width="92.785286mm"
   height="88.095901mm"
   viewBox="0 0 92.785284 88.095903"
   version="1.1"
   id="svg5"
   sodipodi:docname="mint_logo_christmas.svg"
   inkscape:version="1.1.1 (3bf5ae0d25, 2021-09-20, custom)"
   inkscape:export-filename="/home/librorum/Downloads/mint_logo_discord.png"
   inkscape:export-xdpi="96"
   inkscape:export-ydpi="96"
   xmlns:inkscape="http://www.inkscape.org/namespaces/inkscape"
   xmlns:sodipodi="http://sodipodi.sourceforge.net/DTD/sodipodi-0.dtd"
   xmlns="http://www.w3.org/2000/svg"
   xmlns:svg="http://www.w3.org/2000/svg">
  <sodipodi:namedview
     id="namedview7"
     pagecolor="#ffffff"
     bordercolor="#666666"
     borderopacity="1.0"
     inkscape:pageshadow="2"
     inkscape:pageopacity="0.0"
     inkscape:pagecheckerboard="0"
     inkscape:document-units="mm"
     showgrid="false"
     fit-margin-top="0"
     fit-margin-left="0"
     fit-margin-right="0"
     fit-margin-bottom="0"
     inkscape:zoom="1"
     inkscape:cx="174"
     inkscape:cy="208"
     inkscape:window-width="1920"
     inkscape:window-height="1080"
     inkscape:window-x="1920"
     inkscape:window-y="0"
     inkscape:window-maximized="1"
     inkscape:current-layer="layer6"
     showguides="true"
     inkscape:guide-bbox="true">
    <inkscape:grid
       type="xygrid"
       id="grid9725"
       originx="15.730503"
       originy="20.362233" />
    <sodipodi:guide
       position="287.03994,33.906343"
       orientation="0,-1"
       id="guide20541" />
    <sodipodi:guide
       position="302.34039,30.692005"
       orientation="1,0"
       id="guide20666" />
  </sodipodi:namedview>
  <defs
     id="defs2">
    <linearGradient
       id="linearGradient1102"
       inkscape:swatch="solid">
      <stop
         style="stop-color:#000000;stop-opacity:1;"
         offset="0"
         id="stop1100" />
    </linearGradient>
    <linearGradient
       id="linearGradient59240"
       inkscape:swatch="solid">
      <stop
         style="stop-color:#376326;stop-opacity:1;"
         offset="0"
         id="stop59238" />
    </linearGradient>
    <filter
       style="color-interpolation-filters:sRGB"
       inkscape:label="Drop Shadow"
       id="filter116945"
       x="-0.030022848"
       y="-0.035191897"
       width="1.0850646"
       height="1.0997103">
      <feFlood
         flood-opacity="1"
         flood-color="rgb(0,0,0)"
         result="flood"
         id="feFlood116935" />
      <feComposite
         in="flood"
         in2="SourceGraphic"
         operator="in"
         result="composite1"
         id="feComposite116937" />
      <feGaussianBlur
         in="composite1"
         stdDeviation="2"
         result="blur"
         id="feGaussianBlur116939" />
      <feOffset
         dx="4"
         dy="4"
         result="offset"
         id="feOffset116941" />
      <feComposite
         in="SourceGraphic"
         in2="offset"
         operator="over"
         result="composite2"
         id="feComposite116943" />
    </filter>
    <filter
       style="color-interpolation-filters:sRGB"
       inkscape:label="Drop Shadow"
       id="filter116975"
       x="-0.016548399"
       y="-0.13613297"
       width="1.0468872"
       height="1.3857101">
      <feFlood
         flood-opacity="1"
         flood-color="rgb(0,0,0)"
         result="flood"
         id="feFlood116965" />
      <feComposite
         in="flood"
         in2="SourceGraphic"
         operator="in"
         result="composite1"
         id="feComposite116967" />
      <feGaussianBlur
         in="composite1"
         stdDeviation="2"
         result="blur"
         id="feGaussianBlur116969" />
      <feOffset
         dx="4"
         dy="4"
         result="offset"
         id="feOffset116971" />
      <feComposite
         in="SourceGraphic"
         in2="offset"
         operator="over"
         result="composite2"
         id="feComposite116973" />
    </filter>
    <filter
       style="color-interpolation-filters:sRGB"
       inkscape:label="Drop Shadow"
       id="filter116945-3"
       x="-0.060045697"
       y="-0.070383795"
       width="1.1701295"
       height="1.1994208">
      <feFlood
         flood-opacity="1"
         flood-color="rgb(0,0,0)"
         result="flood"
         id="feFlood116935-9" />
      <feComposite
         in="flood"
         in2="SourceGraphic"
         operator="in"
         result="composite1"
         id="feComposite116937-0" />
      <feGaussianBlur
         in="composite1"
         stdDeviation="2"
         result="blur"
         id="feGaussianBlur116939-8" />
      <feOffset
         dx="4"
         dy="4"
         result="offset"
         id="feOffset116941-8" />
      <feComposite
         in="SourceGraphic"
         in2="offset"
         operator="over"
         result="fbSourceGraphic"
         id="feComposite116943-5" />
      <feColorMatrix
         result="fbSourceGraphicAlpha"
         in="fbSourceGraphic"
         values="0 0 0 -1 0 0 0 0 -1 0 0 0 0 -1 0 0 0 0 1 0"
         id="feColorMatrix1334" />
      <feFlood
         id="feFlood1336"
         flood-opacity="1"
         flood-color="rgb(0,0,0)"
         result="flood"
         in="fbSourceGraphic" />
      <feComposite
         in2="fbSourceGraphic"
         id="feComposite1338"
         in="flood"
         operator="out"
         result="composite1" />
      <feGaussianBlur
         id="feGaussianBlur1340"
         in="composite1"
         stdDeviation="2"
         result="blur" />
      <feOffset
         id="feOffset1342"
         dx="4"
         dy="4"
         result="offset" />
      <feComposite
         in2="fbSourceGraphic"
         id="feComposite1344"
         in="offset"
         operator="in"
         result="composite2" />
    </filter>
    <filter
       style="color-interpolation-filters:sRGB"
       inkscape:label="Drop Shadow"
       id="filter116945-5"
       x="-0.030022848"
       y="-0.035191901"
       width="1.0850646"
       height="1.0997103">
      <feFlood
         flood-opacity="1"
         flood-color="rgb(0,0,0)"
         result="flood"
         id="feFlood116935-6" />
      <feComposite
         in="flood"
         in2="SourceGraphic"
         operator="in"
         result="composite1"
         id="feComposite116937-1" />
      <feGaussianBlur
         in="composite1"
         stdDeviation="2"
         result="blur"
         id="feGaussianBlur116939-1" />
      <feOffset
         dx="4"
         dy="4"
         result="offset"
         id="feOffset116941-5" />
      <feComposite
         in="SourceGraphic"
         in2="offset"
         operator="over"
         result="composite2"
         id="feComposite116943-9" />
    </filter>
    <filter
       style="color-interpolation-filters:sRGB"
       inkscape:label="Drop Shadow"
       id="filter116945-8"
       x="-0.030022849"
       y="-0.035191899"
       width="1.0850647"
       height="1.0997104">
      <feFlood
         flood-opacity="1"
         flood-color="rgb(0,0,0)"
         result="flood"
         id="feFlood116935-1" />
      <feComposite
         in="flood"
         in2="SourceGraphic"
         operator="in"
         result="composite1"
         id="feComposite116937-03" />
      <feGaussianBlur
         in="composite1"
         stdDeviation="2"
         result="blur"
         id="feGaussianBlur116939-0" />
      <feOffset
         dx="4"
         dy="4"
         result="offset"
         id="feOffset116941-4" />
      <feComposite
         in="SourceGraphic"
         in2="offset"
         operator="over"
         result="composite2"
         id="feComposite116943-4" />
    </filter>
  </defs>
  <g
     inkscape:label="Logo"
     inkscape:groupmode="layer"
     id="layer1"
     transform="translate(93.953897,-79.625293)"
     style="display:inline">
    <g
       id="g854"
       transform="matrix(0.26458333,0,0,0.26458333,-68.902118,99.987692)">
      <g
         id="layer3">
        <path
           id="path32"
           style="fill:#67b544;fill-opacity:1;stroke:#ffffff;stroke-width:20.0013;stroke-linecap:round;stroke-linejoin:bevel;stroke-miterlimit:4;stroke-dasharray:none;stroke-dashoffset:200.013;stroke-opacity:1"
           d="M 128,10 A 118,118 0 0 0 10,128 118,118 0 0 0 128,246 118,118 0 0 0 246,128 118,118 0 0 0 128,10 Z" />
      </g>
      <g
         id="g923"
         style="fill:#ffffff;fill-opacity:1;stroke:#ffffff;stroke-opacity:1" />
    </g>
  </g>
  <g
     inkscape:groupmode="layer"
     id="layer2"
     inkscape:label="Hat"
     style="opacity:1;mix-blend-mode:normal"
     transform="translate(25.051607,20.362227)">
    <g
       id="layer1-9"
       transform="matrix(0.21117724,0,0,0.21117724,-26.93202,-25.511894)">
      <path
         d="m 234.10295,28.783327 c -28.10056,7.733968 -56.90414,23.114414 -77.16658,38.006479 -20.26243,14.892057 -73.190777,52.416304 -85.274538,64.306944 -11.715979,11.52873 -25.555008,15.55018 -31.610801,29.75626 -2.335424,5.47857 15.83661,22.00519 19.397534,23.721 9.241286,4.45282 24.304529,-3.44276 31.177964,-3.91429 22.307191,-1.53031 45.167011,-4.49872 67.760351,10.79277 -4.18054,4.22051 2.45801,-0.32326 -6.08769,36.69347 -3.01352,13.05342 -9.59873,46.91908 -1.50714,53.3804 8.03941,6.41966 12.94944,-18.60581 20.93693,-14.77435 -0.004,0.006 -0.002,0.0211 -0.005,0.0264 -0.002,0.005 -0.004,0.0222 -0.005,0.0264 4.7e-4,0.004 -0.006,0.0233 -0.005,0.0264 0.003,0.003 0.0211,0.003 0.0249,0.005 0.0243,0.007 0.0777,0.004 0.12879,-0.002 0.015,0.007 0.0346,0.002 0.0497,0.01 0.0565,0.0271 0.1079,0.0591 0.16488,0.0866 l 0.0475,-0.12728 c 3.78138,-0.97727 33.26276,-13.96581 60.17617,-8.74298 15.17141,2.94415 39.36936,-5.30957 53.29004,-9.61521 22.07602,-6.82803 53.06775,-12.99841 72.72796,-13.35072 14.48306,-0.25953 27.58714,-8.45898 41.52062,-9.41484 8.22039,-0.56393 0.59821,-27.06599 0.4283,-29.86559 -0.81659,-13.45508 -17.56507,-34.13032 -26.19103,-52.50369 -8.62596,-18.37338 -23.08213,-41.697 -39.00385,-59.986157 -15.92034,-18.289939 -37.40028,-41.972174 -52.5239,-49.259355 -15.12361,-7.287181 -17.9532,-13.675443 -48.45111,-5.281661 z"
         style="fill:#800000;fill-opacity:1;fill-rule:evenodd;stroke:#000000;stroke-width:0.833495px;stroke-linecap:butt;stroke-linejoin:miter;stroke-opacity:1"
         id="path1309" />
      <path
         d="m 166.95567,93.343683 c -18.23272,4.41659 -33.84758,62.691407 -56.31899,72.821827 -14.697321,6.62576 -54.749039,16.69269 -51.188115,18.4085 9.241286,4.45282 24.304529,-3.44276 31.177964,-3.91429 22.307191,-1.53031 45.167011,-4.49872 67.760351,10.79277 -4.18054,4.22051 2.45801,-0.32326 -6.08769,36.69347 -3.01352,13.05342 -9.59873,46.91908 -1.50714,53.3804 8.03941,6.41966 12.94944,-18.60581 20.93693,-14.77435 -0.004,0.006 -0.002,0.0211 -0.005,0.0264 -0.002,0.005 -0.004,0.0222 -0.005,0.0264 4.7e-4,0.004 -0.006,0.0233 -0.005,0.0264 0.003,0.003 0.0211,0.003 0.0249,0.005 0.0243,0.007 0.0777,0.004 0.12879,-0.002 0.015,0.007 0.0346,0.002 0.0497,0.01 0.0565,0.0271 0.1079,0.0591 0.16488,0.0866 l 0.0475,-0.12728 c 3.78138,-0.97727 33.26276,-13.96581 60.17617,-8.74298 15.17141,2.94415 39.36936,-5.30957 53.29004,-9.61521 22.07602,-6.82803 53.06775,-12.99841 72.72796,-13.35072 14.48306,-0.25953 27.58714,-8.45898 41.52062,-9.41484 8.22039,-0.56393 -51.08531,4.52064 -27.44964,-12.57577 10.48531,-7.58433 -104.98388,15.80767 -149.31404,-34.77677 -43.89537,-50.0883 -37.45534,-89.505577 -56.12656,-84.982777 z"
         style="opacity:0.101124;fill:#0e0000;fill-opacity:1;fill-rule:evenodd;stroke:none;stroke-width:1px;stroke-linecap:butt;stroke-linejoin:miter;stroke-opacity:1"
         id="path5882" />
      <path
         d="m 41.923132,154.63221 c 3.550897,2.3529 27.397959,32.51694 30.215216,30.40575 0.340584,-3.33088 -2.440653,-4.64208 -4.39708,-5.02241 2.619616,-3.32925 3.113447,-6.81056 -1.432527,-7.10965 -5.040198,-0.88997 -10.542525,-1.51433 -5.132485,-6.93595 2.497843,-3.03871 -0.167946,-8.43506 -1.701721,-11.17993 -4.029518,-2.17638 -7.065984,-6.11435 -8.717627,-8.79126"
         style="opacity:0.269663;fill:#000000;fill-opacity:1;fill-rule:evenodd;stroke:#000000;stroke-width:0.830161;stroke-linecap:butt;stroke-linejoin:miter;stroke-miterlimit:4;stroke-dasharray:none;stroke-opacity:1"
         id="path5878" />
      <path
         d="m 365.59735,219.58638 c -7.45124,-2.6426 -16.80117,-5.69478 -23.38958,-5.28735 -4.52499,-3.82248 -7.99822,0.88787 -11.91885,2.14156 -0.65797,-7.35971 -11.51071,3.11231 -16.29132,3.17249 -3.39452,1.94833 -1.05481,-5.80054 -7.13354,-2.85309 -7.55754,0.71399 -12.23241,1.23324 -17.83876,3.66049 -1.34666,8.01279 -13.44905,12.52661 -15.26046,3.7443 -6.59856,2.87141 -18.86884,8.44118 -18.94833,-0.64164 -10.56431,8.19396 -10.90033,15.59836 -21.21381,19.55298 0.9126,-7.09218 -22.37063,-10.90803 -25.54443,-3.46471 -6.38963,2.57308 1.32915,-9.32097 -7.90455,-6.05233 -10.40062,-3.02386 -4.34704,17.93464 -25.55362,9.36597 -11.8077,-0.37983 -5.2687,16.71929 -13.06117,23.88224 -2.0761,7.53231 -11.08359,-2.62404 -14.72934,-2.06009 0.84794,11.92658 3.40768,7.88228 0.71924,15.9966 -1.60415,10.16538 -3.75129,15.25548 7.43178,17.37239 3.62121,-4.90361 -0.18204,-2.829 0.62793,6.21747 6.45765,-1.87978 14.94635,-12.63999 14.07505,-1.58144 4.38202,-6.67329 18.25435,-10.15139 18.07994,-17.33913 7.02184,0.73709 14.90236,8.57944 20.82979,-0.95299 5.95076,-7.0412 14.50445,-10.30685 14.59427,-4.86854 7.23377,6.7565 7.95724,5.38728 15.478,3.66781 -1.93719,-8.71166 17.59935,-0.59858 7.28271,-9.27171 4.09757,-4.10343 15.18748,-6.50139 21.59622,-5.07542 5.66947,8.25419 22.94407,8.93721 25.63186,-1.74704 0.56398,-8.40429 13.68224,-11.27875 18.58724,-5.46823 8.52969,-7.4786 21.98421,3.38849 29.32409,-2.3442 -6.59758,-8.56295 9.32443,-14.15812 12.29788,-7.59298 5.84169,-3.13663 11.27804,-14.42284 17.66836,-6.34283 7.34987,-2.39523 16.32468,-5.72557 22.54222,-8.22182 4.66667,7.69315 16.74733,-0.2211 11.51054,-9.53228 -2.83483,-6.65069 9.30974,3.27444 6.00348,-5.16367 -3.76088,-9.07689 -9.04264,-21.69181 -15.51378,-21.2748 -8.8124,-2.20185 -14.03766,3.74492 -14.40344,12.16045 -0.11143,-6.14114 -10.52227,-0.15499 -15.9832,2.07193 l -2.99388,0.71227 -3.57688,-2.52294"
         style="opacity:0.294045;fill:#000000;fill-opacity:1;fill-rule:evenodd;stroke:#000000;stroke-width:0.601426px;stroke-linecap:butt;stroke-linejoin:miter;stroke-opacity:1"
         id="path5003" />
      <path
         d="m 155.67981,210.88831 c 3.14012,-40.84748 23.78547,-59.45023 20.15126,-92.12062 -2.14808,-19.310467 -19.537,-4.67273 -13.86936,13.44173"
         style="fill:none;fill-opacity:0.75;fill-rule:evenodd;stroke:#000000;stroke-width:0.833495px;stroke-linecap:butt;stroke-linejoin:miter;stroke-opacity:1"
         id="path3126" />
      <path
         d="m 163.97802,266.61875 c -2.07609,7.53231 -6.19368,2.73733 -9.83944,3.30128 5.99914,8.51379 -18.39263,6.74042 -11.15152,19.87037 -1.60414,10.16538 0.84852,17.47185 12.03159,19.58875 3.6212,-4.9036 7.08892,-8.91913 7.89889,0.12734 6.45764,-1.87978 14.94635,-12.63999 14.07505,-1.58144 4.38202,-6.67328 18.25434,-10.15139 18.07993,-17.33912 7.02184,0.73708 14.56587,7.34967 20.4933,-2.18275 5.95076,-7.0412 7.27,-0.0663 7.35982,5.37202 7.23377,6.75652 15.52819,-3.62353 23.04895,-5.34299 -1.9372,-8.71166 8.86645,-1.54524 7.2827,-9.27172 -1.03721,-5.06015 33.64493,-3.56205 28.65668,-8.51045 -14.90587,-14.78677 -38.19112,7.49212 -41.55999,6.0701 -3.36887,-1.42201 -7.09125,-0.55957 -2.38487,-2.71925 4.70639,-2.15967 -6.74248,1.39249 -16.27743,-1.99436 -9.53496,-3.38685 -16.51439,0.89493 -17.1513,9.34281 -7.18176,-4.46668 -7.69633,0.60685 -18.88509,3.71804 7.12945,-10.42281 -12.5996,-2.76884 -12.5996,-2.76884 0,0 3.43729,-11.42797 -2.73938,-9.91964 3.32068,-5.96418 -0.36489,-7.80159 -0.36489,-7.80159 0,0 1.81907,-5.12151 -5.9734,2.04144 z"
         style="opacity:0.11236;fill:#000000;fill-opacity:1;fill-rule:evenodd;stroke:none;stroke-width:0.721572px;stroke-linecap:butt;stroke-linejoin:miter;stroke-opacity:1"
         id="path3249" />
      <path
         d="m 46.944746,146.2449 c -1.301678,-2.31828 -5.35751,-2.9566 -5.879409,-4.92258 0.90649,-2.28341 -2.659108,-0.62717 -3.361697,-1.88241 -4.194454,3.43361 -9.9845,4.91989 -13.092707,9.64254 1.652786,-0.36247 1.648832,-2.77858 -0.157056,-0.99615 -3.401098,1.68966 -6.688157,4.65771 -5.409253,8.89282 0.309772,2.17325 -2.425553,4.04333 0.913564,4.55805 -0.435409,3.47934 -5.654943,3.33284 -5.658053,6.4037 1.15534,3.3495 0.647111,6.84015 -2.100735,9.18954 -2.7180283,2.54178 -1.598648,6.28312 -1.499585,9.37085 -1.3669853,2.06531 -2.1364273,3.98573 -0.334716,5.95301 0.381454,3.5482 3.326995,5.89755 3.348942,9.5893 1.240053,1.93493 3.726708,1.8152 4.99685,4.00177 3.710475,0.3154 3.982719,5.49648 7.517208,6.2151 3.036183,0.99028 6.628635,0.30362 9.364415,1.02979 2.243733,1.81902 4.819206,3.08691 7.64389,3.59772 3.550896,2.25998 4.757769,-3.36478 6.906731,-5.17595 0.111428,-2.83195 2.146008,-3.05232 3.508535,-0.6677 3.101,2.10235 6.314017,-1.51811 8.537176,-3.43384 2.173489,-2.36905 4.611889,-4.42 7.032089,-6.49716 3.435924,-3.87856 4.655818,-9.42971 4.463567,-14.53502 0.340584,-3.19933 -2.634125,-3.37634 -4.590549,-3.74166 0.884588,-2.68233 3.113445,-6.54159 -1.432528,-6.82885 -2.606958,-0.6809 -8.517294,-3.59356 -5.132485,-6.66202 2.497843,-2.91871 -0.939756,-6.84771 -2.473531,-9.48419 -2.656218,-2.11406 -4.199508,-5.05895 -5.85115,-7.63014 -3.197679,-0.50952 -6.194337,-2.45275 -7.009506,-5.8451 -0.853644,-2.69404 -0.236398,-0.69903 0.03297,0.61246"
         style="fill:#ffffff;fill-opacity:1;fill-rule:evenodd;stroke:#000000;stroke-width:0.813602;stroke-linecap:butt;stroke-linejoin:miter;stroke-miterlimit:4;stroke-dasharray:none;stroke-opacity:1"
         id="path2251" />
      <path
         d="m 20.404837,181.84614 c -1.601293,-1.9684 4.721412,-1.04116 4.199512,-3.00714 0.90649,-2.28339 -0.178267,-2.37846 -0.880857,-3.63371 -4.194453,3.43361 -3.206637,-4.70088 -6.314844,0.0218 1.652786,-0.36246 1.381011,-6.33357 -0.424877,-4.55114 -3.401098,1.68965 -2.680526,-5.80591 -2.683636,-2.73505 1.15534,3.3495 0.647111,6.84015 -2.100735,9.18954 -2.7180283,2.54178 -1.598648,6.28312 -1.499585,9.37085 -1.3669853,2.06531 -2.1364273,3.98573 -0.334716,5.95301 0.381454,3.5482 3.326995,5.89755 3.348942,9.5893 1.240053,1.93493 3.726708,1.8152 4.99685,4.00177 3.710475,0.3154 3.982719,5.49648 7.517208,6.2151 3.036183,0.99028 6.628635,0.30362 9.364415,1.02979 2.243733,1.81902 4.819206,3.08691 7.64389,3.59772 3.550896,2.25998 4.757769,-3.36478 6.906731,-5.17595 0.111428,-2.83195 2.146008,-3.05232 3.508535,-0.6677 3.101,2.10235 6.314017,-1.51811 8.537176,-3.43384 2.173489,-2.36905 -8.345955,0.35931 -5.925755,-1.71784 3.43592,-3.87857 -7.75248,5.41378 -7.944735,0.30847 0.340581,-3.19932 -12.370379,4.07056 -9.678506,-1.55391 0.884591,-2.68233 1.535909,-0.7479 -3.010064,-1.03517 -2.606958,-0.6809 -9.803527,-5.4936 -6.418718,-8.56206 2.497844,-2.91871 -1.342064,0.45638 -2.875839,-2.18009 -2.656219,-2.11406 -0.95965,-0.95001 -2.611292,-3.52118 -3.197679,-0.50952 -1.791784,-1.81661 -2.606953,-5.20895 -1.383361,3.98006 -0.981514,-3.60508 -0.712147,-2.29359 z"
         style="opacity:0.0955056;fill:#000000;fill-opacity:1;fill-rule:evenodd;stroke:none;stroke-width:0.996;stroke-linecap:butt;stroke-linejoin:miter;stroke-miterlimit:4;stroke-dasharray:none;stroke-opacity:1"
         id="path4128" />
      <path
         d="m 157.67035,192.3615 c 0,0 13.14456,-33.51164 16.30292,-46.8815 2.955,-12.50888 2.57264,-31.60315 -1.8531,-35.13721 -4.42575,-3.53406 -10.24707,2.57829 -10.86062,9.81603 -0.61354,7.23773 -1.12742,9.06164 1.8435,22.86746 1.34679,6.25851 0.67415,21.09312 -1.15695,28.09458 -1.8311,7.00146 -5.82667,22.94607 -4.27575,21.24064 z"
         style="fill:#000000;fill-opacity:0.223464;fill-rule:evenodd;stroke:none;stroke-width:1px;stroke-linecap:butt;stroke-linejoin:miter;stroke-opacity:1"
         id="path5880" />
    </g>
  </g>
  <g
     inkscape:groupmode="layer"
     id="layer8"
     inkscape:label="stroke"
     transform="translate(25.051607,20.362227)">
    <path
       d="m 51.314205,21.3337 c -1.573532,-0.558057 -3.031709,-0.636511 -4.423029,-0.550469 -0.955575,-0.807223 -2.089582,-0.542495 -2.91753,-0.277742 -0.138946,-1.554206 -2.030262,1.387238 -3.039816,1.399946 -0.716849,0.411445 -0.222752,-1.224937 -1.506443,-0.602507 -1.595981,0.150778 -3.446206,-0.838847 -4.630139,-0.326267 -0.284384,1.692119 -2.840134,2.645335 -3.22266,0.790711 -1.393468,0.606378 -3.121675,2.881866 -3.138457,0.963781 -2.615333,-0.114648 -3.735736,2.456682 -5.91371,3.291808 0.192722,-1.497705 -3.290332,-1.466193 -3.960568,0.105669 -1.349343,0.543376 -0.358824,-2.837927 -2.308772,-2.147664 -2.196372,-0.638571 -2.136408,3.737302 -4.756832,2.847427 -2.4935157,-0.08021 -2.1452627,2.398536 -3.7908577,3.911186 -0.438423,1.590654 -1.307964,0.578063 -2.077866,0.697157 1.266882,1.797919 -3.884104,1.423421 -2.354945,4.196168 -0.33876,2.146697 0.179186,3.689659 2.540794,4.1367 0.764717,-1.035529 1.497021,-1.883517 1.668068,0.02689 1.363707,-0.396964 3.1563287,-2.669276 2.9723277,-0.333962 0.925385,-1.409247 3.854903,-2.143742 3.818072,-3.661629 1.482853,0.155656 3.147039,1.81178 4.398778,-0.201252 1.256665,-1.486939 1.464201,-0.27369 1.483167,0.874755 1.527608,1.426821 3.2792,-0.765209 4.867412,-1.12832 -0.409091,-1.839702 3.716582,-0.126407 1.537944,-1.957976 0.865312,-0.866549 3.20725,-1.372946 4.56063,-1.071814 1.187486,1.126441 4.845264,1.887338 5.412866,-0.368935 0.1191,-1.774794 2.889375,-2.381813 3.925202,-1.154765 1.801274,-1.579308 4.642563,0.715574 6.192578,-0.49504 -1.393259,-1.808302 1.96911,-2.989872 2.597032,-1.603464 1.233632,-0.662385 2.381666,-3.045776 3.731158,-1.339461 1.552121,-0.505818 3.447398,-1.209113 4.760408,-1.736264 0.98549,1.624618 3.53665,-0.04669 2.43076,-2.012998 -0.59865,-1.404475 1.966,0.691487 1.2678,-1.09045 0.0156,-2.039224 -0.75245,-5.194886 -3.27616,-4.492753 -1.86098,-0.464981 -2.96443,0.790839 -3.04168,2.568008 -0.02353,-1.296867 -2.96187,-0.82856 -4.115092,-0.358286 l -0.377786,0.199794 -0.270005,0.213663"
       style="mix-blend-mode:normal;fill:#ffffff;fill-opacity:0.999893;fill-rule:evenodd;stroke:#000000;stroke-width:0.127007px;stroke-linecap:butt;stroke-linejoin:miter;stroke-opacity:1"
       id="path1307-3" />
  </g>
  <g
     inkscape:groupmode="layer"
     id="layer6"
     inkscape:label="Logo_2"
     style="display:inline;opacity:1;mix-blend-mode:normal"
     transform="translate(25.051607,20.362227)">
    <path
       style="color:#000000;display:inline;fill:#ffffff;fill-opacity:1;stroke:none;stroke-width:0;-inkscape-stroke:none;filter:url(#filter116945-8)"
       d="m 43.959063,85.317496 23.293715,86.933324 c 5.687012,21.22421 27.765588,33.97128 48.989792,28.28427 l 57.95556,-15.52914 c 21.22421,-5.68701 33.97128,-27.76559 28.28427,-48.9898 L 189.54145,87.719862 C 185.28386,71.830301 168.68866,62.249059 152.7991,66.506653 145.37602,68.495662 139.41827,73.236811 135.51651,79.28122 129.11528,75.997489 121.58515,74.870406 114.16207,76.859416 98.27251,81.11701 88.691266,97.712202 92.948859,113.60177 l 12.940951,48.29629 19.31853,-5.17639 -12.94095,-48.29629 c -1.46009,-5.44906 1.622,-10.787381 7.07106,-12.247447 5.44906,-1.460072 10.78737,1.622008 12.24744,7.071067 l 12.94096,48.29629 19.31851,-5.17638 -12.94095,-48.296287 c -1.46007,-5.449062 1.62201,-10.787383 7.07107,-12.247454 5.44906,-1.460068 10.78738,1.622011 12.24745,7.071073 l 12.94095,48.296288 c 2.88949,10.78373 -3.3584,21.60541 -14.14213,24.4949 l -57.95556,15.52914 c -10.78372,2.88949 -21.605397,-3.3584 -24.494896,-14.14213 L 63.277581,80.141111 Z"
       id="path4193-4"
       transform="matrix(0.26458333,0,0,0.26458333,1.72e-4,1.72e-4)" />
  </g>
</svg>
