<?xml version="1.0" encoding="UTF-8" standalone="no"?>
<!-- Created with Inkscape (http://www.inkscape.org/) -->

<svg
   width="67.733673mm"
   height="67.733673mm"
   viewBox="0 0 67.733673 67.733673"
   version="1.1"
   id="svg883"
   sodipodi:docname="Temple_OS.svg"
   inkscape:version="1.1.2 (0a00cf5339, 2022-02-04, custom)"
   inkscape:export-filename="/home/librorum/Documents/GitHub/mint_server/Server_Emotes/Temple_OS.png"
   inkscape:export-xdpi="96"
   inkscape:export-ydpi="96"
   xmlns:inkscape="http://www.inkscape.org/namespaces/inkscape"
   xmlns:sodipodi="http://sodipodi.sourceforge.net/DTD/sodipodi-0.dtd"
   xmlns="http://www.w3.org/2000/svg"
   xmlns:svg="http://www.w3.org/2000/svg">
  <sodipodi:namedview
     id="namedview885"
     pagecolor="#6e6e6e"
     bordercolor="#666666"
     borderopacity="1.0"
     inkscape:pageshadow="2"
     inkscape:pageopacity="0"
     inkscape:pagecheckerboard="true"
     inkscape:document-units="mm"
     showgrid="false"
     fit-margin-top="0"
     fit-margin-left="0"
     fit-margin-right="0"
     fit-margin-bottom="0"
     inkscape:zoom="2.0149342"
     inkscape:cx="160.7993"
     inkscape:cy="171.96591"
     inkscape:window-width="1920"
     inkscape:window-height="1080"
     inkscape:window-x="1920"
     inkscape:window-y="0"
     inkscape:window-maximized="1"
     inkscape:current-layer="layer2" />
  <defs
     id="defs880">
    <filter
       style="color-interpolation-filters:sRGB"
       inkscape:label="Drop Shadow"
       id="filter116945"
       x="-0.030022849"
       y="-0.035191899"
       width="1.0850647"
       height="1.0997104">
      <feFlood
         flood-opacity="1"
         flood-color="rgb(0,0,0)"
         result="flood"
         id="feFlood116935" />
      <feComposite
         in="flood"
         in2="SourceGraphic"
         operator="in"
         result="composite1"
         id="feComposite116937" />
      <feGaussianBlur
         in="composite1"
         stdDeviation="2"
         result="blur"
         id="feGaussianBlur116939" />
      <feOffset
         dx="4"
         dy="4"
         result="offset"
         id="feOffset116941" />
      <feComposite
         in="SourceGraphic"
         in2="offset"
         operator="over"
         result="composite2"
         id="feComposite116943" />
    </filter>
    <filter
       style="color-interpolation-filters:sRGB;"
       inkscape:label="Drop Shadow"
       id="filter1942"
       x="-0.0623766"
       y="-0.057720721"
       width="1.1507434"
       height="1.1394917">
      <feFlood
         flood-opacity="1"
         flood-color="rgb(0,0,0)"
         result="flood"
         id="feFlood1932" />
      <feComposite
         in="flood"
         in2="SourceGraphic"
         operator="in"
         result="composite1"
         id="feComposite1934" />
      <feGaussianBlur
         in="composite1"
         stdDeviation="1"
         result="blur"
         id="feGaussianBlur1936" />
      <feOffset
         dx="1"
         dy="1"
         result="offset"
         id="feOffset1938" />
      <feComposite
         in="SourceGraphic"
         in2="offset"
         operator="over"
         result="composite2"
         id="feComposite1940" />
    </filter>
  </defs>
  <g
     inkscape:label="Logo"
     inkscape:groupmode="layer"
     id="layer1"
     style="display:inline"
     transform="translate(-108.62449,-139.52623)"
     sodipodi:insensitive="true">
    <g
       id="g854"
       transform="matrix(0.26458333,0,0,0.26458333,108.62466,139.5264)"
       style="display:inline">
      <g
         id="layer3">
        <path
           id="path32"
           style="fill:#55ffff;fill-opacity:1;stroke:#ffffff;stroke-width:20.0013;stroke-linecap:round;stroke-linejoin:bevel;stroke-miterlimit:4;stroke-dasharray:none;stroke-dashoffset:200.013;stroke-opacity:1"
           d="M 128,10 A 118,118 0 0 0 10,128 118,118 0 0 0 128,246 118,118 0 0 0 246,128 118,118 0 0 0 128,10 Z" />
      </g>
      <g
         id="g923"
         style="fill:#ffffff;fill-opacity:1;stroke:#ffffff;stroke-opacity:1" />
    </g>
  </g>
  <g
     inkscape:groupmode="layer"
     id="layer2"
     inkscape:label="Logo 1"
     style="display:inline">
    <path
       style="fill:#ffff55;fill-opacity:1;stroke-width:0.0880457;filter:url(#filter1942)"
       d="m 22.166404,52.386601 c -0.626636,-0.404703 -1.12743,-0.770256 -1.112875,-0.81234 0.02314,-0.0669 4.845946,-7.12493 5.058171,-7.402473 0.05791,-0.07574 -0.331462,-0.411533 -1.357116,-1.170375 -0.791082,-0.585291 -1.43833,-1.114279 -1.43833,-1.17553 0,-0.06125 0.494866,-0.773433 1.099702,-1.582629 1.241364,-1.660791 1.127655,-1.642933 1.324153,-0.207948 l 0.118305,0.86396 0.694709,0.489574 c 0.393348,0.2772 0.727612,0.456229 0.77056,0.412703 0.04172,-0.04228 2.395211,-3.504049 5.229985,-7.692823 l 5.154133,-7.615952 -4.041479,-0.02289 c -2.222813,-0.01259 -5.878673,-0.01259 -8.124133,0 l -4.082654,0.02289 1.553413,4.974581 c 1.517382,4.859199 1.558826,4.975228 1.786804,5.002441 l 0.233392,0.02786 v 1.169748 c 0,1.426399 -0.08568,1.607708 -0.971694,2.056098 -0.810099,0.409973 -1.584756,0.552731 -3.309599,0.609913 -3.339457,0.110709 -5.481205,-0.445159 -6.071935,-1.575906 -0.08602,-0.164657 -0.124208,-0.550396 -0.124208,-1.254651 v -1.016898 h 0.467902 0.467902 l 1.529264,-4.908547 c 0.841095,-2.699701 1.545115,-4.955634 1.564489,-5.013184 0.02278,-0.06766 -0.09961,-0.114331 -0.34631,-0.132068 l -0.381534,-0.02743 v -0.649249 -0.649249 l 3.301713,-1.255461 c 1.815943,-0.690503 5.394112,-2.050413 7.951489,-3.022021 l 4.649774,-1.766561 3.538474,1.273592 c 1.94616,0.700475 3.58621,1.262982 3.644555,1.250014 0.05834,-0.01297 1.445064,-2.001604 3.081599,-4.419191 l 2.975518,-4.395614 1.408731,-0.63394 c 0.774802,-0.348667 1.419624,-0.624723 1.432938,-0.613458 0.01331,0.01126 -0.0029,0.742555 -0.03603,1.625089 l -0.06024,1.604606 -2.750686,4.020785 c -1.512878,2.211432 -2.738858,4.033242 -2.7244,4.048466 0.01446,0.01523 1.327912,0.49594 2.918787,1.068258 l 2.892502,1.040577 v 0.736678 0.736679 l -0.381534,0.02743 c -0.2905,0.02089 -0.369847,0.05789 -0.332551,0.155079 0.02694,0.07021 0.711088,2.246897 1.52033,4.837092 l 1.471348,4.709445 h 0.335969 0.335968 v 1.175597 c 0,1.077546 -0.01672,1.200414 -0.200525,1.473155 -0.57208,0.84891 -2.688456,1.304546 -5.562278,1.197509 -2.266825,-0.08443 -3.61739,-0.470044 -4.362451,-1.245572 l -0.30816,-0.32076 -0.0289,-1.134566 -0.0289,-1.134565 0.37071,-0.02741 0.370708,-0.02741 1.484096,-4.754467 c 0.816252,-2.614957 1.484565,-4.784183 1.48514,-4.820502 6.16e-4,-0.03632 -1.019185,-0.06411 -2.266132,-0.06175 l -2.267176,0.0043 -5.848429,8.558155 c -3.216636,4.706985 -5.862853,8.602411 -5.880483,8.656501 -0.01763,0.05409 0.241319,0.285132 0.575441,0.513428 l 0.607495,0.415083 1.328284,-0.255356 c 0.730557,-0.140446 1.304991,-0.217666 1.276521,-0.171602 -0.395347,0.639685 -2.346108,3.362158 -2.409122,3.362158 -0.04679,0 -0.704313,-0.452401 -1.461161,-1.005336 -1.308601,-0.956032 -1.382259,-0.997051 -1.50195,-0.836434 -0.06922,0.0929 -1.238408,1.793345 -2.598184,3.778775 -1.359777,1.98543 -2.478655,3.618841 -2.486396,3.629803 -0.0077,0.01096 -0.526777,-0.311191 -1.153414,-0.715895 z M 19.46203,31.819532 c 0.01154,-2.697064 -0.01253,-4.567389 -0.0578,-4.49033 -0.04267,0.07264 -0.681237,2.113097 -1.419033,4.534353 -0.737796,2.421257 -1.360244,4.452814 -1.383219,4.514572 -0.03302,0.08875 0.260252,0.107206 1.399246,0.08805 l 1.441018,-0.02424 z m 3.776642,4.512342 c -0.02498,-0.08474 -0.622653,-2.154918 -1.328154,-4.600387 -0.705501,-2.445469 -1.318977,-4.525549 -1.36328,-4.622399 -0.04998,-0.109255 -0.08281,1.614561 -0.08651,4.54169 -0.0033,2.59478 0.02046,4.744195 0.05274,4.776478 0.03228,0.03228 0.668882,0.0587 1.414664,0.0587 1.250005,0 1.352417,-0.01204 1.310542,-0.15408 z m 23.975034,-4.754467 c -0.0038,-2.506001 -0.02207,-4.516744 -0.04055,-4.468319 -0.01848,0.04842 -0.592254,2.029453 -1.275057,4.402284 -0.682803,2.372832 -1.261536,4.383575 -1.286072,4.468319 -0.04108,0.1419 0.06026,0.15408 1.282007,0.15408 h 1.326619 l -0.007,-4.556364 z m 4.00552,4.358261 c -0.03487,-0.108956 -0.652132,-2.136682 -1.371694,-4.506057 -0.719563,-2.369375 -1.327632,-4.327291 -1.351266,-4.350924 -0.02363,-0.02363 -0.04297,1.977678 -0.04297,4.44736 0,2.469681 0.02641,4.516744 0.0587,4.549027 0.03228,0.03228 0.668882,0.0587 1.414663,0.0587 h 1.355968 z"
       id="path1654"
       transform="rotate(-15,34.29369,32.813014)" />
  </g>
</svg>
