<?xml version="1.0" encoding="UTF-8" standalone="no"?>
<!-- Created with Inkscape (http://www.inkscape.org/) -->

<svg
   width="67.733673mm"
   height="67.733673mm"
   viewBox="0 0 67.733673 67.733673"
   version="1.1"
   id="svg883"
   sodipodi:docname="Windows.svg"
   inkscape:version="1.4 (e7c3feb100, 2024-10-09)"
   inkscape:export-filename="/home/librorum/Documents/GitHub/mint_server/Server_Emotes/Void.png"
   inkscape:export-xdpi="96"
   inkscape:export-ydpi="96"
   xml:space="preserve"
   xmlns:inkscape="http://www.inkscape.org/namespaces/inkscape"
   xmlns:sodipodi="http://sodipodi.sourceforge.net/DTD/sodipodi-0.dtd"
   xmlns="http://www.w3.org/2000/svg"
   xmlns:svg="http://www.w3.org/2000/svg"><sodipodi:namedview
     id="namedview885"
     pagecolor="#6e6e6e"
     bordercolor="#666666"
     borderopacity="1.0"
     inkscape:pageshadow="2"
     inkscape:pageopacity="0"
     inkscape:pagecheckerboard="true"
     inkscape:document-units="mm"
     showgrid="false"
     fit-margin-top="0"
     fit-margin-left="0"
     fit-margin-right="0"
     fit-margin-bottom="0"
     inkscape:zoom="2.0149343"
     inkscape:cx="150.62526"
     inkscape:cy="144.42158"
     inkscape:window-width="1920"
     inkscape:window-height="1080"
     inkscape:window-x="1920"
     inkscape:window-y="0"
     inkscape:window-maximized="1"
     inkscape:current-layer="layer2"
     inkscape:showpageshadow="2"
     inkscape:deskcolor="#d1d1d1" /><defs
     id="defs880"><filter
       style="color-interpolation-filters:sRGB"
       inkscape:label="Drop Shadow"
       id="filter116945"
       x="-0.030022849"
       y="-0.035191899"
       width="1.0850647"
       height="1.0997104"><feFlood
         flood-opacity="1"
         flood-color="rgb(0,0,0)"
         result="flood"
         id="feFlood116935" /><feComposite
         in="flood"
         in2="SourceGraphic"
         operator="in"
         result="composite1"
         id="feComposite116937" /><feGaussianBlur
         in="composite1"
         stdDeviation="2"
         result="blur"
         id="feGaussianBlur116939" /><feOffset
         dx="4"
         dy="4"
         result="offset"
         id="feOffset116941" /><feComposite
         in="SourceGraphic"
         in2="offset"
         operator="over"
         result="composite2"
         id="feComposite116943" /></filter><linearGradient
       id="lg"
       y1="9.90843"
       x2="25.431995"
       x1="34.76569"
       y2="28.426884"
       gradientTransform="scale(0.9319351,1.0730361)"
       gradientUnits="userSpaceOnUse"><stop
         stop-color="#fff"
         stop-opacity="0"
         offset="0"
         id="stop1046" /><stop
         stop-color="#fff"
         stop-opacity=".27451"
         offset="1"
         id="stop1048" /></linearGradient><filter
       style="color-interpolation-filters:sRGB;"
       inkscape:label="Drop Shadow"
       id="filter3775"
       x="-0.075"
       y="-0.074999895"
       width="1.165625"
       height="1.1656248"><feFlood
         flood-opacity="1"
         flood-color="rgb(0,0,0)"
         result="flood"
         id="feFlood3765" /><feComposite
         in="flood"
         in2="SourceGraphic"
         operator="in"
         result="composite1"
         id="feComposite3767" /><feGaussianBlur
         in="composite1"
         stdDeviation="2"
         result="blur"
         id="feGaussianBlur3769" /><feOffset
         dx="1"
         dy="1"
         result="offset"
         id="feOffset3771" /><feComposite
         in="SourceGraphic"
         in2="offset"
         operator="over"
         result="composite2"
         id="feComposite3773" /></filter><filter
       style="color-interpolation-filters:sRGB;"
       inkscape:label="Drop Shadow"
       id="filter5280"
       x="-0.018836849"
       y="-0.019132093"
       width="1.041598"
       height="1.04225"><feFlood
         flood-opacity="1"
         flood-color="rgb(0,0,0)"
         result="flood"
         id="feFlood5270" /><feComposite
         in="flood"
         in2="SourceGraphic"
         operator="in"
         result="composite1"
         id="feComposite5272" /><feGaussianBlur
         in="composite1"
         stdDeviation="2"
         result="blur"
         id="feGaussianBlur5274" /><feOffset
         dx="1"
         dy="1"
         result="offset"
         id="feOffset5276" /><feComposite
         in="SourceGraphic"
         in2="offset"
         operator="over"
         result="composite2"
         id="feComposite5278" /></filter><filter
       style="color-interpolation-filters:sRGB;"
       inkscape:label="Drop Shadow"
       id="filter5476"
       x="-0.02400048"
       y="-0.019281212"
       width="1.0530011"
       height="1.0425793"><feFlood
         flood-opacity="1"
         flood-color="rgb(0,0,0)"
         result="flood"
         id="feFlood5466" /><feComposite
         in="flood"
         in2="SourceGraphic"
         operator="in"
         result="composite1"
         id="feComposite5468" /><feGaussianBlur
         in="composite1"
         stdDeviation="2"
         result="blur"
         id="feGaussianBlur5470" /><feOffset
         dx="1"
         dy="1"
         result="offset"
         id="feOffset5472" /><feComposite
         in="SourceGraphic"
         in2="offset"
         operator="over"
         result="composite2"
         id="feComposite5474" /></filter><filter
       style="color-interpolation-filters:sRGB;"
       inkscape:label="Drop Shadow"
       id="filter36341"
       x="-0.1013929"
       y="-0.11481358"
       width="1.2239093"
       height="1.2535467"><feFlood
         flood-opacity="1"
         flood-color="rgb(0,0,0)"
         result="flood"
         id="feFlood36331" /><feComposite
         in="flood"
         in2="SourceGraphic"
         operator="in"
         result="composite1"
         id="feComposite36333" /><feGaussianBlur
         in="composite1"
         stdDeviation="2"
         result="blur"
         id="feGaussianBlur36335" /><feOffset
         dx="1"
         dy="1"
         result="offset"
         id="feOffset36337" /><feComposite
         in="SourceGraphic"
         in2="offset"
         operator="over"
         result="composite2"
         id="feComposite36339" /></filter><filter
       style="color-interpolation-filters:sRGB;"
       inkscape:label="Drop Shadow"
       id="filter36353"
       x="-0.16282225"
       y="-0.13434089"
       width="1.3595658"
       height="1.2966695"><feFlood
         flood-opacity="1"
         flood-color="rgb(0,0,0)"
         result="flood"
         id="feFlood36343" /><feComposite
         in="flood"
         in2="SourceGraphic"
         operator="in"
         result="composite1"
         id="feComposite36345" /><feGaussianBlur
         in="composite1"
         stdDeviation="2"
         result="blur"
         id="feGaussianBlur36347" /><feOffset
         dx="1"
         dy="1"
         result="offset"
         id="feOffset36349" /><feComposite
         in="SourceGraphic"
         in2="offset"
         operator="over"
         result="composite2"
         id="feComposite36351" /></filter><filter
       style="color-interpolation-filters:sRGB;"
       inkscape:label="Drop Shadow"
       id="filter36365"
       x="-0.12558015"
       y="-0.12725648"
       width="1.2773228"
       height="1.2810247"><feFlood
         flood-opacity="1"
         flood-color="rgb(0,0,0)"
         result="flood"
         id="feFlood36355" /><feComposite
         in="flood"
         in2="SourceGraphic"
         operator="in"
         result="composite1"
         id="feComposite36357" /><feGaussianBlur
         in="composite1"
         stdDeviation="2"
         result="blur"
         id="feGaussianBlur36359" /><feOffset
         dx="1"
         dy="1"
         result="offset"
         id="feOffset36361" /><feComposite
         in="SourceGraphic"
         in2="offset"
         operator="over"
         result="composite2"
         id="feComposite36363" /></filter><filter
       style="color-interpolation-filters:sRGB;"
       inkscape:label="Drop Shadow"
       id="filter947"
       x="-0.025150498"
       y="-0.023143847"
       width="1.0555407"
       height="1.0511093"><feFlood
         flood-opacity="1"
         flood-color="rgb(0,0,0)"
         result="flood"
         id="feFlood937" /><feComposite
         in="flood"
         in2="SourceGraphic"
         operator="in"
         result="composite1"
         id="feComposite939" /><feGaussianBlur
         in="composite1"
         stdDeviation="2"
         result="blur"
         id="feGaussianBlur941" /><feOffset
         dx="1"
         dy="1"
         result="offset"
         id="feOffset943" /><feComposite
         in="SourceGraphic"
         in2="offset"
         operator="over"
         result="composite2"
         id="feComposite945" /></filter><linearGradient
       y1="545.8"
       x2="0"
       y2="517.8"
       gradientUnits="userSpaceOnUse"
       id="linearGradient1221"><stop
         stop-color="#3889e9"
         id="stop1217" /><stop
         offset="1"
         stop-color="#5ea5fb"
         id="stop1219" /></linearGradient><linearGradient
       id="0"
       gradientUnits="userSpaceOnUse"
       y1="545.14"
       x2="0"
       y2="518.14"><stop
         stop-color="#9662ff"
         id="stop1223" /><stop
         offset="1"
         stop-color="#bc9bff"
         id="stop1225" /></linearGradient><linearGradient
       y1="545.8"
       x2="0"
       y2="517.8"
       gradientUnits="userSpaceOnUse"
       id="linearGradient1419"><stop
         stop-color="#3889e9"
         id="stop1415" /><stop
         offset="1"
         stop-color="#5ea5fb"
         id="stop1417" /></linearGradient><linearGradient
       id="0-2"
       gradientUnits="userSpaceOnUse"
       y1="545.14"
       x2="0"
       y2="518.14"><stop
         stop-color="#9662ff"
         id="stop1421" /><stop
         offset="1"
         stop-color="#bc9bff"
         id="stop1423" /></linearGradient><filter
       style="color-interpolation-filters:sRGB;"
       inkscape:label="Drop Shadow"
       id="filter994"
       x="-0.051605033"
       y="-0.051604646"
       width="1.1247122"
       height="1.1247112"><feFlood
         flood-opacity="1"
         flood-color="rgb(0,0,0)"
         result="flood"
         id="feFlood984" /><feComposite
         in="flood"
         in2="SourceGraphic"
         operator="in"
         result="composite1"
         id="feComposite986" /><feGaussianBlur
         in="composite1"
         stdDeviation="1"
         result="blur"
         id="feGaussianBlur988" /><feOffset
         dx="1"
         dy="1"
         result="offset"
         id="feOffset990" /><feComposite
         in="SourceGraphic"
         in2="offset"
         operator="over"
         result="composite2"
         id="feComposite992" /></filter><clipPath
       id="vlpa"><path
         d="m0 200.3h320v-200.3h-320v200.3z"
         id="path1356" /></clipPath><filter
       style="color-interpolation-filters:sRGB;"
       inkscape:label="Drop Shadow"
       id="filter8715"
       x="-0.015824898"
       y="-0.03190645"
       width="1.0382435"
       height="1.0771073"><feFlood
         flood-opacity="1"
         flood-color="rgb(0,0,0)"
         result="flood"
         id="feFlood8705" /><feComposite
         in="flood"
         in2="SourceGraphic"
         operator="in"
         result="composite1"
         id="feComposite8707" /><feGaussianBlur
         in="composite1"
         stdDeviation="1"
         result="blur"
         id="feGaussianBlur8709" /><feOffset
         dx="1"
         dy="1"
         result="offset"
         id="feOffset8711" /><feComposite
         in="SourceGraphic"
         in2="offset"
         operator="over"
         result="composite2"
         id="feComposite8713" /></filter><filter
       style="color-interpolation-filters:sRGB;"
       inkscape:label="Drop Shadow"
       id="filter11442"
       x="-0.056773245"
       y="-0.053239598"
       width="1.137202"
       height="1.1286624"><feFlood
         flood-opacity="1"
         flood-color="rgb(0,0,0)"
         result="flood"
         id="feFlood11432" /><feComposite
         in="flood"
         in2="SourceGraphic"
         operator="in"
         result="composite1"
         id="feComposite11434" /><feGaussianBlur
         in="composite1"
         stdDeviation="1"
         result="blur"
         id="feGaussianBlur11436" /><feOffset
         dx="1"
         dy="1"
         result="offset"
         id="feOffset11438" /><feComposite
         in="SourceGraphic"
         in2="offset"
         operator="over"
         result="composite2"
         id="feComposite11440" /></filter><filter
       style="color-interpolation-filters:sRGB;"
       inkscape:label="Drop Shadow"
       id="filter924"
       x="-0.009375"
       y="-0.009375"
       width="1.0226562"
       height="1.0226562"><feFlood
         flood-opacity="1"
         flood-color="rgb(0,0,0)"
         result="flood"
         id="feFlood914" /><feComposite
         in="flood"
         in2="SourceGraphic"
         operator="in"
         result="composite1"
         id="feComposite916" /><feGaussianBlur
         in="composite1"
         stdDeviation="1"
         result="blur"
         id="feGaussianBlur918" /><feOffset
         dx="1"
         dy="1"
         result="offset"
         id="feOffset920" /><feComposite
         in="SourceGraphic"
         in2="offset"
         operator="over"
         result="composite2"
         id="feComposite922" /></filter><filter
       style="color-interpolation-filters:sRGB;"
       inkscape:label="Drop Shadow"
       id="filter931"
       x="-0.018728036"
       y="-0.018718917"
       width="1.0452594"
       height="1.0452374"><feFlood
         flood-opacity="1"
         flood-color="rgb(0,0,0)"
         result="flood"
         id="feFlood921" /><feComposite
         in="flood"
         in2="SourceGraphic"
         operator="in"
         result="composite1"
         id="feComposite923" /><feGaussianBlur
         in="composite1"
         stdDeviation="1"
         result="blur"
         id="feGaussianBlur925" /><feOffset
         dx="1"
         dy="1"
         result="offset"
         id="feOffset927" /><feComposite
         in="SourceGraphic"
         in2="offset"
         operator="over"
         result="composite2"
         id="feComposite929" /></filter><filter
       style="color-interpolation-filters:sRGB;"
       inkscape:label="Drop Shadow"
       id="filter938"
       x="-0.012162155"
       y="-0.011720284"
       width="1.0293919"
       height="1.028324"><feFlood
         flood-opacity="1"
         flood-color="rgb(1,8,0)"
         result="flood"
         id="feFlood927" /><feComposite
         in="flood"
         in2="SourceGraphic"
         operator="in"
         result="composite1"
         id="feComposite930" /><feGaussianBlur
         in="composite1"
         stdDeviation="1"
         result="blur"
         id="feGaussianBlur932" /><feOffset
         dx="1"
         dy="1"
         result="offset"
         id="feOffset934" /><feComposite
         in="SourceGraphic"
         in2="offset"
         operator="over"
         result="composite2"
         id="feComposite936" /></filter><filter
       style="color-interpolation-filters:sRGB;"
       inkscape:label="Drop Shadow"
       id="filter942"
       x="-0.011403061"
       y="-0.011403061"
       width="1.0275574"
       height="1.0275574"><feFlood
         flood-opacity="1"
         flood-color="rgb(0,0,0)"
         result="flood"
         id="feFlood931" /><feComposite
         in="flood"
         in2="SourceGraphic"
         operator="in"
         result="composite1"
         id="feComposite933" /><feGaussianBlur
         in="composite1"
         stdDeviation="1"
         result="blur"
         id="feGaussianBlur935" /><feOffset
         dx="1"
         dy="1"
         result="offset"
         id="feOffset937" /><feComposite
         in="SourceGraphic"
         in2="offset"
         operator="over"
         result="composite2"
         id="feComposite940" /></filter><filter
       style="color-interpolation-filters:sRGB;"
       inkscape:label="Drop Shadow"
       id="filter11440"
       x="-0.017536831"
       y="-0.013677109"
       width="1.0423807"
       height="1.033053"><feFlood
         flood-opacity="1"
         flood-color="rgb(0,0,0)"
         result="flood"
         id="feFlood11430" /><feComposite
         in="flood"
         in2="SourceGraphic"
         operator="in"
         result="composite1"
         id="feComposite11432" /><feGaussianBlur
         in="composite1"
         stdDeviation="1"
         result="blur"
         id="feGaussianBlur11434" /><feOffset
         dx="1"
         dy="1"
         result="offset"
         id="feOffset11436" /><feComposite
         in="SourceGraphic"
         in2="offset"
         operator="over"
         result="composite2"
         id="feComposite11438" /></filter><filter
       style="color-interpolation-filters:sRGB;"
       inkscape:label="Drop Shadow"
       id="filter14"
       x="-0.07843573"
       y="-0.090899794"
       width="1.189553"
       height="1.2196745"><feFlood
         result="flood"
         in="SourceGraphic"
         flood-opacity="1.000000"
         flood-color="rgb(0,0,0)"
         id="feFlood13" /><feGaussianBlur
         result="blur"
         in="SourceGraphic"
         stdDeviation="1.000000"
         id="feGaussianBlur13" /><feOffset
         result="offset"
         in="blur"
         dx="1.000000"
         dy="1.000000"
         id="feOffset13" /><feComposite
         result="comp1"
         operator="in"
         in="flood"
         in2="offset"
         id="feComposite13" /><feComposite
         result="comp2"
         operator="over"
         in="SourceGraphic"
         in2="comp1"
         id="feComposite14" /></filter></defs><path
     id="path32"
     style="display:inline;fill:#76aadd;fill-opacity:1;stroke:#ffffff;stroke-width:20.0013;stroke-linecap:round;stroke-linejoin:bevel;stroke-miterlimit:4;stroke-dasharray:none;stroke-dashoffset:200.013;stroke-opacity:1"
     d="M 128,10 A 118,118 0 0 0 10,128 118,118 0 0 0 128,246 118,118 0 0 0 246,128 118,118 0 0 0 128,10 Z"
     transform="matrix(0.26458333,0,0,0.26458333,1.7e-4,1.7e-4)" /><g
     inkscape:groupmode="layer"
     id="layer2"
     inkscape:label="Logo 1"
     style="display:inline"
     transform="translate(3.2253438,1.428329)"><g
       transform="matrix(1.531457,0,0,1.531457,-203.44983,-262.54997)"
       id="g47"
       style="filter:url(#filter14)"><path
         d="m 147.45,199.64 3.2812,-8.125 c 1.5625,-0.0859 4.0977,0.26563 5.668,0.64453 l -3.375,8.3594 c -1.5312,-0.37891 -4.043,-0.83985 -5.5742,-0.87891"
         fill="#3d87cf"
         id="path1" /><path
         d="m 162.2,195.43 -3.4102,8.3984 c -1.1406,-0.9375 -4.2656,-2.7188 -5.7656,-3.3086 l 3.375,-8.3594 c 1.5273,0.54297 4.7891,2.1797 5.8008,3.2695"
         fill="#fac705"
         id="path2" /><path
         d="m 165.54,187.65 -3.3477,7.7812 c -1.0938,-1 -4.2578,-2.707 -5.8008,-3.2695 l 3.3828,-8.375 c 1.543,0.51563 4.7617,2.7188 5.7656,3.8633"
         fill="#66c557"
         id="path3" /><path
         d="m 150.73,191.52 3.3281,-8.2227 c 1.5586,-0.0547 4.1562,0.19141 5.7226,0.49219 l -3.3828,8.375 c -1.5508,-0.42578 -4.1172,-0.67578 -5.668,-0.64453"
         fill="#f3632e"
         id="path4" /><path
         d="m 139.46,194.54 -1.6055,-0.0273 c 0.10937,-0.32422 0.25,-0.6875 0.38672,-0.99219 l 1.6211,-0.004 c -0.11719,0.33204 -0.25781,0.69141 -0.40234,1.0234"
         fill="#3d87cf"
         id="path5" /><path
         d="m 141.94,195.88 -2.0234,-0.0117 0.56641,-1.375 c 0.66797,-0.004 1.3438,0 2.0156,0.0234 l -0.55859,1.3633"
         fill="#3d87cf"
         id="path6" /><path
         d="m 145.3,195.54 c -0.23437,0.53906 -0.43359,1.1172 -0.67578,1.6602 l -2.2773,-0.0273 0.67187,-1.6484 2.2812,0.0156"
         fill="#3d87cf"
         id="path7" /><path
         d="m 140.52,191.9 -1.6094,-0.0195 0.38671,-0.98828 c 0.54688,0.0156 1.0938,-0.0156 1.6367,0.004 l -0.41406,1.0039"
         fill="#3d87cf"
         id="path10" /><path
         d="m 142.99,193.26 -2.0078,-0.008 0.54297,-1.3672 c 0.67578,-0.004 1.3516,-0.008 2.0274,0.008 l -0.5625,1.3672"
         fill="#3d87cf"
         id="path11" /><path
         d="m 145.7,194.55 -2.2852,-0.0508 0.66406,-1.6211 2.2774,0.0234 -0.65625,1.6484"
         fill="#3d87cf"
         id="path12" /><path
         d="m 142.71,186.48 -1.6133,-0.0117 0.39453,-1.0078 c 0.54297,0.008 1.0859,0 1.6328,0.0117 l -0.41406,1.0078"
         fill="#f3632e"
         id="path15" /><path
         d="m 143.18,187.84 0.54297,-1.3828 h 2.0117 L 145.1917,187.84 H 143.18"
         fill="#f3632e"
         id="path16" /><path
         d="m 147.92,189.04 -2.2852,-0.0156 0.66015,-1.6445 2.2812,0.008 -0.65625,1.6523"
         fill="#f3632e"
         id="path17"
         style="fill:#ffffff" /><path
         d="m 143.8,183.78 c -0.53906,0 -1.0781,-0.008 -1.6172,-0.0312 l 0.39844,-0.98828 c 0.54297,0.008 1.0859,-0.0117 1.6289,0.004 l -0.41016,1.0156"
         fill="#f3632e"
         id="path20" /><path
         d="m 146.27,185.14 c -0.67187,0 -1.3477,0.0117 -2.0234,-0.008 l 0.5625,-1.375 c 0.67578,-0.008 1.3477,0.004 2.0234,0.008 l -0.5625,1.375"
         fill="#f3632e"
         id="path21" /><path
         d="m 148.96,186.45 -2.2695,-0.0234 0.66016,-1.6524 2.2852,0.0156 -0.67578,1.6602"
         fill="#f3632e"
         id="path22" /><path
         d="m 138.44,197.3 c -0.63672,0.008 -1.2773,0.004 -1.918,-0.0156 l 0.45703,-1.1328 c 0.64063,0 1.2852,0.0195 1.9336,0.0117 l -0.47266,1.1367"
         id="path25"
         style="fill:#ffffff" /><path
         d="m 153.11,184.74 -2.8711,0.0195 1.0078,-2.5039 c 0.97656,-0.10938 1.9609,-0.21485 2.9414,-0.1836 l -1.0781,2.668"
         id="path26"
         style="fill:#ffffff" /><path
         d="m 150.19,183.86 -2.7148,-0.0117 0.78906,-1.9727 2.7188,0.0234 -0.79297,1.9609"
         id="path29"
         style="fill:#ffffff" /><path
         d="m 145.1,182.48 0.58985,-1.4922 2.3945,0.004 -0.60157,1.5039 -2.3828,-0.0156"
         id="path30"
         style="fill:#ffffff" /><path
         d="m 144.98,181.11 -1.9219,-0.0156 0.44532,-1.125 c 0.64062,0 1.2852,-0.0234 1.9336,0 l -0.45703,1.1406"
         id="path31"
         style="fill:#ffffff" /><path
         d="m 152.06,187.35 c -0.95703,0.0234 -1.918,0.0391 -2.8789,0.043 l 0.9375,-2.3164 2.8633,-0.0117 -0.92187,2.2852"
         id="path32-3"
         style="fill:#ffffff" /><path
         d="m 150.98,190.01 -2.8711,0.0391 -0.0156,-0.008 0.92968,-2.3164 2.8945,-0.043 -0.9375,2.3281"
         id="path33"
         style="fill:#ffffff" /><path
         d="m 147.04,192.68 0.92578,-2.3086 2.875,-0.0352 -0.91797,2.3125 -2.8828,0.0312"
         id="path35"
         style="fill:#ffffff" /><path
         d="m 146.91,191.97 -2.7148,-0.0195 0.78125,-1.9609 2.7226,0.0234 -0.78906,1.957"
         id="path37"
         style="fill:#ffffff" /><path
         d="m 144.2,190.63 -2.3711,-0.008 -0.0195,-0.008 0.60547,-1.4883 2.3906,0.004 -0.60547,1.5"
         id="path38"
         style="fill:#ffffff" /><path
         d="m 141.69,189.26 -1.918,-0.0195 0.44141,-1.125 c 0.64843,-0.008 1.3008,-0.004 1.9492,0.008 l -0.47266,1.1367"
         id="path39"
         style="fill:#ffffff" /><path
         d="m 148.84,195.33 -0.0117,0.0273 -2.875,0.0352 0.94141,-2.3711 2.8906,-0.0312 -0.94532,2.3398"
         id="path40"
         style="fill:#ffffff" /><path
         d="m 147.76,198 -2.8828,0.0703 -0.0195,-0.008 0.95703,-2.3477 2.8711,-0.0273 -0.92578,2.3125"
         id="path41"
         style="fill:#ffffff" /><path
         d="m 146.61,200.84 c -0.96094,-0.0234 -1.918,-0.0312 -2.8828,0.0469 l 1.0039,-2.4922 2.8945,-0.0508 -1.0156,2.4961"
         id="path43"
         style="fill:#ffffff" /><path
         d="m 143.65,200.04 -2.7031,-0.0391 0.79297,-1.957 2.7031,0.0273 -0.79297,1.9688"
         id="path45"
         style="fill:#ffffff" /><path
         d="m 138.57,198.67 0.60546,-1.5078 2.3789,0.0156 -0.60547,1.5117 -2.3789,-0.0195"
         id="path46"
         style="fill:#ffffff" /><path
         d="m 164.05,188.08 c -1.0039,-1.1445 -2.3984,-1.957 -3.9414,-2.4688 l -2.4141,5.9727 c 1.5391,0.56641 2.8984,1.3438 3.9922,2.3398 z m -3.1328,7.793 c -1.0117,-1.0898 -2.4609,-1.8633 -3.9844,-2.4062 l -2.4531,6.1016 c 1.4961,0.58984 2.8984,1.2891 4.0391,2.2266 z m 6.2031,-8.4883 -7.668,18.977 c -1.9883,-2.7109 -5.4453,-4.4219 -8.918,-5.0703 -1.1953,-0.21875 -2.3945,-0.38281 -3.5898,-0.42969 l 1.0039,-2.4688 c 1.5312,0.043 3.0664,0.22266 4.5977,0.60547 l 2.4766,-6.1367 c -1.5703,-0.3789 -3.1367,-0.42578 -4.6992,-0.33984 l 0.80469,-2.0156 c 1.5469,-0.0312 3.0977,0.0664 4.6484,0.49218 l 2.3906,-5.9102 c -1.5664,-0.30469 -3.1328,-0.41407 -4.6914,-0.35938 l 1.0703,-2.6719 c 3.5547,-0.0156 7.668,0.97656 10.582,3.3359 0.73828,0.58594 1.418,1.2344 1.9922,1.9922"
         fill-rule="evenodd"
         id="path47"
         style="fill:#ffffff" /></g></g></svg>
