<?xml version="1.0" encoding="UTF-8" standalone="no"?>
<svg
   width="65"
   height="65"
   version="1.1"
   id="svg15"
   sodipodi:docname="archMint.svg"
   inkscape:version="1.2.1 (9c6d41e410, 2022-07-14, custom)"
   xml:space="preserve"
   inkscape:export-filename="archMint.png"
   inkscape:export-xdpi="2953.8462"
   inkscape:export-ydpi="2953.8462"
   xmlns:inkscape="http://www.inkscape.org/namespaces/inkscape"
   xmlns:sodipodi="http://sodipodi.sourceforge.net/DTD/sodipodi-0.dtd"
   xmlns="http://www.w3.org/2000/svg"
   xmlns:svg="http://www.w3.org/2000/svg"><sodipodi:namedview
     id="namedview17"
     pagecolor="#ffffff"
     bordercolor="#666666"
     borderopacity="1.0"
     inkscape:showpageshadow="2"
     inkscape:pageopacity="0.0"
     inkscape:pagecheckerboard="0"
     inkscape:deskcolor="#d1d1d1"
     showgrid="false"
     inkscape:zoom="11.313709"
     inkscape:cx="32.571105"
     inkscape:cy="39.244425"
     inkscape:window-width="1920"
     inkscape:window-height="1080"
     inkscape:window-x="1920"
     inkscape:window-y="0"
     inkscape:window-maximized="1"
     inkscape:current-layer="svg15" /><defs
     id="defs7"><linearGradient
       id="a"
       x1="54.638%"
       x2="28.129%"
       y1="26.924%"
       y2="79.519%"><stop
         offset="0"
         stop-color="#fff"
         stop-opacity="0"
         id="stop2" /><stop
         offset="1"
         stop-color="#fff"
         stop-opacity=".27451"
         id="stop4" /></linearGradient><linearGradient
       id="linearGradient59240"
       inkscape:swatch="solid"><stop
         style="stop-color:#376326;stop-opacity:1;"
         offset="0"
         id="stop59238" /></linearGradient><filter
       style="color-interpolation-filters:sRGB"
       inkscape:label="Drop Shadow"
       id="filter116945"
       x="-0.030022849"
       y="-0.035191899"
       width="1.0850647"
       height="1.0997104"><feFlood
         flood-opacity="1"
         flood-color="rgb(0,0,0)"
         result="flood"
         id="feFlood116935" /><feComposite
         in="flood"
         in2="SourceGraphic"
         operator="in"
         result="composite1"
         id="feComposite116937" /><feGaussianBlur
         in="composite1"
         stdDeviation="2"
         result="blur"
         id="feGaussianBlur116939" /><feOffset
         dx="4"
         dy="4"
         result="offset"
         id="feOffset116941" /><feComposite
         in="SourceGraphic"
         in2="offset"
         operator="over"
         result="composite2"
         id="feComposite116943" /></filter><filter
       style="color-interpolation-filters:sRGB"
       inkscape:label="Drop Shadow"
       id="filter116975"
       x="-0.016548399"
       y="-0.13613297"
       width="1.0468872"
       height="1.3857101"><feFlood
         flood-opacity="1"
         flood-color="rgb(0,0,0)"
         result="flood"
         id="feFlood116965" /><feComposite
         in="flood"
         in2="SourceGraphic"
         operator="in"
         result="composite1"
         id="feComposite116967" /><feGaussianBlur
         in="composite1"
         stdDeviation="2"
         result="blur"
         id="feGaussianBlur116969" /><feOffset
         dx="4"
         dy="4"
         result="offset"
         id="feOffset116971" /><feComposite
         in="SourceGraphic"
         in2="offset"
         operator="over"
         result="composite2"
         id="feComposite116973" /></filter></defs><path
     id="path737"
     style="display:inline;fill:#63b548;fill-opacity:1"
     inkscape:label="Shape"
     d="M 32.253906,0.20898438 C 29.404912,7.1932704 27.6749,11.769889 24.503906,18.546875 c 0.0099,0.0105 0.02133,0.02269 0.03125,0.0332 -8.64e-4,0.0018 -0.0011,0.0041 -0.002,0.0059 0.945373,1.00144 2.003464,2.078625 3.28125,3.232421 0.03286,0.02975 0.06059,0.05804 0.09375,0.08789 0.324031,0.291688 0.662796,0.587332 1.017578,0.888672 0.0073,0.0062 0.0142,0.0114 0.02148,0.01758 1.085071,0.920555 2.321833,1.88485 3.765625,2.894531 -4.162435,-1.713855 -6.993609,-3.430991 -9.117188,-5.216797 -0.0016,0.0033 -0.0023,0.0065 -0.0039,0.0098 -0.0038,-0.0032 -0.0079,-0.0066 -0.01172,-0.0098 -0.376914,0.786517 -0.794785,1.641615 -1.214844,2.496094 -0.144831,0.286508 -0.276268,0.547739 -0.425781,0.84961 -0.06543,0.129698 -0.122145,0.254164 -0.179687,0.378906 -0.538774,1.083768 -1.102213,2.207337 -1.720704,3.419922 -0.0021,0.0041 -0.0038,0.0076 -0.0059,0.01172 -9.91e-4,0.0019 -0.0029,0.0039 -0.0039,0.0059 -0.111927,0.217103 -0.224985,0.398335 -0.339844,0.61914 -0.0183,0.03558 -0.114252,0.218178 -0.136719,0.261719 l 0.990235,26.599609 c 1.774117,-0.537111 3.486136,-0.964824 5.146484,-1.285156 L 25.447266,42.78125 c 1e-6,-3.866993 3.185744,-7.052734 7.052734,-7.052734 1.80653,-10e-7 3.447505,0.714528 4.701172,1.849609 1.253703,-1.135081 2.894641,-1.849608 4.701172,-1.849609 3.86699,0 7.156827,3.187146 7.052734,7.052734 l -0.365234,13.539062 c 4.776942,1.884924 9.845819,4.550608 15.664062,7.888672 -1.972996,-3.631992 -3.741832,-6.904443 -5.423828,-10.023437 -2.648994,-2.052996 -4.123776,-4.25935 -9.759766,-7.152344 3.873994,1.006998 5.363395,1.70591 7.525391,3.003906 C 42.859303,24.460921 39.220785,16.575109 35.298828,7.3769531 35.262888,7.2787742 35.22772,7.1803214 35.189453,7.0839844 34.301455,4.9990886 33.431904,2.9324794 32.378906,0.45898438 c -0.0033,0.008128 -0.0065,0.0153137 -0.0098,0.0234375 -0.04342,-0.10201805 -0.07132,-0.17036595 -0.115235,-0.2734375 z M 48.589844,56.320312 c -0.21904,-0.08643 -0.436446,-0.16688 -0.654297,-0.25 0.217894,0.08291 0.435205,0.16355 0.654297,0.25 z m -0.654297,-0.25 c -0.250117,-0.09517 -0.49938,-0.190663 -0.748047,-0.28125 0.248739,0.09106 0.497865,0.185796 0.748047,0.28125 z M 47.1875,55.789062 c -1.035357,-0.379015 -2.059874,-0.716289 -3.076172,-1.017578 1.0163,0.301289 2.040881,0.640435 3.076172,1.017578 z m -3.076172,-1.017578 c 0.03043,0.0064 0.0699,0.01108 0.09961,0.01758 l 0.04297,-12.007812 c 0.0046,-1.326113 -1.025444,-2.351562 -2.351562,-2.351562 -1.326121,-10e-7 -2.30921,1.026056 -2.34961,2.351562 l -0.330078,10.841797 c 1.623914,0.275482 3.247742,0.661973 4.888672,1.148437 z m -4.888672,-1.148437 c -0.677065,-0.114858 -1.35608,-0.208244 -2.035156,-0.285156 0.679825,0.07667 1.357577,0.170211 2.035156,0.285156 z M 37.1875,53.337891 c -0.09956,-0.01123 -0.199186,-0.0228 -0.298828,-0.0332 0.09967,0.01045 0.19924,0.02192 0.298828,0.0332 z m -0.298828,-0.0332 c -0.676187,-0.07092 -1.353667,-0.123736 -2.035156,-0.15625 0.681025,0.03249 1.359198,0.08567 2.035156,0.15625 z m -2.035156,-0.15625 -0.002,-10.367188 c 0,-1.32612 -1.025441,-2.351562 -2.351562,-2.351562 -1.326121,-10e-7 -2.351566,1.02544 -2.351562,2.351562 l 0.0059,10.451172 c 1.59401,-0.129391 3.156474,-0.15759 4.699219,-0.08398 z m -4.699219,0.08398 c -0.706062,0.05731 -1.419775,0.136025 -2.140625,0.234375 0.720939,-0.09793 1.434686,-0.177072 2.140625,-0.234375 z m -4.464844,0.615234 c 0.744475,-0.143631 1.478477,-0.264359 2.205078,-0.365234 -0.726229,0.101257 -1.460765,0.221634 -2.205078,0.365234 z M 15.1875,36.900391 c -0.217624,0.412467 -0.610851,1.138453 -0.716797,1.339843 0.0012,-6.98e-4 0.0027,-0.0013 0.0039,-0.002 C 10.85725,45.007461 6.3269481,53.296804 0.25390625,64.208984 5.969896,61.060667 10.992814,58.638764 15.5625,56.863281 Z m 0.375,19.96289 c 0.860818,-0.334457 1.705645,-0.645262 2.535156,-0.933593 -0.83022,0.288342 -1.673774,0.598916 -2.535156,0.933593 z m 2.535156,-0.933593 c 0.773481,-0.268856 1.532134,-0.516941 2.28125,-0.746094 -0.748242,0.228877 -1.508553,0.477729 -2.28125,0.746094 z" /><path
     fill="#ffffff"
     fill-opacity="0.16568"
     d="M 50.266,38.249 C 36.394,19.422 33.179,4.247 32.364,0.624 c 7.4,17.067 7.349,17.277 17.902,37.625 z"
     id="path11"
     style="display:inline"
     inkscape:label="Shade"
     sodipodi:insensitive="true" /></svg>
